<svg width="21" height="23" viewBox="0 0 21 23" fill="none" xmlns="http://www.w3.org/2000/svg">
<path d="M11 2C11 3.16 10.7171 5.49 10.0743 7.575C9.57714 8.82 9.14429 9.995 8.85929 10.9925C8.71571 11.495 8.57429 11.99 8 13" stroke="#2D2D2D" stroke-width="3" stroke-linecap="round"/>
<path d="M18 3C17.8533 3.90455 17.2622 5.71818 16.6689 7.53864C15.9289 9.35909 15.04 10.7227 14.5222 11.6295C14.2978 12.0864 14.1511 12.5364 14 13" stroke="#2D2D2D" stroke-width="3" stroke-linecap="round"/>
<path d="M2.38217 10C2.24816 10.545 2.07126 11.3101 2.00224 13.3302C1.9678 14.3383 2.33661 15.086 2.67098 15.7435C3.06601 16.5203 3.67408 17.3285 4.3676 18.1239C4.82815 18.6521 5.46183 18.8093 6.02067 19.1918C6.66735 19.6345 7.20402 20.0669 7.85198 20.3419C8.40704 20.5774 8.94622 20.7794 9.92787 20.8894C11.2329 21.0356 13.1007 21.0552 13.9932 20.836C14.7599 20.6477 15.3789 20.3985 15.9378 20.1522C16.6247 19.8495 17.1211 19.1968 18.0585 17.9671C18.2844 17.4467 18.4184 17.0609 18.5745 16.7334C18.6422 16.5684 18.6864 16.4059 19 15.9101" stroke="#2D2D2D" stroke-width="3" stroke-linecap="round"/>
</svg>
