<svg width="707" height="283" viewBox="0 0 707 283" fill="none" xmlns="http://www.w3.org/2000/svg">
<path d="M107.008 117.318C113.383 114.109 117.966 118.651 112.188 123.484C112.688 129.484 111.91 134.651 109.869 138.97C112.758 140.567 111.174 160.345 110.327 161.095C108.369 159.678 108.147 160.192 109.674 162.65L105.98 166.484C92.6191 170.261 79.3414 174.442 67.036 179.997C66.1888 180.386 65.1194 179.511 64.3555 178.65C63.3833 180.678 62.1889 180.914 60.6334 179.678C59.4528 178.734 63.3555 178.872 64.3555 179.983C67.2305 182.22 65.2166 195.4 63.2305 198.428C61.2445 201.455 50.3835 206.761 48.3557 202.65C42.0364 203.025 46.7724 185.65 51.7168 183.609C47.6196 180.234 46.7585 177.136 50.8835 173.011C51.6057 170.636 42.3836 169.734 41.8003 169.872L25.6338 186.608C21.7866 191.803 11.7034 194.872 17.6894 186.636L17.3006 182.275C30.106 165.276 49.1057 152.192 65.6888 141.304C66.0222 141.109 66.7027 141.498 67.0222 141.304C79.8415 133.554 94.8274 125.359 107.022 117.304L107.008 117.318Z" fill="#A2C197"/>
<path d="M120.341 109.318C128.868 106.165 130.549 110.762 125.896 117.234C128.188 119.123 128.896 121.193 127.132 123.707C137.146 125.956 138.729 128.998 133.743 137.762C127.007 137.929 126.368 139.457 131.785 142.331C130.951 148.234 132.576 149.678 136.688 146.678C135.799 134.568 144.312 136.567 145.674 146.637C146.632 148.248 147.521 150.026 148.34 151.97C151.562 149.873 153.687 155.248 151.09 156.956C145.979 156.234 141.062 156.345 136.34 157.304C131.826 160.567 119.549 163.859 113.618 164.303L109.674 162.637C105.285 163.081 107.896 161.873 107.855 159.623C107.757 154.595 109.466 147.609 109.313 144.845C109.202 142.873 107.299 140.762 107.243 139.054C107.174 136.651 110.299 135.957 109.66 133.318L101.674 135.97C100.674 128.97 108.341 130.609 109.063 129.429C110.952 126.29 107.41 121.762 112.368 120.651C112.41 116.859 109.133 118.707 107.008 117.318C109.841 115.443 114.049 111.818 117.674 109.318C118.202 109.943 118.646 109.943 119.007 109.318C119.452 109.012 119.813 108.346 120.341 107.985C121.174 108.374 121.16 108.832 120.341 109.318Z" fill="#A4C498"/>
<path d="M239.006 51.9853L235.006 53.3186C236.326 52.902 237.548 52.4159 239.006 51.9853Z" fill="#DAF7FC"/>
<path d="M233.673 53.3186L231.006 54.6519C231.534 54.4713 232.367 53.7492 233.673 53.3186Z" fill="#DAF7FC"/>
<path d="M117.674 109.318C117.979 109.11 118.702 109.526 119.007 109.318L118.355 110.624L117.674 109.318Z" fill="#9DBB96"/>
<path d="M284.339 194.65C287.755 197.914 287.019 202.358 284.075 205.997C294.061 206.969 289.658 214.928 280.741 214.08C282.519 219.455 281.408 224.65 276.186 227.58L276.728 233.247C282.089 241.608 277.283 253.622 271.255 240.969C267.047 245.608 263.408 251.719 272.505 251.497L283.241 255.094C293.464 253.997 292.964 264.594 282.672 260.913C286.658 263.607 287.005 266.621 282.728 269.969L284.339 271.982C286.311 273.677 285.366 274.066 283.005 274.649C275.922 274.621 268.755 274.51 261.672 274.649C257.714 274.246 254.27 272.441 251.339 269.232L237.673 274.649C235.45 275.983 233.145 277.357 230.589 277.927C224.367 279.316 193.006 284.038 189.701 282.788C188.757 282.427 187.868 281.899 187.007 281.329C186.326 277.718 190.465 274.774 193.729 273.844L193.895 271.802C188.812 272.163 177.423 263.163 175.326 259.094C173.465 255.469 172.798 242.483 176.34 239.997C178.493 236.024 183.229 235.955 190.548 239.788C199.659 244.413 209.034 248.33 218.701 251.566C226.159 253.788 237.034 253.733 239.714 244.983C243.27 225.566 247.964 206.4 253.797 187.484C259.061 173.095 279.853 186.414 284.325 194.664L284.339 194.65Z" fill="#9FBE94"/>
<path d="M360.324 15.986C360.449 16.5971 361.518 17.0137 361.657 17.3193C362.657 15.9582 363.102 16.4026 362.991 18.6525C368.115 18.8609 369.796 32.694 366.99 35.9856C363.06 35.569 364.643 32.9163 363.671 33.3191C362.421 33.8469 361.296 36.8328 358.379 35.9717C357.116 35.5967 353.574 25.2913 353.657 37.3189C351.824 38.0411 349.171 35.9439 348.324 35.9717C346.782 31.819 342.435 28.8331 342.991 23.972C345.005 24.2637 347.893 23.5137 349.657 23.972C354.671 24.9165 357.588 25.1247 357.657 18.6386C358.171 17.347 356.56 15.2638 360.324 15.9721V15.986Z" fill="#5FB592"/>
<path d="M349.657 23.9855C354.074 24.3327 351.81 23.2355 350.74 20.9022C348.407 15.7634 346.102 11.1941 345.671 5.31915L355.004 23.9719C356.615 24.0414 356.935 20.458 357.657 18.6524V27.9856C357.074 28.7773 350.101 24.0966 349.657 23.9855Z" fill="#B4E0A4"/>
<path d="M267.006 30.6521V15.9859C269.728 16.9581 268.186 24.9303 269.922 26.4025C270.839 27.1663 275.908 27.069 277.672 27.9856C277.075 31.4717 284.631 32.6383 284.367 37.3188C285.922 37.6243 286.117 35.7773 287.006 34.6523C287.172 31.1662 288.061 29.8327 289.672 30.6521C290.033 27.4716 290.922 26.1385 292.339 26.6524C293.936 25.4163 297.422 25.5413 297.672 25.3191C299.783 25.7496 299.63 26.9717 297.672 27.9856C298.839 28.3189 298.811 28.7633 297.672 29.3189L299.519 29.5549C299.214 33.8604 299.936 35.9994 301.672 35.9855C301.297 32.9578 303.936 29.9577 307.005 31.9854C313.116 30.9715 310.519 34.0549 311.005 38.6521C310.227 39.2354 309.422 39.7356 308.561 39.9161C298.366 41.9578 288.075 43.652 277.825 45.2909C275.825 45.6103 274.006 45.166 272.339 43.9854L269.436 42.4853C269.297 38.3604 268.492 34.4299 267.006 30.6521Z" fill="#77C68D"/>
<path d="M267.006 30.6521C272.895 31.6382 271.367 39.2077 272.339 43.9854C267.867 48.4298 260.964 50.0964 255.006 47.9853C254.686 47.4714 253.978 47.1104 253.672 46.652C252.047 44.1799 249.492 42.0271 249.672 38.666C251.783 38.9021 254.353 38.3049 256.339 38.666C262.005 39.3744 264.172 37.0688 264.339 30.6661C265.2 30.7495 266.186 30.5272 267.005 30.6661L267.006 30.6521Z" fill="#61B693"/>
<path d="M253.672 22.6522C252.659 24.555 260.075 35.5549 262.339 37.3188L264.339 30.6521V41.3189C263.422 42.3467 257.547 38.8743 256.339 38.6521C260.658 39.0132 258.645 37.916 257.367 35.6244C255.603 32.43 252.895 29.5549 252.311 25.7633C251.853 22.805 253.659 22.8189 253.672 22.6522Z" fill="#B1DEA5"/>
<path d="M285.672 82.6517C288.436 84.5128 291.436 85.4155 294.672 85.36L296.338 87.9848L293.172 91.4153C283.061 92.7763 273.63 96.1515 264.242 99.5542C263.214 99.9292 262.436 99.7206 261.672 98.6512L259.603 102.235C247.825 108.165 236.242 114.762 227.27 124.623L223.006 125.318C218.214 129.693 216.242 125.415 218.881 120.04C207.853 125.971 196.451 131.318 184.687 136.068C182.965 140.526 180.631 142.943 177.687 143.318C182.048 145.512 181.868 162.067 177.687 164.65C183.659 168.345 171.451 175.164 169.687 169.317L165.618 170.248C145.965 160.637 125.813 166.387 106.966 174.484C94.3965 176.428 82.2022 179.511 70.3829 183.747C71.869 197.011 67.4941 204.872 57.2581 207.316L37.8556 212.303L35.0222 210.664C33.05 212.594 28.7029 209.025 29.689 206.664C32.9112 202.803 44.0638 199.831 48.3554 202.664C50.0359 202.178 52.0359 202.65 54.6192 201.636C65.1052 197.553 62.6747 189.4 64.3552 179.997C63.1885 179.622 63.2024 179.178 64.3552 178.664C65.008 178.664 68.6051 175.637 70.6468 174.956C82.9244 170.845 97.327 166.137 109.688 162.664C118.271 160.262 127.243 157.762 136.354 157.331L140.563 156.526C146.84 155.706 152.798 155.706 158.437 156.526C166.659 160.581 174.854 160.178 171.173 149.873L173.687 148.012C170.701 145.915 171.59 139.901 175.02 138.679C168.521 134.943 175.743 129.012 180.312 126.429C191.729 120.484 203.576 115.207 215.839 110.623C218.52 104.36 241.02 88.61 246.797 88.8738C247.436 88.9016 248.047 89.7348 248.645 90.7903C251.478 87.9431 254.047 87.0126 256.353 88.0126C256.63 84.4154 257.95 84.5821 259.019 88.0126L261.686 86.6793C261.63 83.6516 263.089 83.2347 266.047 85.4569L275.019 84.0128C278.436 83.4989 282.241 83.0125 285.686 82.6792L285.672 82.6517Z" fill="#99B88E"/>
<path d="M65.6607 162.65C65.7301 164.512 66.369 166.067 66.119 167.97C66.0079 168.734 64.3412 176.095 61.6746 174.651C63.6468 171.234 59.4941 162.373 65.6607 162.664V162.65Z" fill="#A6C59A"/>
<path d="M64.3416 178.65V179.984L60.3556 185.317L58.9945 177.998C60.1473 175.567 64.0222 178.65 64.3555 178.65L64.3416 178.65Z" fill="#A6C59A"/>
<path d="M53.661 195.983C49.8832 194.72 52.0638 193.594 52.3554 190.65C56.1332 191.914 53.9526 193.039 53.661 195.983Z" fill="#A6C59A"/>
<path d="M17.6757 186.65C16.0229 188.442 15.7867 190.845 19.0228 188.678C26.9533 183.386 34.5782 170.539 43.7031 165.345L43.0087 167.97H50.9947C51.5224 165.623 48.8697 167.123 48.4113 166.567C46.1058 163.734 59.9667 158.498 56.314 164.623C55.7724 165.539 51.6613 170.039 52.328 170.637C55.0085 173.025 55.4251 164.803 57.0085 169.289C60.5779 179.387 55.2863 174.331 53.078 174.748C51.1474 175.123 50.2724 179.178 50.9947 179.97C52.3002 181.4 54.814 177.72 55.7168 177.359C58.7584 176.109 58.7723 180.886 53.6335 180.664L55.6751 187.942C54.9807 187.039 51.4947 186.178 50.9947 186.636C50.3974 187.192 46.703 200.706 48.328 202.65C42.2031 204.4 36.1337 206.442 29.6616 206.65L27.9255 207.456C20.4256 201.858 11.1896 199.456 3.3425 205.817L1.67583 205.317H0.342529L17.6757 186.65Z" fill="#A6C59A"/>
<path d="M57.6751 158.637C54.8835 159.012 54.6474 158.775 55.0224 155.984L57.6751 158.637Z" fill="#A6C59A"/>
<path d="M53.6608 158.665C54.5636 159.123 52.8831 160.928 51.0081 159.97C50.1054 159.512 51.7859 157.706 53.6608 158.665Z" fill="#A6C59A"/>
<path d="M259.006 51.9852C263.075 55.8602 263.964 58.7906 261.048 61.9711C261.867 67.6794 258.492 72.1793 250.964 75.457C255.339 76.0681 257.131 80.2486 256.339 87.9708C250.048 89.8457 233.02 97.8875 227.117 102.082C223.465 104.679 219.506 111.568 217.243 112.818C209.631 117.04 197.659 120.081 189.382 124.345C185.937 126.109 176.368 131.179 175.285 134.304C174.729 135.887 175.257 137.47 175.007 138.637C172.604 141.053 172.063 142.609 171.549 146.081L169.674 146.637C169.479 153.553 163.84 154.928 152.799 150.734L148.34 151.97L142.993 151.97C142.368 148.956 145.451 147.192 145.674 146.637C143.646 144.817 144.535 143.984 147.007 145.303L149.327 143.54C148.827 147.442 154.479 145.887 155.716 142.859C159.91 142.54 169.215 139.97 161.757 139.095C157.66 133.22 162.063 130.679 167.979 131.165C166.521 120.651 168.604 117.026 174.257 120.318C176.229 110.373 182.715 108.471 190.354 115.095C189.493 111.318 189.91 108.262 191.632 105.929C181.021 97.4011 186.618 87.9708 198.951 94.2346C205.548 89.7902 207.298 87.6653 209.368 79.3737C213.604 74.8877 214.145 71.5405 211.02 69.3183L212.354 66.6101C226.034 60.6657 241.812 55.6657 256.353 51.9435C257.089 49.3463 258.284 49.388 259.02 51.9435L259.006 51.9852Z" fill="#A1C096"/>
<path d="M191.007 74.6518C193.548 74.8324 194.271 77.5265 193.187 82.7209C196.465 87.3736 195.368 92.8877 189.201 89.5544C187.132 95.221 182.201 96.6237 179.632 90.5682L175.396 95.5402C182.271 102.651 168.424 111.36 161.465 108.318C163.993 109.249 165.229 111.249 165.563 113.887C172.924 117.554 168.632 123.096 162.077 124.512C163.549 128.04 161.799 131.665 159.896 134.693C169.59 140.762 153.118 146.623 147.021 145.317C146.91 145.623 145.924 146.053 145.688 146.651C141.938 148.692 142.077 137.998 139.021 141.332C138.452 141.943 143.98 151.151 130.383 150.609C126.258 148.97 133.174 141.901 127.021 142.665C127.216 144.47 129.091 144.706 127.508 146.72C127.077 147.276 124.021 150.123 123.021 150.651C125.48 145.873 119.063 143.998 119.022 143.331C118.841 140.512 122.466 138.595 125.035 141.276C125.285 140.165 126.785 134.901 127.021 134.651C127.591 134.026 131.577 136.526 132.327 135.998C132.952 135.554 134.035 128.29 133.66 126.665L129.021 133.318C125.41 131.693 128.924 127.484 128.355 126.665C127.91 126.026 122.633 126.873 121.688 124.651L127.008 119.998L123.035 121.332C120.216 117.721 127.313 112.707 125.688 110.679C123.438 107.86 122.896 113.582 122.369 113.332L120.369 109.332C143.007 95.8737 166.59 84.4156 191.035 74.6657L191.007 74.6518Z" fill="#A7C79B"/>
<path d="M173.673 147.984C173.548 150.803 176.229 154.928 173.729 159.123C172.784 160.706 170.729 159.623 169.895 160.136C169.659 160.275 171.215 163.22 169.034 163.956C158.632 157.692 148.229 156.762 136.354 157.331C138.174 154.234 148.396 157.067 149.687 155.984C150.146 154.595 148.326 152.595 148.354 151.998C148.799 143.928 161.104 150.928 163.59 150.678C166.465 150.401 168.979 146.831 169.687 146.664C171.784 143.026 173.52 143.789 173.687 147.998L173.673 147.984Z" fill="#9FBE94"/>
<path d="M312.338 39.9853C307.255 40.8742 300.658 42.8743 295.005 43.9854C284.228 50.1381 271.367 53.013 259.006 51.9852C258.228 52.1797 257.117 51.7909 256.339 51.9853C256.117 50.5826 255.756 49.2075 255.006 47.9853C260.755 46.4992 266.492 45.0965 272.339 43.9854C285.158 41.541 298.172 40.902 311.005 38.6521C311.047 39.0548 311.949 39.6103 312.338 39.9853Z" fill="#91B68A"/>
<path d="M212.339 66.652C212.909 66.8742 213.409 68.9296 214.659 69.2768C217.409 70.0268 221.27 67.499 220.353 71.9851H215.006L217.673 75.9852C210.812 74.888 210.228 88.9851 206.798 93.0684C206.631 93.2628 204.964 92.3737 203.673 93.2071C202.27 94.1237 201.173 96.7905 199.478 97.1377C198.034 97.4293 185.895 90.0545 189.228 99.6516C189.617 100.79 195.437 105.429 196.326 107.332L192.326 107.999C195.214 127.54 188.367 115.123 183.131 113.929C175.506 112.179 178.742 127.193 172.618 123.596C172.131 123.304 173.048 120.068 169.673 121.332C173.604 139.359 166.007 131.596 163.007 134.679C158.784 138.998 168.118 135.734 168.326 135.998C170.548 138.707 166.659 141.206 165.798 142.484C165.27 143.262 165.895 145.081 165.659 145.331C165.215 145.818 162.298 144.067 160.937 144.165C157.146 144.429 151.507 148.387 147.007 145.331C147.507 144.026 147.257 138.429 148.354 137.332C152.604 133.137 149.187 144.679 149.687 145.331C156.618 144.262 153.868 142.373 155.104 140.095C155.284 139.776 160.27 141.554 161.659 137.97L156.354 137.318C155.659 136.332 160.118 130.165 160.034 127.026C159.979 124.832 157.701 123.582 157.701 123.304C157.632 120.707 168.173 122.248 167.007 117.985C166.729 116.985 164.243 116.61 163.437 115.554C162.604 114.429 163.034 112.401 161.645 111.318C160.09 110.11 156.909 111.832 157.687 108.665C160.645 103.096 164.382 107.124 167.409 106.429C167.882 106.318 174.895 101.096 175.006 100.624C176.506 94.6377 166.909 101.263 165.687 99.971V93.3183C169.951 92.3599 167.034 97.2904 171.659 96.0265C172.312 95.8459 176.187 88.2905 181.034 86.6655C184.756 85.4294 179.576 92.4711 184.992 91.9711L189.02 83.9851L192.34 89.3181C193.298 86.6932 190.062 83.6793 190.173 82.0127C190.256 80.6099 194.853 76.9852 191.02 74.6519C191.784 74.3464 192.617 73.735 193.687 73.3183C199.381 77.1933 201.312 76.985 199.478 72.6934L201.687 70.6518C203.825 69.8879 205.645 68.8325 208.353 67.9853L209.687 66.652C210.242 66.5409 211.992 66.5131 212.353 66.652H212.339Z" fill="#A4C498"/>
<path d="M201.673 70.6517C202.409 72.7489 203.534 79.5545 201.034 79.8462C200.381 79.9156 198.631 78.4154 197.187 78.5126C195.534 78.6237 197.312 81.9153 195.02 81.3042L193.673 73.3182C196.34 72.2905 199.02 71.5961 201.673 70.6517Z" fill="#A7C79B"/>
<path d="M208.34 67.9852L209.673 66.6519C209.326 66.7214 208.798 67.8463 208.34 67.9852Z" fill="#A1C096"/>
<path d="M458.989 38.6521C466.85 34.166 482.586 35.8885 489.655 41.319C490.086 41.3745 490.558 41.2634 490.988 41.319L494.988 42.6522C495.419 42.7217 495.891 42.5828 496.322 42.6522C501.78 43.5966 507.113 44.9298 512.321 46.652C512.752 46.7492 513.224 46.5548 513.655 46.652L516.321 47.9853C516.752 48.0825 517.238 47.888 517.655 47.9853L525.655 50.6521C526.057 50.7771 526.571 50.541 526.988 50.6521C571.473 62.8186 611.348 79.3876 652.597 100.373C656.403 102.318 662.972 107.901 665.57 108.734C677.139 112.443 695.069 106.11 706.972 110.651C697.666 110.457 688.278 110.665 678.972 110.651C671.445 110.651 663.833 110.526 656.306 110.651C600.459 81.9294 540.696 53.5687 477.044 45.7494L472.308 42.6522L468.308 41.319C467.725 43.4439 467.044 42.8189 465.642 41.319C459.28 47.9855 440.753 35.9438 458.975 38.6521H458.989Z" fill="#9DBB96"/>
<path d="M312.338 213.317L312.213 216.206C306.019 218.942 302.588 222.844 301.921 227.886C311.991 231.372 309.894 237.302 307.005 245.302C303.088 249.136 287.283 267.51 284.338 271.969L269.686 273.288C270.505 265.302 285.297 272.052 283.019 263.969H279.005C280.325 257.969 281.616 256.913 287.713 259.941L288.352 257.302C281.352 259.497 275.644 254.386 270.158 253.719C268.783 253.552 266.13 255.024 265.7 254.649C265.269 254.274 263.658 243.622 264.561 242.761C264.991 242.344 267.394 243.094 268.102 242.399C268.811 241.705 267.852 238.83 269.005 238.608C275.714 237.288 272.769 241.4 275.005 243.344C279.533 247.261 274.769 235.775 274.352 234.608C273.783 233.066 273.825 229.553 273.644 229.372C273.325 229.066 265.214 230.108 268.366 226.678C268.602 226.414 270.908 226.594 271.686 225.372C273.144 223.052 271.589 217.65 275.713 215.997C279.186 214.608 276.894 220.553 276.283 221.65C275.477 223.08 274.019 222.136 273.686 223.33C272.38 227.927 278.422 224.358 278.991 219.261C279.283 216.636 276.075 213.289 280.422 211.261C282.644 210.219 285.797 212.761 287.019 209.969C288.672 206.178 282.797 210.595 281.713 207.303C281.436 206.456 281.825 205.025 281.713 203.969L284.366 203.331L279.061 199.317L283.713 201.317L284.38 194.65C285.116 194.164 285.755 193.831 286.102 194.025C293.56 198.22 305.046 205.109 311.796 210.067L312.38 213.317H312.338Z" fill="#A3C398"/>
<path d="M176.34 239.983C177.52 243.997 175.729 254.691 177.562 257.677C178.923 259.885 189.229 268.316 191.715 269.302C194.201 270.288 193.603 264.233 196.34 266.663C197.562 267.76 196.187 272.441 196.603 273.01L201.659 277.33C200.617 281.149 196.798 275.843 193.59 276.468C191.867 276.802 189.59 280.913 187.006 281.316C183.687 281.704 180.006 282.274 176.34 282.649C161.159 271.649 145.021 261.788 127.938 253.066L127.007 250.65C121.674 246.858 127.715 244.705 132.132 243.761C147.785 245.941 161.757 243.997 174.02 237.927L176.34 239.983Z" fill="#A3C397"/>
<path d="M260.339 178.65C263.436 175.275 265.658 175.72 267.006 179.984C267.256 178.789 267.7 178.831 268.339 179.984C277.353 180.22 284.978 187.748 289.672 194.65L293.491 193.914C303.88 199.525 315.616 205.053 325.769 208.789C326.727 209.136 326.935 210.733 327.005 211.983L330.421 210.928C334.06 213.331 337.366 215.9 340.338 218.65C338.671 219.886 336.435 223.164 333.671 225.317C328.324 220.969 321.449 218.025 313.005 216.469L312.338 213.317C304.144 209.594 292.38 200.122 284.339 194.65C282.255 193.233 280.269 190.289 276.742 188.247C271.381 185.15 261.283 179.567 256.242 185.886C254.881 187.581 245.728 221.4 244.645 226.289C242.992 233.761 245.395 248.566 236.728 253.038C220.784 261.274 203.479 246.233 189.048 241.261C183.659 239.4 181.604 238.483 176.326 239.983C171.048 241.483 168.048 244.441 162.174 245.163C151.688 246.455 140.771 243.455 130.591 246.983C128.452 247.719 126.313 247.483 126.993 250.65C122.48 252.386 114.966 248.663 113.66 243.983L114.73 240.65C126.48 238.163 138.591 237.872 151.049 239.747C159.451 240.608 164.785 237.483 171.368 232.761C182.798 231.469 194.048 234.414 205.104 241.58C216.992 246.122 232.548 251.83 237.089 235.108C240.839 217.969 245.284 201.053 250.436 184.359C252.339 180.123 256.283 174.373 260.311 178.65H260.339Z" fill="#97B68C"/>
<path d="M468.322 41.319L472.322 42.6523C526.794 46.6939 600.904 77.8878 648.709 104.249C650.945 105.485 656.709 107.61 656.306 110.651C648.334 110.776 640.265 110.36 632.306 110.651C630.029 109.915 629.931 108.123 632.001 105.276L628.556 104.457C624.598 111.499 611.015 113.04 615.445 102.582C607.584 106.193 604.376 103.235 607.418 95.2626L600.029 90.5266C596.598 83.8323 583.182 82.3739 580.335 89.4016C573.557 88.4294 566.557 88.1932 559.321 88.6793C555.252 87.5682 545.155 85.4849 544.044 90.0126C540.502 90.2904 536.96 90.1934 533.613 88.8601C528.085 90.0684 522.572 88.1516 517.099 83.11C514.322 91.0543 501.364 83.9016 502.155 78.235C498.808 85.1099 496.072 89.3183 487.864 86.6934C481.822 89.9989 476.642 90.4293 472.308 87.9849L468.892 88.11C463.892 81.0823 457.795 75.4711 450.614 71.2767L449.642 67.9853C443.17 66.0548 448.961 51.7215 454.545 50.9021C462.128 49.791 468.058 60.7907 459.142 64.2907C465.711 68.4434 467.489 67.0545 464.503 60.1241L466.739 57.6244C472.614 56.8327 471.739 52.3049 464.1 44.0273L465.656 41.3051C466.517 41.4162 467.447 41.2357 468.322 41.3051V41.319Z" fill="#A9C99D"/>
<path d="M472.322 87.9848C477.433 88.2626 484.197 84.5125 487.725 84.0542C490.016 83.7625 492.6 85.957 495.391 84.1098C497.447 82.7487 500.058 73.7766 503.655 71.9989C506.822 74.1377 503.947 80.9709 504.294 81.3042C504.433 81.4431 506.863 81.2904 508.169 82.0682C511.849 84.2765 510.655 87.2347 514.974 81.9848L512.322 79.9988C519.724 77.096 522.099 88.4986 526.322 82.6792C526.363 85.2486 526.655 86.4015 529.002 87.9709C533.377 88.2625 526.488 81.7487 532.821 84.1376C536.266 85.4431 535.599 91.8458 542.974 89.3041C543.71 87.5125 537.474 87.9988 540.307 85.3183C541.071 84.6099 545.419 87.1239 544.321 82.6517L540.321 81.332L544.835 79.9432C547.641 87.3875 547.141 83.8322 553.627 85.3183L553.655 75.999C556.238 75.7907 554.363 80.6795 557.057 81.2212C558.21 81.4573 561.141 79.4154 561.627 79.9849C564.016 82.7626 559.835 85.3183 556.307 83.9989C557.557 87.5961 563.502 85.1099 566.974 86.6376L564.293 79.9849C569.432 78.9849 575.501 78.0962 568.307 83.3045C570.543 88.3183 576.474 84.7348 577.404 85.5404C578.14 86.1931 576.751 88.5264 578.96 87.9709L578.987 82.6517L582.974 83.9989L583.64 79.9849L587.654 83.9711C586.682 79.6378 597.251 83.9571 599.39 85.2348C600.473 85.8876 600.779 87.8461 601.737 88.4988C604.945 90.6932 608.626 91.7903 610.973 95.332C609.473 98.8875 607.709 96.4986 609.668 102.637C611.876 103.193 610.195 100.374 611.89 99.9431C613.251 99.6098 614.89 100.068 616.32 99.9709L615.001 94.6514C617.056 95.6236 620.39 96.6098 620.376 99.2765C620.362 101.263 613.904 107.138 618.348 107.985C623.098 108.901 626.695 101.86 627.542 101.735C629.292 101.471 633.695 103.61 636.32 102.665L632.32 110.651C628.001 110.818 621.57 111.707 616.32 111.985C608.223 113.387 600.223 113.832 592.321 113.318C590.418 113.915 588.168 113.318 586.335 112.512C565.196 93.8183 530.919 83.4711 507.766 103.804C500.766 108.262 492.919 107.887 485.85 103.943C480.933 101.207 470.656 93.5958 472.336 87.9848H472.322Z" fill="#A4C498"/>
<path d="M356.324 70.6515L358.962 69.0823C364.518 72.36 371.754 70.2903 377.129 67.4432C378.198 69.4292 381.032 68.2625 382.615 67.0542C387.629 58.0405 411.295 60.9296 417.906 66.6239C424.295 80.2071 428.656 78.9847 436.823 67.1237C440.503 63.721 448.836 61.9434 449.642 67.9989C459.711 71.735 465.794 80.5819 472.308 87.9985C477.155 93.5123 482.655 100.151 490.016 102.957C503.183 107.971 508.211 98.6513 518.058 94.4014C535.224 86.9848 556.432 90.5542 572.363 99.2763C579.543 103.207 585.293 109.471 592.321 113.318C591.987 113.346 591.348 114.623 590.987 114.651C587.932 114.901 584.696 114.359 581.654 114.651L576.043 113.123C569.265 107.693 561.599 103.345 553.418 100.457L552.321 97.3178L549.141 99.2346C536.863 96.1374 526.016 97.415 515.308 104.234C511.586 106.609 506.322 111.498 503.613 114.484C500.725 113.554 498.488 114.179 496.877 116.359C494.461 116.442 492.252 115.804 490.002 115.026C486.655 113.873 474.808 106.429 476.336 102.651C469.35 100.151 466.239 96.5958 467.003 91.9847C464.586 91.8736 462.781 91.6373 464.336 89.3179C462.406 88.7207 459.795 87.8597 460.336 85.3181L458.683 86.2068C448.447 74.6236 440.725 74.2625 435.489 85.1513C432.67 87.8873 428.406 91.9984 425.656 87.9846C420.476 85.9846 415.392 81.9987 410.434 75.9988C400.184 67.5684 386.101 74.3043 375.879 79.7348C373.226 80.1931 362.879 80.4431 361.657 77.3182C358.629 79.4987 355.824 79.0265 353.657 75.9849L352.56 77.5681C344.199 76.2348 335.504 75.1376 326.713 76.9153L324.324 74.6516L321.657 77.3182C324.63 81.4153 317.56 90.6652 313.658 86.6513L300.324 87.9846C299.144 91.6373 297.505 91.6512 296.324 87.9846C291.88 87.6513 286.172 88.457 285.658 82.6516C286.963 82.5266 288.338 82.721 289.658 82.6516L298.991 81.318C301.199 81.2902 303.449 81.443 305.658 81.318C307.005 82.2485 308.324 82.3735 309.658 81.318C310.505 81.2207 311.852 81.5402 312.324 81.318L316.324 77.3182C318.838 75.221 321.046 71.596 322.991 70.6515C322.671 65.596 335.796 64.3739 338.991 67.985C339.852 67.8739 340.782 68.0822 341.657 67.985C346.699 67.5267 350.699 68.4154 353.657 70.6515C354.449 70.8182 355.49 70.4987 356.324 70.6515Z" fill="#97B68C"/>
<path d="M295.005 43.9854C292.436 53.1381 280.894 56.0684 280.325 65.3183C273.825 59.0684 270.478 71.5963 264.631 73.5546L264.353 77.3183L271.005 75.3185C269.38 77.874 266.325 81.6098 263.006 81.3181C262.274 79.707 262.274 79.707 263.006 81.3181C262.7 88.2069 270.894 83.7211 275.005 83.985C272.033 84.4433 264.825 85.9293 261.672 86.6515L259.006 87.9848C258.269 88.207 257.075 87.7626 256.339 87.9848C253.714 89.5681 253.506 84.0127 252.353 85.3322C251.575 86.221 251.228 90.4013 248.353 90.6513C246.311 81.3598 257.422 87.7766 252.325 77.3322C249.172 77.2211 252.367 81.2487 252.297 82.0126C252.228 82.7764 250.311 84.7764 248.978 82.6653C248.756 82.3042 248.186 74.6657 248.256 74.249C248.325 73.8323 252.797 70.6933 253.714 70.2072C254.825 69.6238 256.27 70.7628 256.339 70.6517C258.533 66.8184 254.533 65.8741 251.02 66.638C255.367 58.9714 254.922 65.4294 260.353 65.3044C260.908 63.0683 258.131 64.763 257.742 63.1519C256.561 58.1937 260.131 58.902 260.325 58.6381C262.519 55.6937 254.645 56.3742 259.019 51.9853C270.978 49.0132 282.908 46.3465 295.019 43.9854H295.005Z" fill="#A4C499"/>
<path d="M372.323 15.986C375.393 15.2083 377.615 18.3193 378.99 25.3192C379.601 24.7914 379.601 24.3467 378.99 23.9856C375.99 21.8051 375.073 15.7638 380.323 17.3193C380.393 19.0971 380.254 20.8885 380.323 22.6524C382.421 22.3746 383.157 19.7637 384.309 18.6526C384.907 15.9859 385.795 15.0972 386.976 15.986C391.281 13.2639 391.698 15.2498 392.309 19.9858C394.198 20.0553 394.198 21.8332 392.309 25.3192C392.393 26.2359 391.754 28.0274 392.976 27.9857C401.879 17.7498 409.017 25.8192 401.642 34.6524L397.642 35.9857C388.49 36.2357 375.768 36.9023 366.976 35.9857C364.768 30.5135 365.296 23.9303 362.976 18.6526C362.199 16.8054 362.115 13.5136 364.31 13.3192C366.573 13.2636 370.837 14.4861 372.309 15.986H372.323Z" fill="#76C68C"/>
<path d="M426.989 35.9854C431.392 35.9438 435.948 35.7354 440.323 35.9854C441.448 36.0549 442.628 36.0409 442.989 37.3187C443.253 38.7215 447.67 38.0826 449.656 37.3187C450.989 37.277 452.336 37.402 453.656 37.3187C455.142 37.2215 458.1 37.6798 458.989 37.3187C460.156 37.6937 460.142 38.1382 458.989 38.6521C457.294 38.6938 452.253 37.5686 452.322 39.9713C456.92 39.3602 461.211 40.7633 465.656 41.3188C467.489 45.6104 477.03 53.4298 472.003 58.3325C469.072 61.1936 463.267 57.9714 469.656 65.9574C465.642 73.0823 460.656 66.4989 458.558 66.8322C457.461 67.0128 449.434 73.124 454.933 64.5824C457.822 60.1102 463.683 61.263 460.364 56.6103C453.489 46.9577 448.142 61.3879 449.656 67.9851C438.281 63.7629 437.906 71.7904 430.906 77.9015C426.67 81.5959 422.212 77.5959 418.892 74.0821C416.906 71.971 416.67 69.0267 415.976 68.3462C412.781 65.249 399.031 63.61 394.337 64.0128C380.712 65.1933 376.365 75.3181 361.254 73.0126C358.99 72.6654 357.032 70.7765 356.324 70.6515L360.324 65.3321C358.379 65.7905 351.754 61.9435 353.671 59.9852C355.31 58.3185 359.185 67.0682 362.99 63.9711L358.99 58.6519C365.56 59.8741 363.449 57.3601 366.323 53.3185L369.671 62.6378C372.143 62.9156 370.698 59.638 370.99 57.9714C372.49 49.1243 377.087 67.4434 377.671 67.9851C384.837 67.4156 382.601 65.0266 383.323 61.9295C383.407 61.5961 387.726 62.763 388.337 57.9992C388.865 53.902 384.157 57.7351 384.323 54.6657C389.393 55.249 393.17 52.1659 397.643 50.6381C394.893 47.527 392.434 47.9854 393.629 42.666C391.962 42.5132 389.129 50.624 386.976 47.9851C385.629 46.3324 388.434 40.9575 390.018 40.3602C391.684 39.7353 409.615 39.6243 410.976 40.8465C414.851 44.3326 412.823 49.0269 414.281 53.3046C420.045 46.8603 413.517 42.0687 412.281 35.9854C417.156 35.9299 422.073 36.0132 426.948 35.9854H426.989Z" fill="#A3C398"/>
<path d="M401.657 34.6523C400.379 36.1939 399.559 36.2077 397.657 35.9855C397.921 35.9855 396.948 34.8328 401.657 34.6523Z" fill="#A3C398"/>
<path d="M380.323 17.3193C378.212 19.2776 379.309 21.8468 378.99 23.9856C379.684 24.3606 379.643 24.8053 378.99 25.3192C377.212 26.2914 372.879 16.5416 372.323 15.986C377.573 3.80565 379.768 3.52782 380.323 17.3193Z" fill="#60B692"/>
<path d="M392.323 25.3192C392.171 23.5831 392.546 21.6803 392.323 19.9858L397.671 5.33318C399.768 4.97208 399.115 7.23617 399.045 8.69448C398.74 14.5139 396.046 20.861 392.323 25.3331V25.3192Z" fill="#B4DFA5"/>
<path d="M364.324 13.3191L362.991 18.6525C362.81 18.2498 361.893 17.847 361.657 17.3193C361.74 11.486 360.977 5.58326 363.004 0L364.324 13.3191Z" fill="#B3DFAA"/>
<path d="M386.99 15.9859C386.837 16.0831 384.962 18.0413 384.323 18.6524L385.671 2.66652L386.99 15.9859Z" fill="#B2DFA8"/>
<path d="M169.673 169.317C172.673 170.456 177.673 167.47 177.673 164.65V143.318C177.673 142.748 181.784 134.943 183.006 133.984C188.965 129.373 205.451 125.068 212.784 121.096C218.811 117.832 220.145 113.776 224.048 110.637C228.561 106.999 236.422 100.221 241.658 100.638C232.395 106.624 223.464 114.804 219.659 125.304H223.006C226.7 128.096 220.881 133.429 217.936 135.609C206.895 138.359 200.298 140.97 214.853 145.276L215.714 147.317C213.603 152.526 212.409 157.859 219.631 158.512C221.367 163.817 223.825 164.234 226.992 159.762C223.77 151.567 237.895 152.734 239.006 158.623C239.478 177.609 233.408 184.706 213.117 184.65L211.242 187.942C207.645 206.136 201.659 213.331 183.062 207.858C165.701 197.247 152.548 201.72 137.382 212.789C115.702 206.914 97.5908 213.456 78.3827 223.178L76.3272 222.622C72.4383 216.178 72.105 210.372 75.2994 205.178C69.3689 200.456 68.6467 193.4 77.7577 196.095C79.9938 199.859 81.8549 198.192 83.341 191.095C93.0631 188.775 98.3408 185.484 103.382 176.748C110.035 175.998 124.077 177.248 114.799 184.859C116.354 187.886 116.299 190.914 114.41 193.761C114.021 194.359 117.938 182.136 120.035 181.386C117.91 177.248 120.41 173.984 124.84 175.331C126.493 172.539 128.938 170.567 132.326 171.678C134.813 167.859 143.465 165.164 147.271 165.664C148.16 165.789 159.271 176.789 159.187 178.4C160.423 176.748 162.229 176.387 164.173 176.97C166.673 181.498 168.034 182.247 167.77 176.456C159.396 176.234 162.437 166.998 169.645 169.262L169.673 169.317Z" fill="#9EBD93"/>
<path d="M169.673 169.317L164.354 173.303C166.382 174.817 173.09 172.748 173.674 173.331C175.396 175.053 173.118 178.803 169.674 177.331C173.007 183.025 163.882 186.539 162.993 178.664C160.771 178.067 162.271 181.025 161.007 181.359C156.257 182.65 155.771 175.928 155.077 175.345C153.646 174.137 151.479 174.137 150.049 172.928C148.188 171.345 144.424 162.4 144.313 172.011C138.632 165.748 135.396 173.414 133.327 174.386C132.271 174.872 130.744 173.581 129.632 174.067C128.091 174.748 127.119 177.373 125.716 177.97C124.313 178.567 122.063 176.9 121.674 177.345C121.188 177.9 122.98 180.47 122.716 181.859C122.258 184.275 116.633 185.984 120.327 192.011L116.341 192.706L119.008 198.664C117.327 199.955 110.911 193.331 112.327 201.359C103.008 195.289 111.91 194.997 113.133 190.747C114.105 187.372 110.98 184.109 111.049 183.345C111.258 181.095 116.66 182.456 116.341 180.039C114.549 180.692 105.063 178.636 104.563 178.956C103.925 179.386 101.702 184.484 100.383 185.775C100.091 186.053 94.5913 190.345 94.244 190.553C91.4107 192.275 86.133 191.539 84.9247 193.289C83.7164 195.039 85.147 198.997 83.0775 200.747C82.8692 200.928 77.9109 200.858 77.6054 200.622C75.4943 199.081 78.2165 196.233 72.3416 198.719C83.0775 207.233 75.9249 204.858 75.2999 211.608C75.1054 213.664 79.7859 219.122 76.3415 222.705C76.7859 225.969 74.1749 226.538 71.0083 225.372C69.5777 226.094 67.9111 226.83 66.3278 226.372C57.6334 223.9 48.2169 221.081 40.342 217.372C38.8559 215.414 36.6615 212.275 35.0087 210.706C41.6753 206.97 64.3139 206.053 66.7305 197.761C68.0222 193.317 65.6333 186.4 68.2444 182.262C70.8554 178.123 99.6607 173.678 106.258 171.956C112.452 170.331 119.41 166.373 125.549 164.887C141.063 161.109 155.465 161.72 169.66 169.373L169.673 169.317Z" fill="#A1C196"/>
<path d="M353.657 75.9849C354.379 79.9987 347.004 81.5128 346.282 82.5822C344.726 84.8461 346.935 90.4571 343.643 91.9849C340.56 93.4016 342.185 88.6377 341.602 88.1238C339.782 86.5405 333.518 91.2902 337.657 82.6792C333.838 81.1931 332.379 85.1514 332.241 88.5958C332.199 89.8041 337.199 88.5127 333.616 91.2905C327.546 95.9987 328.282 90.6374 327.727 90.6791C324.31 90.943 319.157 96.3736 314.991 96.0264C314.102 99.8319 317.894 99.5679 320.31 98.679C318.032 103.846 320.199 102.082 320.685 102.693C324.963 108.04 313.519 103.193 312.31 104.012L313.671 106.637C307.088 106.012 309.741 110.262 309.463 110.498C308.352 111.443 299.63 113.248 300.963 109.318L305.644 105.332C301.366 105.082 298.047 110.429 297.005 105.332C295.463 106.401 293.699 108.109 291.672 108.068C290.255 108.04 291.963 104.735 289.672 105.346C289.644 108.485 284.644 112.582 289.783 112.832C291.602 112.915 294.38 109.873 293.644 114.665C285.936 114.498 280.797 111.276 273.658 114.665C273.297 114.387 279.436 108.457 274.325 106.679C273.852 106.512 271.477 111.332 266.852 112.637C266.13 112.846 259.325 113.582 259.019 113.332C257.519 112.123 258.561 104.193 261.658 104.012L264.311 107.999L268.325 101.999C267.283 99.8181 257.63 103.901 261.658 98.6651C263.061 98.0401 264.575 96.2486 266.978 95.3459C276.575 91.7348 286.366 90.2625 296.324 87.9987C297.644 88.0959 299.005 87.9848 300.324 87.9987L313.657 86.6654C318.477 84.3321 319.324 80.6933 321.657 77.3322L324.324 74.6657C328.102 73.7491 338.31 73.0821 342.365 73.2904C346.921 73.5126 349.935 75.3462 353.657 75.999L353.657 75.9849Z" fill="#A6C69A"/>
<path d="M175.007 138.651C174.354 141.706 173.812 144.845 173.673 147.984C172.659 147.525 170.59 146.428 169.674 146.651L171.021 137.318L175.007 138.651Z" fill="#A4C498"/>
<path d="M261.672 86.6515L259.006 87.9848C259.144 87.9431 259.658 87.1098 261.672 86.6515Z" fill="#A1C096"/>
<path d="M134.341 158.651C135.202 159.095 135.202 159.54 134.341 159.984V158.651Z" fill="#A4C498"/>
<path d="M133.66 143.998C134.563 144.456 132.882 146.262 131.007 145.303C130.104 144.845 131.785 143.04 133.66 143.998Z" fill="#A4C498"/>
<path d="M125.007 142.651C125.868 143.095 125.868 143.54 125.007 143.984V142.651Z" fill="#A4C498"/>
<path d="M213.673 73.3323L211.02 75.9852C210.645 73.1936 210.881 72.9573 213.673 73.3323Z" fill="#A1C096"/>
<path d="M210.339 70.6517C211.201 71.0961 211.201 71.5405 210.339 71.985V70.6517Z" fill="#A7C79B"/>
<path d="M490.988 41.319L494.988 42.6522C494.78 42.6244 493.349 41.6523 490.988 41.319Z" fill="#DEF9FD"/>
<path d="M513.655 46.652L516.321 47.9853C516.182 47.9575 515.683 47.0825 513.655 46.652Z" fill="#DEF9FD"/>
<path d="M472.322 42.6523C470.878 42.5412 468.947 43.0968 468.322 41.319C469.781 41.4302 471.656 40.8745 472.322 42.6523Z" fill="#A3C398"/>
<path d="M337.671 159.984C336.727 161.803 339.227 166.387 339.005 166.637C336.782 169.081 336.255 164.137 335.463 163.97C333.671 163.609 331.546 164.137 329.671 163.998L331.005 167.97C322.727 164.581 318.102 169.081 320.324 177.303L315.005 173.317C318.06 180.678 311.505 177.275 308.283 179.317C307.033 180.109 307.116 182.539 306.963 182.65C306.38 183.081 304.908 180.734 303.449 180.428C299.422 179.581 287.908 180.484 289.644 186.65L285.672 183.984V189.331L288.311 187.983L289.658 194.664C282.45 189.984 275.658 184.525 268.325 179.997C269.422 176.817 268.158 173.345 266.269 170.706C262.408 171.081 261.811 167.373 262.186 163.942C258.395 161.623 257.131 154.956 261.658 153.331L263.742 151.012C269.617 152.776 275.547 153.984 281.547 154.637C297.519 148.178 308.602 152.262 323.755 158.359L335.532 157.414L337.657 159.998L337.671 159.984Z" fill="#9EBD93"/>
<path d="M267.006 179.984C265.894 180.011 263.381 178.289 260.339 178.65C257.45 163.123 274.005 171.803 267.006 179.984Z" fill="#9EBD93"/>
<path d="M550.988 79.971C548.196 80.346 547.96 80.11 548.335 77.3183L550.988 79.971Z" fill="#A4C498"/>
<path d="M460.323 85.3182C460.503 87.3737 461.837 88.7068 464.323 89.3179C465.198 90.1929 466.114 91.1376 466.989 91.9848C466.712 95.7347 463.35 96.4846 456.892 94.2624C456.517 97.7207 456.934 100.999 458.114 104.096C455.378 107.248 453.517 109.665 458.545 109.443C464.309 112.998 461.531 118.429 458.559 123.596C470.156 133.998 473.225 129.165 467.948 116.47C466.392 115.609 462.503 111.109 461.628 109.29C457.281 100.096 469.059 93.6514 476.295 102.651C477.309 103.54 490.183 112.276 491.017 112.582C502.975 116.984 506.392 107.235 513.711 102.068C525.225 93.9292 539.127 93.5262 552.294 97.3178C552.877 97.7484 553.419 98.1929 553.863 98.7345C554.252 99.2206 549.877 108.943 549.488 109.429C548.697 110.443 547.322 110.845 546.155 111.151C550.127 113.706 552.433 116.748 546.96 118.651C547.099 119.443 548.002 120.443 548.294 121.318V122.651C548.141 122.665 546.419 124.831 545.641 123.984C544.238 122.456 546.086 114.457 536.933 114.554C532.822 114.596 531.141 118.373 528.294 121.318C524.891 120.901 521.489 120.081 518.1 118.859C514.919 121.248 511.655 119.748 508.322 114.387C508.572 119.429 504.947 121.332 500.906 118.318L498.433 122.095C503.405 128.484 502.697 132.234 496.294 133.332C495.85 133.332 495.197 133.443 494.961 133.332C492.739 133.165 491.85 133.609 492.294 134.665C473.253 146.429 451.309 152.401 430.962 161.331H428.226C423.976 158.484 412.143 140.623 408.893 135.22C408.684 134.873 409.073 134.151 409.629 133.332L409.921 129.929C403.115 125.484 408.268 121.901 413.934 120.096L414.032 118.582C407.573 120.693 403.768 115.707 402.629 103.596C388.782 107.373 397.407 87.5682 406.573 96.1236L408.837 94.8734C412.684 84.6236 416.587 82.6375 425.643 87.9986C436.017 84.9986 434.365 79.0543 439.545 75.9016C448.656 70.3877 454.712 80.1793 460.309 85.3321L460.323 85.3182Z" fill="#A3C297"/>
<path d="M442.989 37.3187C445.198 37.1659 447.447 37.402 449.656 37.3187C447.642 39.8881 443.17 38.3186 440.323 38.638V37.3326C441.198 37.2631 442.101 37.3742 442.99 37.3326L442.989 37.3187Z" fill="#9DBB96"/>
<path d="M402.99 51.9993C403.254 53.7909 401.184 53.5826 399.809 54.7909C399.392 55.152 398.24 59.8323 396.351 57.3184C393.545 53.6101 400.351 52.1798 403.004 51.9993H402.99Z" fill="#A8C89C"/>
<path d="M425.656 87.9846C425.434 88.0541 425.004 89.5264 423.781 89.4431C422.559 89.3597 423.476 86.1653 422.337 86.6514C419.462 87.8875 420.49 90.6097 415.018 86.6514C414.156 90.1236 413.268 95.0681 410.198 97.1653C404.045 101.387 404.157 95.9568 403.726 95.9846C399.837 96.2762 394.073 101.123 400.976 102.651C402.768 102.346 399.49 100.318 400.99 99.9708C407.976 98.3458 405.684 116.359 410.365 117.318C412.323 117.721 413.795 113.859 416.323 114.651C418.017 124.956 414.49 121.096 408.351 125.984L417.656 131.303L409.656 133.304C406.934 132.79 403.934 131.929 400.671 130.748L388.657 136.776C373.213 137.776 368.713 139.512 360.56 153.04L357.657 151.984L352.977 150.651C367.088 148.484 356.088 147.762 355.032 146.581C354.616 146.109 355.546 132.206 358.977 135.984V139.998C365.24 139.998 360.421 132.04 364.31 128.012C359.532 127.012 354.56 132.873 351.616 133.401C349.407 133.79 349.838 131.79 348.31 130.665C348.657 131.054 348.102 134.693 348.31 135.998C341.671 136.54 346.185 128.248 348.31 130.665C346.296 129.179 338.991 125.221 339.005 124.665C339.019 124.221 347.671 119.609 342.282 118.665C339.032 118.096 333.602 126.623 332.977 126.637C332.699 126.637 330.296 123.804 328.671 122.956C327.144 122.165 323.144 121.54 322.963 121.304C322.463 120.665 328.491 109.776 321.644 106.665C329.38 103.498 331.533 109.304 336.977 113.304L337.644 109.29L341.63 110.637C337.338 102.137 347.213 104.221 349.032 101.374C350.588 98.9431 350.768 87.0682 355.643 83.9849C357.24 84.5127 355.199 87.1098 357.157 88.0542C363.185 90.943 369.838 86.0403 370.963 79.9987C364.907 78.6237 363.365 87.7764 361.629 77.3182C378.018 79.8182 374.518 75.5542 387.226 71.582C408.823 64.846 412.198 74.1654 425.629 87.9847L425.656 87.9846Z" fill="#A0BF95"/>
<path d="M263.006 81.3181C261.978 81.2348 260.38 79.846 260.339 78.6655H264.339C264.908 79.0127 263.033 80.7209 263.006 81.3181Z" fill="#A1C096"/>
<path d="M378.99 25.3192C379.032 24.8748 378.921 24.4162 378.99 23.9856L380.296 24.6525L378.99 25.3192Z" fill="#DBF8FD"/>
<path d="M409.657 133.318C416.74 141.512 421.212 155.067 430.99 161.317C429.392 162.026 427.837 162.262 426.99 162.651C420.295 156.859 409.907 133.054 400.962 133.22C397.323 133.29 394.546 136.818 390.962 137.956C385.587 139.679 377.282 139.943 372.963 142.623C366.379 146.693 365.921 160.428 359.379 162.387C354.824 163.748 344.366 160.109 337.657 159.998C333.63 159.928 327.547 161.567 324.005 161.095C317.394 160.22 307.561 153.706 299.547 153.456C293.825 153.276 286.45 157.289 281.005 157.331C275.894 157.359 267.408 154.276 261.658 153.345L259.436 155.109C253.742 153.637 245.242 153.609 243.645 160.637C243.325 173.137 239.256 182.595 231.464 188.983C223.409 187.747 218.103 189.622 215.562 194.595C209.173 222.4 191.687 217.997 171.59 207.9C165.396 205.053 160.257 207.428 154.743 210.844L152.313 209.345C150.382 213.233 145.146 216.344 140.146 217.428C136.493 218.233 126.785 218.678 125.646 214.678C125.244 217.219 124.188 217.08 122.98 214.678L121.535 217.303C105.952 217.956 90.7856 222.844 76.3136 228.011C74.3969 227.247 72.4525 225.886 70.9803 225.344C73.2581 225.303 74.6053 223.594 76.3136 222.678C98.3689 210.789 110.313 203.747 136.855 210.678C137.632 210.65 137.618 208.594 138.688 208.122C143.091 206.178 156.757 199.025 159.813 198.733C169.215 197.831 176.437 204.831 185.201 206.539C193.965 208.247 201.187 207.858 205.354 199.053C207.34 194.858 207.798 185.22 211.534 182.567C216.353 179.164 227.714 183.053 232.326 178.025C236.381 173.609 237.228 164.526 238.964 158.665C240.117 154.776 239.159 152.081 243.923 149.623C248.159 147.429 258.061 147.526 262.964 147.998L265.103 145.526C275.992 146.095 286.908 145.998 297.852 145.276C302.63 145.817 312.38 147.026 313.644 151.998L316.338 149.97C324.755 151.693 333.449 151.915 342.421 150.637L344.31 153.331C346.921 153.401 349.782 155.47 354.338 154.651C357.199 154.137 356.879 152.567 357.643 151.998C363.588 147.637 364.713 139.47 370.213 137.234C375.712 134.998 381.435 136.721 387.073 135.429C396.559 133.262 399.351 121.443 409.643 133.332L409.657 133.318Z" fill="#97B68C"/>
<path d="M295.005 126.651C300.852 123.499 311.199 128.401 313.06 134.818C318.435 137.859 323.102 142.193 315.672 145.79C317.783 148.901 317.908 152.012 313.658 151.984C303.644 149.109 300.644 147.067 289.019 148.012C275.853 149.081 276.228 149.262 262.992 147.984C262.325 143.401 257.061 142.609 259.631 137.318C261.45 133.554 264.242 135.998 266.103 135.554C267.686 135.165 269.339 132.304 270.978 133.332C271.214 133.485 268.269 140.054 272.964 138.651C274.978 138.054 276.158 129.887 285.63 134.651C287.505 132.79 279.255 127.026 290.964 130.651L289.644 126.665C291.533 128.207 294.713 126.596 294.977 126.665L295.005 126.651Z" fill="#9BBA90"/>
<path d="M219.006 150.665C217.437 151.859 220.839 160.206 217.034 158.637C211.103 156.206 216.562 149.054 219.006 150.665Z" fill="#9EBD93"/>
<path d="M261.672 133.304C258.881 133.679 258.645 133.442 259.02 130.651L261.672 133.304Z" fill="#9BBA90"/>
<path d="M222.339 155.984C223.201 156.428 223.201 156.873 222.339 157.317V155.984Z" fill="#9EBD93"/>
<path d="M123.007 214.65C126.59 218.733 128.938 227.205 120.646 227.955C116.271 220.483 114.035 229.83 113.202 235.247C109.16 236.441 106.646 238.469 105.674 241.316C95.938 236.969 86.2159 231.941 76.3411 227.983C75.6744 224.886 77.8688 225.122 79.8132 224.191C89.1742 219.733 113.285 214.108 122.993 214.65H123.007Z" fill="#9EBD93"/>
<path d="M152.34 209.317C158.937 206.858 160.007 217.136 152.34 214.594C159.132 216.942 151.354 224.413 146.229 225.483C146.66 235.177 139.632 236.261 131.965 231.483C123.535 231.705 121.021 231.191 126.09 222.608C124.326 218.955 124.188 216.302 125.688 214.664C140.771 215.066 138.646 216.469 152.354 209.33L152.34 209.317Z" fill="#9EBD93"/>
<path d="M261.672 153.317V161.317L265.672 159.998C264.977 161.692 264.352 166.72 265.158 168.012C265.602 168.734 267.339 168.97 267.866 169.748C270.061 173.067 270.089 175.789 275.005 177.984C273.963 178.817 269.45 179.998 268.339 179.984C267.894 179.984 267.45 179.984 267.006 179.984L265.658 171.984C258.353 173.553 265.992 175.984 260.339 178.65C257.103 179.039 254.755 181.526 253.394 184.373C247.242 197.234 244.45 221.358 239.644 235.955C233.797 253.691 220.867 249.872 206.659 245.011C195.728 241.261 184.131 231.705 172.284 235.275C169.506 236.108 166.909 239.469 164.243 240.552C150.576 246.108 128.715 236.872 113.688 243.997C111.535 242.997 108.354 242.511 105.688 241.33C100.91 233.414 109.896 235.802 111.091 233.788C112.757 230.969 110.771 225.733 111.021 225.4C111.799 224.316 117.34 225.733 115.646 221.386C120.854 223.386 122.493 218.136 121.702 226.678C126.701 224.553 123.229 218.719 123.021 214.678C123.91 214.719 124.799 214.65 125.688 214.678C124.59 219.872 129.549 221.4 129.701 222.025C130.285 224.455 124.34 225.289 125.701 229.344C131.924 227.261 136.465 230.052 141.687 233.358C139.632 230.65 146.257 228.317 144.354 226.692C142.743 225.317 139.521 230.039 139.035 229.344C137.757 220.414 142.979 224.969 148.243 221.914C150.298 220.719 151.882 218.261 153.673 216.664L148.382 216.691C150.965 211.914 151.062 212.039 156.34 213.344L152.354 209.345C157.09 206.872 160.09 203.747 166.312 203.956C173.52 204.192 184.437 211.969 193.395 213.039C214.77 215.567 207.7 189.609 219.978 186.97C229.325 184.97 232.242 190.622 237.006 178.664C242.95 163.734 235.742 149.776 258.491 151.97C260.311 152.151 261.339 153.29 261.7 153.359L261.672 153.317Z" fill="#A1C096"/>
<path d="M348.324 35.9855C352.921 28.5273 356.671 27.6524 359.587 33.3329C361.907 30.2218 364.379 31.1107 366.99 35.9856L369.671 33.5411L395.004 33.4021L397.67 35.9855L401.67 34.6522C406.851 30.2079 423.753 29.7217 427.003 35.9855C424.003 37.8883 420.49 39.0271 416.476 39.416C424.392 54.1102 411.99 62.6935 409.517 42.9716C408.406 42.2771 392.879 41.1659 396.031 45.5825C403.365 51.1796 397.184 54.2212 391.198 56.3323C390.823 63.6517 374.504 75.8184 373.323 63.5269C369.823 66.3186 367.046 64.4711 366.087 60.5128L364.157 61.0964C366.421 64.7491 360.171 71.9989 356.337 70.6656C355.921 74.2489 355.171 73.8739 353.671 70.6656C349.657 68.5962 346.31 68.1935 341.671 67.9991C341.129 71.499 340.06 71.3185 339.004 67.9991L335.546 67.1795C330.63 60.0407 323.657 63.874 323.005 70.6656C323.81 73.3739 319.227 78.6794 316.338 77.3322L312.338 81.332C311.921 84.957 310.741 84.7764 309.671 81.332C308.574 82.4709 306.838 82.3181 305.672 81.332C304.005 85.1097 300.672 85.082 299.005 81.332L289.672 82.6653C289.297 85.6375 287.102 85.2069 285.672 82.6653C283.63 86.7069 277.977 87.4155 275.005 83.9989C273.255 84.4294 259.075 86.9987 260.644 83.8181L263.005 81.332C266.13 80.0681 265.7 78.4156 261.741 76.3879C260.144 74.2768 273.769 58.6936 278.602 60.9852C282.491 54.2492 288.811 48.4298 295.005 43.9993C298.491 40.6244 307.171 39.9575 312.338 39.9992C313.852 39.7353 315.269 38.8465 316.338 38.6659C324.949 37.1937 339.643 36.2911 348.338 35.9994L348.324 35.9855Z" fill="#A8C89C"/>
<path d="M327.005 211.983C325.658 211.164 324.588 210.22 325.505 209.039C318.63 207.928 317.227 205.483 321.019 199.678C316.505 191.22 324.838 179.248 334.713 183.734L335.227 180.803C325.727 173.178 336.407 164.081 343.782 174.4C337.574 167.428 345.907 160.845 349.949 169.15L354.81 170.276C357.004 174.998 359.977 174.498 363.74 168.789C370.282 163.734 376.893 168.873 382.24 173.192C386.99 159.359 398.698 177.262 395.018 183.97C389.684 185.928 387.476 189.97 384.351 191.97C379.268 195.22 373.574 198.025 368.351 201.303C358.782 207.317 349.782 211.595 340.352 218.636C334.685 219.622 331.685 214.275 327.019 211.969L327.005 211.983Z" fill="#A9C99C"/>
<path d="M333.671 225.317C326.116 231.192 313.31 239.15 307.005 245.316C303.172 242.663 308.005 235.483 306.838 233.525C306.449 232.872 300.658 231.08 299.574 229.302C298.491 227.525 300.811 225.025 300.324 223.983C300.13 223.552 292.491 226.205 292.338 220.664C296.936 215.233 297.936 221.316 298.338 221.372C301.574 221.816 308.158 214.414 312.324 213.316C318.296 216.025 326.685 216.525 332.255 220.733C334.13 222.15 335.63 222.955 333.643 225.317L333.671 225.317Z" fill="#A7C69A"/>
<path d="M361.657 77.3182C364.768 79.2765 368.421 79.7628 372.588 78.7489C374.254 88.7349 363.255 93.7902 354.574 90.4014C354.185 99.9013 350.421 105.346 343.255 106.748C343.158 115.415 334.394 117.304 329.116 109.818C327.56 105.429 326.116 118.943 326.505 119.457C326.713 119.735 332.283 122.665 332.63 122.651C337.977 114.207 351.31 113.499 343.699 124.665C347.532 126.04 349.074 128.04 348.324 130.651C346.75 132.919 346.75 132.919 348.324 130.651L352.06 130.359C366.643 118.304 369.435 132.068 361.574 142.165C358.005 141.095 356.824 141.998 358.018 144.873C365.06 147.151 358.393 152.331 352.991 150.637C352.727 150.554 358.171 150.29 357.671 151.97C362.518 158.456 345.227 159.859 344.338 153.303L342.213 150.984C344.158 142.47 339.352 136.123 331.672 133.915C331.63 131.068 329.797 129.582 326.158 129.471C323.949 126.623 320.991 125.095 317.283 124.873C315.783 122.665 313.172 119.859 315.019 122.956C310.005 132.081 307.741 131.137 302.491 121.998C300.894 125.873 298.394 127.415 295.005 126.651C295.464 129.457 291.561 133.179 288.422 132.665C288.158 136.22 285.103 137.331 279.228 136.026C274.811 142.137 270.686 142.817 266.839 138.054C260.575 136.804 259.964 139.248 265.006 145.401L262.992 147.984L262.297 149.706C251.048 147.859 243.284 150.845 238.992 158.651L228.34 155.984L230.992 162.637C222.423 160.873 226.867 166.762 225.659 167.998C222.867 170.831 219.076 162.512 217.645 159.998C215.631 159.512 216.756 161.748 215.423 162.664C207.145 168.275 208.312 163.109 215.006 159.317L210.993 158.623C212.715 154.873 210.048 150.123 213.659 147.331C213.687 145.484 201.895 145.665 203.145 142.137C205.618 135.179 210.576 134.276 217.701 133.318L216.34 130.665C221.104 131.72 220.756 127.873 223.02 125.318C234.687 112.249 246.02 105.679 261.686 98.6512C270.603 98.5262 273.172 100.846 266.978 108.818C257.159 108.373 260.27 112.11 267.256 109.623C273.936 102.693 277.839 102.762 278.964 109.818C284.7 112.109 285.339 110.54 287.075 105.304C290.811 103.123 295.172 103.512 299.686 104.401C303.394 102.457 306.102 101.429 307.075 106.443C307.63 109.29 303.422 109.859 307.839 105.609C310.7 102.846 314.713 99.8597 318.727 102.332C324.102 105.637 311.352 102.179 312.436 96.4153C312.838 94.3042 328.074 85.3043 330.602 90.1376C327.38 81.8738 337.38 74.596 340.394 85.1097L342.991 85.4295C344.088 80.6101 347.657 77.4573 353.671 75.9712C356.324 76.4434 359.005 76.9017 361.671 77.3044L361.657 77.3182Z" fill="#A3C297"/>
<path d="M282.992 226.65H280.339C280.242 223.816 279.769 220.553 282.339 218.664L282.992 226.65Z" fill="#9FBE94"/>
<path d="M303.005 217.303H299.005C300.019 211.914 301.464 212.247 303.005 217.303Z" fill="#A7C69A"/>
<path d="M426.99 162.651L426.35 164.901C415.878 170.484 405.865 176.845 396.323 183.984C395.906 184.095 395.379 183.845 394.99 183.984L388.934 170.706C382.282 169.414 386.657 177.081 383.004 178.65C383.045 176.039 373.337 169.928 371.337 169.525C362.893 167.859 364.476 177.233 356.976 176.081C353.907 175.608 354.282 172.942 353.296 172.359C351.99 171.581 349.838 172.22 348.31 171.317C346.782 170.414 348.018 166.887 344.324 167.998C342.754 171.65 346.629 172.011 346.782 172.65C347.004 173.567 345.435 177.22 345.643 178.65C342.865 180.706 335.227 163.637 333.643 177.317L340.31 178.678C335.546 181.081 338.032 187.414 337.629 187.997C337.018 188.872 325.963 178.206 322.143 194.664C321.491 197.456 323.699 198.108 323.81 199.344C323.949 200.983 320.643 203.997 321.643 206.65H329.643L326.977 211.983C312.908 205.053 304.991 204.622 289.644 194.65L287.074 191.317C276.797 185.803 288.019 180.678 294.449 178.123C308.06 178.095 313.713 177.192 321.282 165.331C327.046 163.97 332.504 162.178 337.643 159.97L339.227 157.373L354.24 159.817C357.421 160.345 359.893 160.192 361.435 156.998C366.712 140.942 373.518 137.609 389.726 136.429C395.337 131.915 400.448 130.415 405.059 131.943C407.531 132.901 425.198 156.928 427.434 160.762C427.67 161.165 427.392 161.859 426.976 162.637L426.99 162.651Z" fill="#A4C398"/>
<path d="M496.322 133.318C503.447 127.707 499.378 129.748 497.781 126.929C493.211 118.846 495.933 121.762 497.711 119.11C498.586 117.804 498.836 114.804 499.017 114.665C500.6 113.429 503.419 118.179 505.655 117.332V111.999C511.891 110.401 511.489 115.582 515.655 118.651L516.322 114.693C519.28 113.818 520.364 118.026 522.28 118.235C524.697 118.498 529.377 114.332 529.641 114.679L528.322 121.346C526.127 123.623 526.113 124.012 522.989 126.679C522.058 124.221 518.919 126.596 517.35 127.04C512.711 128.36 499.586 133.346 496.322 133.346V133.318Z" fill="#9FBE94"/>
<path d="M581.654 114.651C570.071 115.79 558.461 116.61 546.988 118.651C546.947 118.387 548.322 117.123 547.655 115.943C546.141 113.276 539.586 112.346 541.655 105.318L548.308 109.304C545.03 102.79 551.697 103.693 552.322 97.304C561.808 100.04 574.724 107.457 581.655 114.637L581.654 114.651Z" fill="#9FBE94"/>
<path d="M476.322 102.651L466.28 100.151C465.044 100.249 462.6 107.693 464.655 109.11C467.239 110.901 469.322 106.123 467.003 114.651C471.614 112.276 472.822 114.374 471.003 118.637C473.197 119.221 471.614 116.332 473.197 115.957C476.628 115.165 481.211 115.804 478.989 119.985C478.808 120.318 474.364 117.665 472.53 122.207C470.308 127.721 479.891 128.484 475.016 131.332C473.03 132.484 471.947 130.526 470.447 130.609C469.503 130.665 469.669 133.332 469.072 133.304C464.086 133.054 457.85 122.79 451.017 125.29C451.156 122.86 454.614 124.221 456.531 122.054C458.447 119.887 453.336 116.207 460.336 117.29C460.864 114.971 458.35 116.443 457.836 115.86C457.503 115.471 459.517 112.124 459.003 110.651L456.322 114.637C453.336 114.443 454.031 109.651 453.656 109.304C451.267 107.054 450.531 112.012 449.725 112.679C447.572 114.485 443.239 110.304 448.336 106.651H441.67L441.684 101.304C447.642 105.11 449.572 107.082 456.336 103.957C452.1 101.582 455.378 95.1099 454.989 94.6376C454.669 94.2488 453.044 95.7903 451.933 95.5403C449.92 95.082 442.392 89.9156 440.364 91.985C439.697 92.6656 441.614 96.4015 439.017 95.957C439.545 93.707 435.045 90.4292 435.031 89.9709C435.003 88.7626 438.072 87.6237 439.684 87.9154C440.336 88.0404 440.309 90.5266 440.906 90.5127C444.559 90.4294 450.295 86.4015 452.975 86.5404C457.003 86.7349 455.058 90.1793 455.308 90.4015C457.614 92.4571 463.975 93.2906 467.017 91.9711C470.28 95.1516 473.308 99.9848 476.35 102.638L476.322 102.651Z" fill="#A6C69A"/>
<path d="M460.323 85.3182C462.378 87.207 462.989 87.9846 464.323 89.3179C460.864 89.6235 457.725 88.332 460.323 85.3182Z" fill="#A6C69A"/>
<path d="M494.988 133.318C494.405 134.415 492.961 134.262 492.322 134.651L489.655 133.29C492.641 127.36 493.85 132.762 494.988 133.318Z" fill="#9FBE94"/>
<path d="M295.005 126.651C298.005 125.79 301.422 116.901 303.658 117.318C305.713 117.707 304.449 120.54 304.783 121.026C305.213 121.665 307.102 121.804 307.56 122.582C308.338 123.915 306.435 126.637 309.019 127.97C310.671 123.707 309.908 121.943 315.005 123.971L312.366 122.651C313.546 115.068 315.866 121.512 319.394 122.984C320.991 123.651 322.921 122.47 324.31 123.331C325.366 123.984 325.393 126.234 327.324 127.109C329.06 127.887 333.393 127.79 333.629 128.026C334.282 128.72 333.185 132.345 333.685 133.332C333.754 133.484 335.185 132.193 337.032 133.22C344.449 137.345 346.852 145.512 344.352 153.317C329.824 152.956 329.088 156.401 313.685 151.984C317.435 144.748 305.31 146.72 311.699 141.345C310.144 146.428 315.102 142.873 317.685 141.998C316.185 139.456 312.81 138.345 311.102 136.581C309.658 135.095 309.713 132.567 308.324 131.359C307.783 130.887 296.227 126.943 295.019 126.665L295.005 126.651Z" fill="#9FBE94"/>
<path d="M285.672 19.9857C288.644 23.2496 288.672 30.2079 287.006 34.6523C292.158 45.3744 272.158 32.8606 277.672 27.9856C279.256 26.3606 279.492 22.6662 280.339 21.319C280.436 21.1662 282.408 19.2635 283.006 18.6524C283.908 19.0135 284.756 19.694 285.672 19.9857Z" fill="#6CBD9B"/>
<path d="M304.339 19.9857C303.95 25.3745 301.714 29.4301 300.575 34.2772C300.353 35.2217 300.561 36.1939 301.672 35.9855C300.964 36.555 300.63 38.7909 299.019 38.652C299.561 35.3604 298.172 32.4022 297.672 29.3189L300.339 27.9856C298.408 27.1939 298.38 24.8466 300.339 23.9855C300.617 22.8188 303.047 12.944 304.325 14.6523C304.269 16.4162 304.464 18.2218 304.325 19.9857H304.339Z" fill="#B4E0AB"/>
<path d="M292.339 26.6524C292.144 26.8051 290.589 29.5688 289.672 30.6521C287.367 30.0133 287.269 27.0967 289.672 26.6522C289.366 24.5272 289.63 13.2495 291.672 13.305L292.339 26.6524Z" fill="#B5E1AD"/>
<path d="M339.004 67.9851C334.866 68.5129 326.296 69.0406 323.005 70.6517L320.352 65.36C328.102 59.2767 333.782 58.1519 339.004 67.9851Z" fill="#A3C398"/>
<path d="M341.671 67.9853C345.046 67.6103 348.56 65.8188 352.352 66.666C350.671 69.1937 351.296 69.2213 353.671 70.6519C349.838 69.8324 344.921 70.0686 341.671 67.9853Z" fill="#A3C398"/>
<path d="M299.005 81.3183C297.144 83.7349 292.616 82.4852 289.672 82.6519C291.491 80.3325 296.075 81.36 299.005 81.3183Z" fill="#99B88E"/>
<path d="M349.657 61.3324V63.985H344.338C345.046 61.3323 347.171 60.9991 349.657 61.3324Z" fill="#A3C398"/>
<path d="M309.672 81.3181C309.491 83.3181 305.852 83.3181 305.672 81.3181C306.977 81.2486 308.394 81.4709 309.672 81.3181Z" fill="#99B88E"/>
<path d="M312.338 81.3181C312.588 81.1931 314.991 78.4433 316.338 77.3183L312.338 81.3181Z" fill="#99B88E"/>
<path d="M300.339 27.9856C299.853 29.4856 299.047 29.4439 297.672 29.3189C297.603 28.8883 297.7 28.4301 297.672 27.9856L300.339 27.9856Z" fill="#C6EBDC"/>
<path d="M614.987 105.332L614.334 109.318C612.917 108.11 611.903 107.29 612.334 105.332H614.987Z" fill="#A9C99D"/>
<path d="M479.656 89.318C480.517 89.7625 480.517 90.2069 479.656 90.6513V89.318Z" fill="#A9C99D"/>
<path d="M313.672 86.6516C309.255 88.7905 305.325 88.0543 300.339 87.9849C303.505 85.1377 309.477 87.221 313.672 86.6516Z" fill="#99B88E"/>
<path d="M321.672 77.3183C322.449 76.1934 322.644 75.0685 324.338 74.6518L321.672 77.3183Z" fill="#99B88E"/>
<path d="M293.658 191.984H292.352C291.686 186.442 294.325 186.442 293.658 191.984Z" fill="#9EBD93"/>
<path d="M450.975 101.318C450.461 101.971 447.447 98.9845 448.336 97.3178C448.85 96.6651 451.864 99.6513 450.975 101.318Z" fill="#A6C69A"/>
<path d="M443.656 95.9847C444.517 96.4291 444.517 96.8735 443.656 97.318V95.9847Z" fill="#A6C69A"/>
</svg>
