<svg width="538" height="342" viewBox="0 0 538 342" fill="none" xmlns="http://www.w3.org/2000/svg">
<path d="M413.342 104.316C418.133 100.497 434.869 97.6499 431.036 107.441C446.577 98.9832 459.202 107.011 471.119 117.441C472.466 122.261 469.383 126.011 466.674 121.65C466.244 123.941 466.73 127.483 469.48 126.705C470.758 128.997 471.952 131.413 471.008 134.122C474.008 133.608 475.966 134.635 476.327 137.732L479.674 137.51C486.369 131.566 490.924 135.163 493.327 148.316C494.077 145.76 495.243 145.76 495.993 148.316C495.771 148.33 494.507 149.538 492.771 149.705C488.869 150.066 475.271 149.843 473.327 152.316C471.174 156.177 460.911 156.052 458.661 152.316L454.966 150.858C447.133 136.497 433.286 126.399 418.008 121.08L416.008 117.649C415.689 115.149 414.008 106.886 413.342 104.316Z" fill="#A3BE79"/>
<path d="M432.008 88.3166C436.133 87.261 437.911 88.1498 437.341 90.9831C447.313 90.3025 460.022 96.8859 466.674 104.316C468.855 100.886 474.341 103.066 474.674 106.983C478.993 108.983 483.563 111.511 488.007 113.65C506.16 122.372 523.826 129.997 537.34 145.649C534.118 145.983 530.312 146.635 526.673 146.982V144.121C515.382 138.052 505.16 130.997 496.007 122.983C489.257 124.135 480.66 119.511 477.341 113.65L472.494 113.288C449.647 104.261 427.272 95.0385 405.342 85.6497C404.897 84.9136 402.217 81.4694 401.342 80.3166C411.383 82.2055 422.466 84.7749 432.008 88.3166Z" fill="#93AE6E"/>
<path d="M477.341 113.65C482.021 117.205 482.493 121.33 475.604 121.288C476.341 128.83 465.091 130.511 466.674 121.65C467.48 121.316 470.48 122.552 469.327 119.663C468.077 116.552 463.174 115.233 461.008 113.664C459.48 112.566 459.216 110.274 457.063 109.288C453.924 107.844 449.619 109.094 447.341 105.65C446.272 111.83 444.091 103.913 441.48 105.844C440.73 106.4 442.938 109.622 437.369 106.983L436.049 112.302C436.577 106.316 429.063 113.524 426.702 107.636C434.549 101.927 426.313 103.886 421.397 103.636L425.369 110.969C421.994 110.094 415.925 111.663 414.703 108.316C418.244 109.636 422.411 107.094 420.022 104.303C419.675 103.9 414.994 106.441 413.369 104.303C411.786 98.1915 408.619 91.0386 405.369 85.6358C406.3 83.2331 409.508 85.4553 411.008 85.9831C433.938 94.0385 455.549 103.039 477.368 113.636L477.341 113.65Z" fill="#ABC780"/>
<path d="M452.008 153.649C440.494 155.079 429.091 158.843 417.341 158.982C417.73 151.746 416.897 141.107 417.341 132.316C416.814 130.552 415.939 123.788 416.689 123.066C419.786 120.094 437.105 132.26 440.66 135.302C445.563 139.51 454.619 147.26 452.008 153.649Z" fill="#9DB875"/>
<path d="M458.674 152.316C456.688 152.496 454.327 153.357 452.008 153.649C445.23 139.399 431.161 130.677 417.355 124.316C417.23 126.969 417.48 129.663 417.355 132.316C414.48 128.705 416.619 122.288 416.022 117.649C433.716 122.885 450.883 135.343 458.688 152.316H458.674Z" fill="#94AF6D"/>
<path d="M0.0135632 186.982C0.138562 186.218 0.305226 185.482 0.652444 184.829C2.87464 180.593 22.4577 188.009 26.3604 190.204C31.6104 192.815 34.3465 189.371 34.5409 179.857C33.777 169.44 33.0826 157.426 45.0963 153.385C61.7072 148.413 76.0543 140.079 88.1513 128.371C92.0679 124.455 100.401 119.33 98.6651 128.496C88.9846 135.663 82.3319 144.038 78.6792 153.635C79.1514 156.079 78.1515 158.496 76.1237 159.954C67.3738 160.649 57.5962 167.677 72.5821 167.843C79.3598 171.371 80.1514 177.579 80.8181 184.357C79.2764 187.398 79.457 190.023 82.1653 186.009C86.4152 179.69 95.054 170.218 97.3456 182.982C97.6373 198.162 93.429 210.537 74.3321 208.134C71.6932 208.287 70.1932 209.704 69.4432 212.176C65.3322 239.537 47.7907 236.87 28.416 227.092C22.4161 225.231 14.9439 224.454 10.6801 229.634C8.49957 232.412 0.999662 231.981 0.0135632 228.3V186.968V186.982Z" fill="#9DB875"/>
<path d="M10.6799 229.648C14.0549 227.912 14.7354 229.745 12.0132 232.315C12.1105 232.731 11.916 233.231 12.0132 233.648C13.5132 236.509 15.7354 238.731 18.6798 240.314C19.6104 241.662 21.1659 241.44 21.8603 244.551C22.5548 247.662 21.6798 248.495 21.3465 250.981C18.6798 255.273 17.666 260.286 18.3048 266.009C16.041 267.884 15.6382 269.411 17.0826 270.606C17.1382 271.647 -0.361594 275.786 0.0134016 266.995V258.995L1.62449 256.078C9.79105 251.314 5.98555 246.55 0.0134016 242.995V228.328C2.73559 228.328 8.58274 228.204 10.6799 229.662V229.648Z" fill="#FCF4F6"/>
<path d="M0.0135632 242.981C12.4717 240.884 11.0829 258.62 0.0135632 258.981V242.981Z" fill="#FCC812"/>
<path d="M21.3465 250.981C20.8742 254.384 19.5692 257.897 19.0275 261.342C18.5275 264.481 22.1942 267.661 16.0137 268.342V269.62C19.1386 269.175 21.2081 273.272 17.972 273.661C16.347 273.856 14.9443 271.425 13.9998 271.397C11.5693 271.342 5.13882 280.3 0 270.981V266.981C5.79159 272.05 14.472 273.745 17.2637 264.842C18.9164 259.578 14.9581 253.592 21.3331 250.981L21.3465 250.981Z" fill="#B6C896"/>
<path d="M285.343 1.65091C285.746 1.74813 287.718 3.77612 288.01 4.31778C293.148 13.8454 289.246 27.2894 289.232 37.0115C289.232 39.7337 290.482 41.3865 290.676 42.9698L291.482 50.9836C295.51 52.5253 303.634 57.289 304.009 61.6362C306.023 62.5251 306.468 63.4142 305.343 64.303C306.537 64.6503 306.509 65.1085 305.343 65.6363C303.329 66.5668 300.329 66.0946 296.357 64.2196C294.357 61.0391 292.468 61.9557 290.676 66.9696C293.94 68.1501 307.537 77.0805 307.19 79.7749C306.551 84.6637 296.94 84.2473 297.343 78.9696L282.107 67.7335C281.079 63.3447 279.426 55.6644 284.01 53.6366C282.051 50.8728 281.51 46.7476 282.412 41.2476C274.329 35.4977 277.704 23.4285 282.676 16.3036C276.024 16.3452 278.26 7.24823 284.01 5.63714C272.301 4.72048 275.94 -0.1963 285.343 1.63701V1.65091Z" fill="#64482A"/>
<path d="M238.677 28.317C233.649 31.8448 211.58 25.7476 208.011 28.317C204.039 28.1226 200.066 28.1922 196.108 28.5256L194.678 25.6505C193.511 25.2755 193.525 24.8311 194.678 24.3172C200.039 23.9145 217.775 24.9421 223.386 25.6088C228.386 26.206 232.816 29.8587 238.677 28.317Z" fill="#868781"/>
<path d="M285.343 1.65091C283.579 1.20647 280.691 1.95623 278.677 1.65068V4.30364L283.996 2.98394C284.038 3.85893 283.982 4.76192 283.996 5.6508C282.58 8.37299 278.052 9.53956 276.58 6.60904C272.163 8.44235 267.969 9.91442 263.997 10.9838C263.663 13.331 260.066 14.873 258.663 12.3175C256.788 14.0813 256.108 13.3449 257.33 10.9838C261.08 8.17833 260.983 3.26173 261.372 2.99784C264.427 0.970088 265.788 5.66476 266.149 5.72031C272.816 6.58141 279.219 -2.82149 285.33 1.65068L285.343 1.65091Z" fill="#775B3C"/>
<path d="M257.344 10.984L258.677 12.3176C259.788 15.0259 257.413 17.3729 254.677 16.3173C251.177 17.859 248.122 20.1227 245.525 23.1366L244.011 21.6507V20.3171C249.247 14.47 252.219 14.8172 257.344 10.984Z" fill="#7E6548"/>
<path d="M244.011 21.6507C246.955 21.6785 245.955 28.3449 242.677 26.9838C244.455 28.9004 244.372 31.8866 241.344 32.3172C240.941 32.9838 240.497 32.9699 240.011 32.3172V30.9839C239.941 30.1506 239.941 29.1504 240.011 28.317C240.594 21.581 240.58 24.1365 244.011 20.3171V21.6507Z" fill="#7F6649"/>
<path d="M94.6787 278.981C82.4428 286.203 70.9985 294.591 58.6792 301.647C59.5958 300.855 65.3735 296.078 64.0125 294.994C62.1375 295.147 60.0125 294.605 58.2208 294.966C56.8181 295.258 58.2625 298.939 54.6792 297.647C54.7765 290.203 55.3598 292.453 62.6791 292.314C64.2069 284.508 56.9986 290.981 52.0126 290.981C56.2348 281.828 45.5127 284.481 49.3321 292.314C46.4432 291.05 40.6239 289.078 41.3461 285.008C41.8044 282.342 49.3043 285.994 48.0821 279.717C48.0127 279.383 43.6794 274.953 43.346 274.953C38.8878 274.856 39.5128 281.578 36.0267 282.981C35.0128 275.022 33.1795 269.078 41.3461 264.314L43.0405 262.828C56.2764 268.536 69.7346 273.258 83.415 277.022C89.3871 274.939 93.151 275.592 94.6787 278.981Z" fill="#9DB875"/>
<path d="M126.678 204.315C126.998 204.426 129.428 206.315 130.678 206.982C132.289 206.468 133.359 206.551 133.345 208.315C134.775 210.19 136.873 210.982 138.678 212.315H140.011C140.47 212.634 140.831 213.287 141.345 213.648C142.248 213.648 142.692 214.079 142.678 214.982C140.609 216.926 137.053 216.482 132.012 213.648C131.637 214.815 131.192 214.801 130.678 213.648L129.956 211.981C135.303 213.176 121.678 209.287 118.262 210.523C112.831 212.496 102.595 264.759 104.012 273.647C100.943 275.356 97.7065 277.203 94.6787 278.981C89.6927 277.328 86.1649 280.536 80.2622 279.508C67.4985 277.286 54.6931 266.634 41.3461 264.314C32.2906 262.745 35.61 264.189 28.7629 267.05C22.9852 269.467 19.638 268.3 24.874 263.161C36.3739 251.898 53.1515 265.272 64.9985 269.328C80.3733 274.592 92.2482 277.856 98.3037 259.259C102.97 244.925 105.706 221.343 111.734 208.69C115.04 201.773 120.164 202.079 126.678 204.301V204.315Z" fill="#94AF6D"/>
<path d="M92.0124 209.648C95.0679 209.856 98.0401 216.079 101.318 216.343C103.026 219.093 94.9151 222.69 93.8318 223.467C92.8179 224.203 94.0679 226.217 92.0263 225.634C92.3457 220.204 84.9708 226.12 86.6513 218.981C79.5264 218.731 81.3042 224.843 74.6793 221.662C74.4848 226.231 80.6653 228.648 81.332 231.662C81.5264 232.537 75.8043 232.454 77.3737 238.273C78.1098 240.995 82.8181 238.162 83.9986 240.981L76.0126 244.328C74.7071 247.564 78.3459 246.62 78.6792 247.814C79.6375 251.203 77.3737 253.787 73.9848 253.592C69.5127 253.342 76.8737 248.162 72.6654 246.967C71.4571 246.62 72.4015 249.55 71.4293 249.536C63.5405 249.384 69.3877 242.287 64.6794 237.662L59.3322 242.981C60.36 238.148 46.9157 244.676 50.6657 237.634C71.3182 240.676 66.8322 218.37 74.1237 213.759C74.957 213.231 91.0818 209.565 91.9985 209.634L92.0124 209.648Z" fill="#A4C07A"/>
<path d="M12.0132 233.648C14.541 233.453 16.9299 237.801 18.6798 240.314C9.70772 238.953 13.2771 238.953 12.0132 233.648Z" fill="#C4D0AA"/>
<path d="M10.6803 336.313C13.7775 333.494 15.5831 332.147 18.6802 329.647C17.4441 333.577 14.8886 335.952 10.6803 336.313Z" fill="#4C6929"/>
<path d="M65.3462 244.328C66.249 244.786 64.5684 246.592 62.6934 245.634C61.7907 245.176 63.4712 243.37 65.3462 244.328Z" fill="#A4C07A"/>
<path d="M76.0123 152.329C76.915 152.788 75.2345 154.593 73.3595 153.635C72.4568 153.177 74.1373 151.371 76.0123 152.329Z" fill="#97B26F"/>
<path d="M120.012 122.983C133.262 119.427 128.984 134.941 119.804 134.733C126.054 142.955 121.79 152.996 113.832 142.844C105.679 142.122 104.999 142.58 106.985 150.399C104.429 156.038 104.651 159.26 107.624 160.08C111.929 158.121 114.943 160.593 112.012 164.302L110.485 166.94C105.624 165.038 97.5403 165.829 104.124 169.427L105.346 172.302C98.4292 175.204 99.1236 177.038 97.3459 182.968L92.6932 178.996C88.1793 183.274 85.0405 179.413 88.0265 186.968C82.4433 186.315 84.4294 187.565 84.0405 191.385C83.5405 196.287 74.8184 186.371 76.1934 184.426C76.3739 184.163 78.6517 184.427 78.6378 183.746C78.5683 181.524 75.2489 177.232 77.3461 173.649C73.8323 173.413 72.5823 175.996 72.6934 178.941C71.8323 178.26 69.3462 174.635 69.374 174.288C69.4851 172.538 75.6795 173.038 72.0267 170.26C67.6796 171.163 65.3879 168.857 61.3463 168.288C62.3324 160.177 68.3046 158.038 76.0267 157.621L74.7212 155.038C76.2073 154.996 77.5822 154.733 78.6933 153.635C94.8181 137.552 98.2347 132.747 120.026 122.969L120.012 122.983Z" fill="#A2BD79"/>
<path d="M104.012 273.647L98.6926 273.009C103.97 267.564 101.665 258.522 102.984 251.967C104.373 245.023 111.429 215.62 114.053 211.037C118.012 204.106 127.887 208.912 133.331 211.009C133.65 212.606 131.775 212.732 130.678 213.662C129.928 215.954 125.109 220.773 122.678 221.662C119.47 234.815 124.303 247.05 130.303 258.883L129.345 260.328C120.956 264.814 112.317 269.036 104.012 273.661L104.012 273.647Z" fill="#9FBB77"/>
<path d="M109.345 285.647L106.679 286.98C107.679 286.411 108.609 286.064 109.345 285.647Z" fill="#567A68"/>
<path d="M26.6798 161.663L24.027 164.316C23.652 161.524 23.8881 161.288 26.6798 161.663Z" fill="#A7C37D"/>
<path d="M152.011 68.3166C151.622 73.6776 151.331 76.0944 145.345 74.9972C145.206 76.3721 148.011 77.6914 147.997 78.3164C147.97 79.2331 136.664 84.8443 138.664 89.6498C132.095 83.4138 127.831 97.3302 121.373 99.6496C123.859 103.566 125.803 97.8163 129.345 98.9969C127.97 104.177 112.248 109.997 128.012 109.649C123.803 110.552 118.651 111.164 114.678 112.316L111.998 104.316C109.817 103.719 111.192 106.677 110.026 107.011C104.942 108.497 107.401 104.566 106.679 102.969C108.206 99.2745 108.651 95.7191 108.012 92.3024C108.095 91.8719 107.956 91.3997 108.012 90.9692C107.956 86.8998 108.845 83.3444 110.679 80.3027C111.054 79.775 110.873 78.3859 112.012 77.6359L152.011 68.3027V68.3166Z" fill="#A4C07B"/>
<path d="M104.012 116.316C98.165 114.691 96.8317 107.358 103.582 105.788C106.568 105.094 105.443 111.941 110.665 108.316L108.012 114.983C106.776 115.413 104.832 115.969 104.012 116.316Z" fill="#A4C07B"/>
<path d="M52.0129 146.982H50.6796C52.2768 146.191 51.9573 147.01 52.0129 146.982Z" fill="#A2BE79"/>
<path d="M246.677 29.6507L248.011 30.984C248.261 29.8173 248.705 29.8729 249.344 30.984L251.413 33.2198C258.247 31.6504 258.566 37.8448 255.927 42.9558C256.316 49.7474 256.663 57.0947 255.969 63.539L249.761 63.8445C248.844 67.5945 247.372 70.4279 245.344 72.3168C245.761 70.8029 246.705 61.9417 244.65 61.65C242.816 61.3861 231.178 68.789 226.011 65.664L228.011 61.6639C230.289 57.5112 236.094 54.2197 240.011 57.6641C239.441 56.6363 240.122 56.2197 241.344 56.3309C239.719 53.2059 238.427 45.4558 242.677 44.3308C241.552 41.9142 240.455 39.3312 242.677 37.6645L243.983 37.0392C242.941 33.4976 243.386 31.0396 245.344 29.6646C245.719 28.4979 246.163 28.5118 246.677 29.6646V29.6507Z" fill="#755634"/>
<path d="M242.677 44.3169C242.76 48.7751 243.51 52.4975 241.344 56.3169C240.302 56.2058 239.857 56.6502 240.01 57.6502C237.316 59.2196 235.677 58.7473 233.399 59.6918C230.358 60.9417 232.705 63.1777 228.01 61.6499C219.677 58.9278 213.788 61.2333 205.344 61.6499C200.969 60.9416 203.886 54.7334 206.677 53.65C207.066 52.7195 207.511 52.7334 208.011 53.65C212.913 54.2889 217.761 52.6643 222.552 48.7615L225.344 49.6503C225.747 48.8586 226.191 48.8864 226.677 49.6503C232.955 50.0252 236.232 45.3586 241.344 42.9836C242.177 43.0392 242.621 43.4835 242.677 44.3169Z" fill="#69665D"/>
<path d="M254.677 29.6505C257.885 28.1366 259.663 28.1366 260.01 29.6505H262.677C269.858 30.0255 267.941 49.6223 260.01 42.9835C258.844 44.2196 258.358 44.1779 258.677 42.6501C259.455 50.8167 259.01 58.4834 257.344 65.6499L256.01 66.9832C257.51 69.2193 255.524 71.1219 253.344 69.6497C251.511 69.1081 249.288 70.8859 246.677 74.9831C247.83 75.372 247.816 75.8164 246.677 76.3164C245.427 77.5802 244.455 78.233 244.011 76.3164C243.038 75.9691 243.066 75.5248 244.011 74.9831C244.177 74.5109 244.177 74.0665 244.011 73.6498C244.247 73.0943 245.261 72.6223 245.344 72.3168C248.205 66.1224 247.024 59.7193 256.01 61.6359C252.024 56.386 258.274 42.6363 252.024 41.6363V40.3447C255.733 40.8586 254.691 37.9419 254.663 34.9974C250.663 36.7474 246.094 36.4698 249.344 30.9977C248.872 28.6366 253.372 27.3866 254.677 29.6644V29.6505Z" fill="#7C5A36"/>
<path d="M260.01 42.9835C262.955 43.1085 263.677 44.1226 260.844 44.8587L260.01 48.317L262.635 50.442C261.663 56.567 262.122 62.0807 264.01 66.9834C255.691 69.1778 251.733 78.4694 244.011 82.9832C243.65 83.1221 243.122 82.886 242.677 82.9832C240.775 82.5943 239.275 78.7609 241.344 77.6498C242.886 76.4137 242.483 75.2055 242.677 74.9833L244.011 74.9831C243.927 75.4137 244.066 75.8858 244.011 76.3164H246.677C246.858 75.9691 246.511 75.3581 246.677 74.9831C248.983 71.2609 251.205 69.483 253.344 69.6497C254.358 68.6775 254.983 68.1776 256.01 66.9832L257.344 65.6499C258.052 58.3445 257.733 49.0947 257.344 41.6504C259.163 41.0254 259.858 42.9559 259.997 42.9836L260.01 42.9835Z" fill="#694E2D"/>
<path d="M197.344 92.3164C194.289 92.2886 183.747 93.8024 181.344 94.9829C179.608 93.0385 179.178 92.3304 179.233 89.6777C179.428 81.1917 181.247 85.7194 184.747 85.5389C186.497 85.4555 187.719 83.525 188.664 83.4834C189.122 83.4695 196.983 86.0525 197.372 86.2886C199.678 87.6636 197.678 90.5247 197.33 92.3164H197.344Z" fill="#A4BF7A"/>
<path d="M206.677 53.65L205.344 61.6499C202.691 61.7749 199.997 61.497 197.344 61.6498C199.483 58.0387 202.997 56.6082 204.011 52.3166C205.178 50.8305 206.316 51.9278 206.677 53.65Z" fill="#9B988D"/>
<path d="M224.983 73.3862C224.858 73.6501 221.135 77.3026 220.01 76.3026C219.691 76.0248 224.247 71.0249 222.691 68.3166C225.149 69.0388 226.094 71.1084 224.983 73.3862Z" fill="#A4BF7A"/>
<path d="M241.344 77.6498L242.677 82.9832C242.4 83.0526 242.608 84.7472 241.358 83.7611C240.261 82.8861 237.955 78.5666 238.677 77.6638C238.941 77.3305 240.969 77.9555 241.344 77.6638L241.344 77.6498Z" fill="#A4BF7A"/>
<path d="M244.011 74.9831L242.677 74.9833C243.066 74.5527 243.886 73.9415 244.011 73.6498L245.316 74.3166C244.955 74.6638 244.052 74.7887 244.011 74.9831Z" fill="#755634"/>
<path d="M150.012 77.6498C150.873 78.0942 150.873 78.5389 150.012 78.9834V77.6498Z" fill="#A4C07B"/>
<path d="M148.678 80.3166C149.539 80.7611 149.539 81.2055 148.678 81.6499V80.3166Z" fill="#A4C07B"/>
<path d="M93.3456 98.9831C90.7068 98.4692 88.0124 98.0248 85.3457 97.6498C88.3179 92.9693 91.0401 94.8026 93.3456 98.9831Z" fill="#E5E0D7"/>
<path d="M108.012 90.9831C108.345 88.3164 107.484 85.3441 108.276 82.5386C108.748 80.872 110.387 80.7333 110.679 80.3166L108.012 90.9831Z" fill="#BCCB9D"/>
<path d="M268.01 50.9836C264.899 48.567 266.343 45.7336 270.218 45.3308C269.385 31.8171 273.843 33.9005 281.954 39.1782C281.996 44.3587 282.69 49.1783 284.01 53.6366C284.218 57.2338 283.093 64.3446 284.677 66.9696C286.121 69.3723 295.996 74.4697 297.343 78.9696C285.107 76.178 287.774 70.9694 276.01 68.3028C275.024 70.1639 273.246 70.6083 270.677 69.6361C265.677 64.7889 264.788 58.5669 268.01 50.9697V50.9836Z" fill="#785734"/>
<path d="M282.677 16.3175C282.524 19.5257 279.413 35.456 280.024 36.331L282.663 34.9838C284.121 41.1643 283.663 47.4002 284.01 53.6641C276.204 50.6363 280.288 50.5394 281.038 47.3728C283.802 35.7757 276.454 44.0392 274.649 36.3449C271.774 36.6782 273.329 46.3447 272.704 47.0947C271.288 48.7891 267.024 47.067 267.996 51.0114C267.288 52.7753 266.399 52.3309 265.33 49.6782C263.371 48.4004 261.593 47.956 259.996 48.3449V43.0115C261.288 43.1782 262.691 42.9143 263.996 43.0115C263.816 38.5671 264.941 33.7063 262.663 29.6647L266.663 26.9978C265.496 26.6228 265.51 26.1784 266.663 25.6645C264.885 23.4423 268.302 22.3452 270.663 22.998C272.121 21.5675 273.01 21.5675 273.329 22.998C276.565 16.9564 279.677 14.7342 282.663 16.3314L282.677 16.3175Z" fill="#725331"/>
<path d="M361.343 68.3166H362.676C363.662 70.3027 360.634 73.6084 358.676 72.3167C350.676 74.4139 337.565 71.5388 330.676 66.9833L326.676 65.6501C326.94 67.8167 325.607 67.8167 322.676 65.6501C317.26 65.039 309.815 61.9557 305.343 64.3168C304.829 63.5113 303.954 62.886 304.01 61.6499C321.232 65.011 343.537 63.0111 361.343 68.3166Z" fill="#9CB67D"/>
<path d="M284.01 5.65102C284.191 10.9704 281.566 9.2899 281.302 10.5538C280.774 13.1093 282.718 15.4564 282.677 16.3175C279.51 18.3869 276.746 21.2619 273.344 22.9841L272.205 21.5674C274.635 15.4147 273.677 11.8868 269.344 10.9841C269.844 13.1507 268.51 14.0398 265.344 13.6509C265.094 14.8037 264.649 14.762 264.01 13.6509C262.621 13.4426 262.621 12.5535 264.01 10.9841C264.288 10.8452 264.83 9.1786 266.26 8.62306C272.177 6.34531 277.552 4.9427 284.01 5.65102Z" fill="#B4A081"/>
<path d="M305.343 65.6501C305.885 66.7195 309.593 68.0668 307.996 72.3167C304.315 72.7334 303.413 68.2194 300.385 67.2749C298.454 66.6777 292.746 66.0667 290.663 66.9833C289.066 62.6639 290.829 61.0807 290.663 56.3169L297.677 61.9558L305.315 65.6501H305.343Z" fill="#755733"/>
<path d="M287.996 57.6641C289.01 58.553 289.566 63.0669 286.691 62.9836C286.33 60.8725 284.413 54.5391 287.996 57.6641Z" fill="#755733"/>
<path d="M240.011 32.3172L241.344 33.6504C244.316 33.2615 244.858 36.1089 242.677 37.6506C242.705 39.8727 242.635 42.0947 242.677 44.3169C242.219 43.928 241.635 43.5114 241.344 42.9836C240.052 40.6364 237.816 32.7339 240.011 30.9839C240.052 31.4422 239.914 31.9422 240.011 32.3172Z" fill="#BAB09F"/>
<path d="M225.344 45.6504C223.233 45.3309 220.691 48.4279 218.677 42.9835C222.233 42.803 225.122 40.1505 225.344 45.6504Z" fill="#ACA79E"/>
<path d="M226.678 45.6505C230.191 46.4838 229.774 48.428 226.677 49.6503H225.344C226.052 48.3864 226.539 47.1088 226.678 45.6505Z" fill="#ACA79E"/>
<path d="M264.01 10.9841L265.302 11.6506L264.01 13.6509C265.969 16.9426 261.593 17.7339 258.677 17.6506H257.344C255.288 17.9145 254.399 17.4701 254.677 16.3173C255.913 15.2896 256.927 13.4425 258.677 12.3176C259.774 11.6092 262.621 11.6507 264.01 10.9841Z" fill="#C0AC8C"/>
<path d="M208.011 53.65H206.677C205.886 53.1362 204.692 52.8722 204.011 52.3166C202.247 50.8722 196.886 45.9835 196.011 44.3169C195.831 43.9835 196.178 43.3586 196.011 42.9836C199.178 45.8308 206.636 49.6223 208.011 53.65Z" fill="#78746B"/>
<path d="M254.677 16.3173C247.858 22.8312 246.524 26.3864 250.677 26.9836C251.386 25.8031 258.01 25.2337 259.774 25.6921C263.385 26.6226 257.177 29.9005 254.677 29.6505C252.511 29.831 250.33 30.9284 249.344 30.984C248.913 31.0117 248.441 31.0256 248.011 30.984L246.677 29.6507L245.344 29.6505C243.052 30.456 242.205 29.2338 242.677 26.9838C243.08 25.3866 244.455 23.734 244.011 21.6507C248.983 20.9424 248.858 16.1507 254.677 16.3173Z" fill="#BFAB8C"/>
<path d="M245.344 29.6505C246.927 34.1504 245.177 37.9142 245.274 42.2614C245.372 46.6085 248.288 51.0947 245.316 56.3169L242.663 37.6645C242.663 37.4561 241.413 35.8726 241.33 33.6643V32.3311C241.455 29.8033 242.191 28.8865 242.663 26.9977C244.024 27.4699 244.844 28.3035 245.33 29.6645L245.344 29.6505Z" fill="#8B6842"/>
<path d="M241.344 33.6504C240.733 33.4421 240.177 32.956 240.011 32.3172H241.344C241.33 32.7616 241.33 33.206 241.344 33.6504Z" fill="#A39F96"/>
<path d="M121.345 172.315C120.026 172.218 118.651 172.44 117.345 172.315L120.012 169.649C120.581 170.468 121.443 171.038 121.345 172.315Z" fill="#A2BD79"/>
<path d="M132.012 181.662L125.359 188.315C125.193 184.385 128.054 181.454 132.012 181.662Z" fill="#A1BC78"/>
<path d="M133.345 208.315C132.47 207.857 131.553 207.454 130.678 206.982C135.137 203.801 133.164 208.079 133.345 208.315Z" fill="#A1BC78"/>
<path d="M124.678 181.649C125.539 182.093 125.539 182.537 124.678 182.982V181.649Z" fill="#A1BC78"/>
<path d="M138.678 212.315H140.011C138.678 211.371 138.678 212.315 138.678 212.315Z" fill="#A1BC78"/>
<path d="M98.6787 118.983C96.151 119.816 90.9427 110.872 92.026 109.649C96.0121 111.969 99.7898 113.483 98.6787 118.983Z" fill="#A4C07B"/>
<path d="M105.346 102.983C100.679 105.899 99.5819 106.136 94.6792 104.316C100.999 105.163 101.526 97.9966 105.346 102.983Z" fill="#A4C07B"/>
<path d="M116.012 161.649L117.345 158.982C117.304 160.413 116.318 160.926 116.012 161.649Z" fill="#A2BD79"/>
<path d="M264.01 94.9829C263.177 101.455 256.316 98.3301 260.01 93.6496C262.621 93.844 262.704 94.5523 264.01 94.9829Z" fill="#9FBA76"/>
<path d="M230.677 102.983C235.177 106.927 231.83 110.775 228.024 113.65V105.636L230.691 104.316C227.774 105.261 225.983 103.538 224.01 102.983C226.121 102.733 228.705 103.33 230.677 102.983Z" fill="#9FBA76"/>
<path d="M250.677 94.9829L242.677 97.6497C245.844 96.5108 246.816 95.8301 250.677 94.9829Z" fill="#9FBA76"/>
<path d="M256.01 93.6496C255.802 93.6635 254.566 94.7884 253.344 94.9829L256.01 93.6496Z" fill="#9FBA76"/>
<path d="M276.01 68.3167C277.635 73.3166 280.371 78.4833 284.093 82.261C285.982 84.1777 290.246 83.7334 290.676 88.3027C289.274 89.3583 278.01 84.1777 276.01 82.9833C274.316 79.275 272.538 75.7196 270.677 72.3168C269.329 71.7335 269.038 70.0527 270.677 69.65C272.552 65.7889 273.302 67.7056 276.01 68.3167Z" fill="#6D522F"/>
<path d="M260.01 48.317C262.774 41.2754 263.718 43.5254 265.343 49.6503C268.204 52.6086 268.399 57.1502 265.302 59.7613C267.829 64.0112 268.288 66.8583 266.677 68.3166C266.052 67.7611 264.746 67.5389 264.01 66.9834C262.774 66.0667 260.204 65.7749 259.954 64.7888C259.163 61.8305 260.01 52.3864 260.01 48.317Z" fill="#7C5A36"/>
<path d="M268.01 50.9836C268.149 51.3308 269.427 57.8723 269.399 58.2334C269.358 59.025 266.621 58.9973 266.594 59.664C266.496 61.525 270.052 66.1222 270.677 69.6361C270.816 70.4555 270.58 71.4417 270.677 72.3028C270.302 73.4417 269.857 73.4278 269.344 72.3028C268.496 70.5945 268.233 69.6638 266.677 68.3027C267.274 64.9833 264.26 62.303 263.941 59.5392C263.802 58.317 267.483 57.6918 265.344 49.6363C265.941 50.1225 267.885 50.6503 268.01 50.9697V50.9836Z" fill="#64492A"/>
<path d="M276.01 82.9833C270.024 79.4 271.774 77.2194 269.343 72.3167L270.677 72.3168C275.066 72.3168 277.732 79.6222 276.01 82.9833Z" fill="#785734"/>
<path d="M241.344 56.3169C241.107 56.7475 240.441 57.4002 240.01 57.6502C237.594 57.3724 239.538 56.0392 240.677 55.0114L241.344 56.3169Z" fill="#8D877A"/>
<path d="M246.677 29.6507L248.011 30.984C247.913 30.9701 247.358 29.734 246.677 29.6507Z" fill="#8B6842"/>
<path d="M273.344 22.9841C273.121 23.0952 273.121 24.0949 272.69 24.1504C272.19 24.2199 271.329 23.1784 270.677 22.984C268.579 22.5673 265.01 23.7755 266.677 25.6505V26.9838C264.76 28.5254 262.441 29.3866 260.01 29.6505C258.358 29.9005 256.399 29.4977 254.677 29.6505C256.135 27.8033 259.191 29.206 258.677 26.9977C256.024 27.0116 253.343 26.9282 250.677 26.9977C244.177 26.6644 252.635 16.0812 257.343 17.6645C257.774 17.734 258.232 17.609 258.677 17.6645C258.579 18.5812 259.913 19.0255 262.677 18.9978C262.843 20.8218 262.843 20.8218 262.677 18.9978C259.649 19.4144 258.316 18.97 258.677 17.6645C259.441 16.9423 263.691 13.7481 264.01 13.6647C264.385 13.5814 264.941 13.6508 265.343 13.6647C266.968 13.2203 268.302 12.3312 269.343 10.9979C272.093 9.73398 274.871 8.91471 277.329 6.99807C275.302 12.2619 276.871 18.6368 273.343 22.9979L273.344 22.9841Z" fill="#D4C2A4"/>
<path d="M253.344 69.6497C251.33 71.5941 250.261 74.2887 246.677 74.9831C248.205 71.5526 249.649 67.9418 250.691 64.3168C253.163 64.8168 253.455 67.497 253.344 69.6497Z" fill="#755634"/>
<path d="M246.677 76.3164C246.094 77.4413 245.497 78.9278 244.025 78.9834C244.039 78.1084 243.9 77.1776 244.025 76.3165H246.691L246.677 76.3164Z" fill="#755634"/>
<path d="M266.677 26.9838C265.843 28.2477 264.108 29.3449 262.677 29.6505C261.899 29.8172 260.858 29.5255 260.01 29.6505L266.677 26.9838Z" fill="#CAB696"/>
<path d="M256.01 66.9832C256.413 66.511 256.872 66.0666 257.344 65.6499C257.288 66.261 256.635 66.8443 256.01 66.9832Z" fill="#755634"/>
<path d="M270.677 22.984C268.26 22.1368 267.663 25.2061 266.677 25.6505C266.371 25.7894 259.774 27.4422 260.024 25.6645C265.524 23.9839 264.829 21.1368 270.677 22.984Z" fill="#CAB696"/>
<path d="M330.676 66.9833C329.232 66.8722 327.301 67.4278 326.676 65.6501C328.135 65.7334 330.024 65.2195 330.676 66.9833Z" fill="#A4BF7A"/>
<path d="M269.344 10.9841L271.329 17.6367L270.704 14.998C268.843 15.5674 266.482 13.7064 265.357 13.6508C266.315 12.1369 267.843 11.6784 269.357 10.984L269.344 10.9841Z" fill="#BFAC8B"/>
<path d="M257.344 17.6506C253.663 18.2617 249.177 22.2897 249.385 26.2063L250.677 26.9836C250.427 26.9836 249.288 29.2615 248.01 27.6782C243.677 23.9838 251.844 18.6645 254.677 16.3173C255.997 16.359 256.969 17.5951 257.344 17.6506Z" fill="#B19D7C"/>
<path d="M106.679 165.663C108.137 167.121 105.484 169.774 104.026 168.315C102.568 166.857 105.22 164.204 106.679 165.663Z" fill="#A2BD79"/>
<path d="M116.012 168.329C116.665 168.843 113.679 171.857 112.012 170.968C111.359 170.455 114.345 167.441 116.012 168.329Z" fill="#A2BD79"/>
<path d="M164.678 146.982C165.539 147.427 165.539 147.871 164.678 148.316V146.982Z" fill="#99B471"/>
<path d="M130.012 152.316C130.873 152.76 130.873 153.204 130.012 153.649V152.316Z" fill="#A6C27C"/>
<path d="M238.01 104.316C238.871 104.761 238.871 105.205 238.01 105.65V104.316Z" fill="#9FBA76"/>
<path d="M242.677 200.315C242.969 200.662 248.857 199.593 242.677 205.648C242.469 205.051 240.677 203.44 240.01 201.648L242.677 200.315Z" fill="#73B859"/>
<path d="M177.345 205.648C175.831 204.565 176.15 203.19 176.012 201.648C177.97 202.384 176.998 204.468 177.345 205.648Z" fill="#9CB773"/>
<path d="M238.677 122.983V118.983C239.135 121.26 240.177 118.955 238.677 122.983Z" fill="#A2BD78"/>
<path d="M262.677 18.9839C261.274 17.7894 258.33 21.234 257.344 22.3174L261.33 24.2894L253.344 25.6366C252.274 24.6922 257.746 18.5117 258.677 17.6506C260.607 17.8728 262.469 18.97 262.677 18.9839Z" fill="#BAA686"/>
<path d="M262.677 18.9839C263.899 19.0394 266.371 17.3032 266.663 17.6504C267.649 20.8171 264.135 21.3728 261.33 21.6367C261.052 21.4422 262.996 19.2478 262.677 18.9839Z" fill="#BAA686"/>
<path d="M252.01 156.316C246.441 158.01 243.441 159.065 237.344 160.315C236.844 157.885 235.288 156.093 234.677 153.649C238.747 157.76 244.302 152.177 245.83 152.441C247.358 152.704 249.191 156.788 252.01 156.316Z" fill="#ADC687"/>
<path d="M196.678 140.316C197.539 140.76 197.539 141.205 196.678 141.649V140.316Z" fill="#A2BD78"/>
<path d="M200.011 92.3164C207.539 90.8998 212.928 92.2332 220.469 94.5109C223.067 95.0248 225.705 95.3997 228.358 95.0942C231.511 94.7331 240.15 90.9553 241.58 88.4692C250.955 84.2748 269.01 83.9278 276.621 91.4694C283.246 105.914 287.663 101.038 295.566 90.858C302.26 86.747 305.788 87.3303 309.329 93.6497C315.177 92.9969 320.565 95.8164 325.468 102.108C330.44 108.233 335.746 114.011 341.371 119.441C341.746 117.052 342.579 115.427 345.315 114.983C346.134 115.094 346.787 115.219 346.787 115.386C347.204 123.344 347.19 135.455 346.787 143.441C346.773 143.76 346.134 144.038 345.315 144.316C342.454 143.538 340.954 139.941 340.815 133.552C331.357 126.816 323.038 118.802 315.857 109.497C304.746 99.0109 300.76 98.7052 291.469 112.108C287.982 115.455 281.344 117.122 281.316 110.983C280.344 111.497 278.941 112.205 278.302 111.649C277.663 111.094 267.719 100.066 267.233 99.3859L266.649 96.3165C264.01 98.6915 263.733 98.5107 263.983 94.9829C262.399 97.6774 260.205 96.6358 259.983 93.6497C258.038 96.9274 257.636 97.3996 255.983 93.6497L253.316 94.9829C252.788 98.594 252.052 98.2607 250.65 94.9829L242.65 97.6498C242.969 101.539 233.664 106.566 230.65 102.983C228.942 104.025 226.719 104.025 223.983 102.983C220.775 106.08 214.692 104.566 213.317 100.316C205.442 98.6219 201.428 97.0941 192.817 97.8302C182.623 98.6913 183.65 99.5387 177.317 105.65L174.651 102.983C176.873 101.275 178.234 96.5107 181.317 94.9829C179.887 90.233 196.15 87.8026 197.317 92.3164C198.192 92.3164 199.109 92.2331 199.984 92.3164H200.011Z" fill="#94AF6D"/>
<path d="M322.676 65.6501C334.44 69.2334 337.162 79.233 327.454 87.0385C336.051 99.4272 312.413 97.1773 310.371 90.594C309.621 88.1913 314.732 83.1915 317.288 82.3998C314.524 78.0527 309.246 81.7054 311.357 86.5386L309.343 93.6495C307.746 92.9551 306.038 91.5523 304.371 91.2468C290.732 88.719 292.413 114.441 276.58 97.7191C275.052 96.108 275.121 93.594 274.274 92.7191C269.677 87.9969 254.219 87.608 247.927 88.9136C241.636 90.2191 234.15 97.0664 228.719 97.733C219.886 98.8025 208.581 93.1218 199.997 92.3301L206.664 90.983L202.664 88.3164C206.247 82.1221 213.039 84.8163 218.678 85.6496L218.011 82.9831C223.872 84.2886 222.789 80.9552 224.011 76.3303L228.011 86.9828C230.483 87.2606 229.039 83.9831 229.33 82.3164C230.705 74.2332 235.191 90.4135 236.025 90.983C240.039 92.0385 239.275 86.7606 240.275 85.9412C240.789 85.5245 249.302 85.1359 246.65 81.6637C246.372 81.2887 244.83 82.6775 243.997 82.997L243.927 79.8859C249.261 76.7193 254.261 72.1915 258.941 66.261C260.441 66.3582 262.136 66.5944 264.01 66.9971C264.913 64.4416 265.941 66.0804 266.677 68.3304C269.135 66.8165 270.372 70.3305 269.344 72.3305C272.635 74.8305 274.858 78.3859 276.01 82.997C277.08 80.5664 278.483 81.0247 280.399 82.2191C278.663 78.3858 276.608 74.7333 274.233 71.2889L276.01 68.3304C277.635 65.2888 279.83 66.2749 282.496 67.6777L297.343 78.9968C299.566 79.5107 302.982 81.761 305.343 79.6638C300.316 75.65 293.093 73.497 290.677 66.9971C290.566 60.7194 301.413 64.8722 304.774 68.0666L305.343 65.6639C305.163 65.3028 305.538 64.6362 305.343 64.3306C309.121 61.6501 318.218 63.7472 322.676 65.6639L322.676 65.6501Z" fill="#A4BF7A"/>
<path d="M326.676 65.6501L330.676 66.9833C340.148 67.6639 349.537 69.9001 358.676 72.3167L359.134 74.4417C351.509 86.1916 348.69 100.108 346.996 113.816L345.329 114.997C344.857 117.636 343.329 121.038 343.329 124.33C329.524 114.858 325.468 100.705 309.329 93.6774C305.079 90.4274 309.107 87.483 308.857 84.9831C308.732 83.6775 306.163 82.4694 306.663 81.7055C306.885 81.3583 313.538 77.7193 313.954 77.7054C316.857 77.6082 320.649 80.3026 320.065 83.6359C319.926 84.4137 315.885 85.7054 314.579 87.5943C309.843 94.4414 315.885 91.0803 317.385 91.7192C322.885 94.0664 319.107 96.6219 327.996 90.997L321.343 86.3302C320.649 82.2469 326.399 85.5665 327.843 84.1082C328.162 83.7888 327.815 81.9971 328.496 80.8999C328.954 80.1637 330.76 80.5665 330.774 78.4276C330.843 71.2749 326.301 70.3445 322.663 65.6779C323.968 65.8307 325.343 65.6084 326.663 65.6779L326.676 65.6501Z" fill="#A9C57F"/>
<path d="M346.676 173.649C347.287 175.44 345.565 182.787 344.746 185.44C344.509 186.218 342.537 186.023 341.343 185.648C337.371 187.065 333.648 182.482 336.01 178.982C332.69 173.926 329.412 167.649 326.871 162.121C323.107 153.954 315.913 139.205 318.899 130.524C319.621 128.427 326.065 125.191 328.024 126.205C331.551 128.038 333.204 147.566 335.385 153.607C337.732 160.107 342.412 168.135 346.69 173.635L346.676 173.649Z" fill="#91CB5B"/>
<path d="M238.677 28.317L240.011 28.317C241.636 28.7059 241.205 29.7756 240.011 30.9839C240.677 35.0116 241.121 39.0114 241.344 42.9836C241.149 48.2335 228.871 55.6085 226.677 49.6503C227.469 48.2197 227.469 46.8866 226.678 45.6505C226.247 46.7893 225.802 46.7893 225.344 45.6504C223.302 44.8309 221.08 43.9418 218.677 42.9835C216.83 48.3168 206.011 44.5391 202.303 41.9141C192.817 35.192 192.025 23.4838 206.22 29.0115C206.289 29.0393 205.497 29.3451 205.525 29.3312C206.345 29.0118 207.178 28.6782 207.997 28.3309L208.456 26.2476C218.608 27.1782 228.678 27.8726 238.664 28.3309L238.677 28.317Z" fill="#A39F96"/>
<path d="M194.678 24.3172V25.6505C195.178 30.4977 196.178 35.3309 197.72 40.1502L196.011 42.9836V44.3169C195.636 45.4835 195.192 45.4696 194.678 44.3169C190.748 43.428 188.595 39.4143 188.234 32.2894C184.234 38.8448 181.053 45.5252 178.678 52.3168C179.692 54.4279 179.456 54.9 177.345 53.65C173.734 46.1362 182.234 28.0255 189.761 25.345C191.623 24.6783 192.719 24.47 194.678 24.3172Z" fill="#74726B"/>
<path d="M186.678 62.9835C186.067 63.0252 184.567 61.6082 184.012 61.6499C182.442 58.4972 178.873 56.8167 177.345 53.65L178.678 52.3168C182.567 51.1223 189.886 60.3863 186.678 62.9835Z" fill="#82847E"/>
<path d="M193.345 61.65C188.011 63.15 180.345 52.303 180.734 47.4975C181.609 37.0115 189.498 35.5114 194.678 44.3169H196.011C200.178 46.4557 202.844 49.1222 204.011 52.3166C206.775 56.6777 202.247 60.7192 197.344 61.6498C196.025 61.7331 194.664 61.5667 193.345 61.65Z" fill="#8D887E"/>
<path d="M178.678 52.3168C178.15 51.2473 177.512 50.2754 177.539 49.0254C177.623 44.3727 190.928 19.1228 192.025 27.6644C190.039 35.2893 191.761 37.6642 194.678 44.3169L188.011 45.6366L189.359 40.9977C189.623 38.1505 183.317 42.6503 183.359 48.1502C183.387 51.2474 189.275 61.1361 193.331 61.65C192.345 61.7055 189.525 62.803 186.664 62.9836C186.289 58.5531 180.456 55.9279 178.664 52.3168L178.678 52.3168Z" fill="#98958B"/>
<path d="M208.011 28.317C207.872 28.4143 208.483 30.9006 207.247 31.0395C205.428 31.234 200.372 28.3729 197.345 29.6645C199.65 40.3033 208.595 43.4975 218.664 42.9836C221.4 43.4697 223.622 44.3588 225.33 45.6505C225.775 45.7199 226.261 45.5532 226.664 45.6505C228.789 46.8588 227.539 48.7614 225.33 49.6503C223.733 52.4974 209.206 58.6779 207.997 57.6502C207.622 57.3307 208.317 54.6084 207.997 53.65C203.483 50.6223 199.484 47.0669 195.997 42.9836C193.734 37.8864 191.47 30.5532 194.664 25.6505L207.108 27.2479L207.997 28.317L208.011 28.317Z" fill="#B3AEA4"/>
<path d="M220.011 36.3171C219.872 36.1782 219.872 32.4701 220.011 32.3312C220.692 31.6368 238.122 33.4424 237.344 38.3034C236.816 41.6367 233.9 38.9007 232.983 38.7062C230.539 38.1785 220.456 36.7893 220.011 36.3171Z" fill="#ACA79E"/>
<path d="M173.345 64.3168L152.011 68.3166C151.609 69.7471 151.137 70.8167 149.818 71.5667C148.22 72.4694 115.971 80.1221 114.151 79.886L112.012 77.6498V72.3167C115.36 72.9278 137.234 66.6221 143.512 65.8166C153.415 64.5388 163.72 65.1362 173.345 64.3168Z" fill="#9BB67B"/>
<path d="M66.6797 92.3163C69.388 93.7885 69.4852 94.6359 66.6797 96.3165C72.0824 100.858 72.3741 103.997 67.5686 105.733C67.4436 114.038 60.9576 116.733 53.416 114.455C52.8743 118.33 46.5966 120.899 43.4022 120.122C42.3606 122.33 41.93 124.858 42.1106 127.733C33.194 131.746 31.3329 134.149 32.1663 144.191C29.8746 150.107 27.0691 155.885 23.7358 161.538C26.7774 167.399 20.597 170.635 15.0276 168.94C11.9165 173.551 4.59716 174.677 0 172.329V121.663L1.61109 118.038L65.2214 91.3164L66.6658 92.3302L66.6797 92.3163Z" fill="#A7C37D"/>
<path d="M73.3463 97.6496C76.7073 95.9413 78.4018 98.7883 76.0129 101.649C74.2768 104.344 73.4574 107.469 73.5685 110.996L69.5547 113.997C69.4436 122.969 68.5963 125.608 59.3881 126.108C65.1658 131.066 61.152 135.704 54.541 135.677C57.902 142.76 53.4299 145.357 46.9161 146.566L45.3466 149.663L45.1105 152.857C37.3329 156.288 34.4301 161.704 34.2635 170.023C36.069 179.162 33.7773 186.009 27.4163 190.565C19.3331 186.926 10.986 183.815 2.05553 183.343L0 180.343V172.343C2.97218 169.899 6.8888 171.01 9.26377 170.274C12.6248 169.218 13.2359 166.01 13.5276 165.912C14.6109 165.565 20.3192 169.246 22.6664 163.663C21.1247 163.774 19.7359 160.329 19.1386 160.26C16.8609 159.996 14.1387 163.635 14.6804 159.69C18.2498 154.149 19.2081 159.19 23.9997 158.996C21.6942 153.843 23.8747 155.593 24.3747 154.982C28.4302 150.01 19.6247 154.51 17.347 153.01C20.0275 149.079 23.6941 149.385 27.9996 149.663C29.3607 144.496 22.9997 149.01 22.6803 145.69C25.1525 142.538 29.0691 144.621 29.333 144.343C30.1802 143.44 29.2496 136.538 29.7218 134.718C30.9163 130.066 36.5134 129.982 33.3746 126.316C39.9995 129.718 43.0828 125.733 36.0134 122.344C36.8329 120.108 39.555 121.746 39.7912 121.413C41.9995 118.344 38.9023 114.038 46.6661 119.01C46.43 115.566 43.43 112.427 47.3605 109.705C46.7077 116.33 51.2216 120.955 50.6938 111.01C51.0549 110.594 56.1937 113.83 57.3465 110.344C57.4993 109.899 51.4716 108.677 54.6937 103.01C59.652 101.913 57.402 112.247 58.6937 113.677C60.2214 112.886 67.0686 108.872 65.3325 107.011C64.8603 106.511 62.527 108.441 61.3187 107.747C59.8742 106.927 59.5409 103.483 60.0131 103.01C60.4853 102.538 67.513 103.344 69.3324 102.997C69.5408 100.483 64.402 100.886 64.0131 100.33C62.5686 98.2328 66.5964 96.5941 66.6797 96.3441C67.0269 92.358 73.4157 93.8857 73.3463 97.6774V97.6496Z" fill="#A2BE79"/>
<path d="M65.3464 89.6498C67.2352 87.5943 68.1241 88.4831 66.6797 90.9831C67.8464 91.3581 67.8325 91.8025 66.6797 92.3163L0.0138887 121.649V114.983L65.3464 89.6498Z" fill="#9CB77C"/>
<path d="M73.3463 66.9833C76.9574 61.8723 82.4156 64.0391 85.3322 62.303C86.485 61.6224 87.0822 58.9419 88.8044 57.7892C99.5265 50.5948 105.013 71.0389 111.999 72.3167C115.929 72.3584 115.707 76.6775 111.999 77.6497C114.096 80.1358 114.012 80.4138 110.665 80.3166C108.818 83.3027 107.929 86.8581 107.999 90.983C109.165 91.3164 109.137 91.7608 107.999 92.3163C113.874 100.483 96.1793 104.886 93.3321 98.9829C90.2766 96.8163 88.86 95.983 85.3322 97.6497C87.2906 98.7191 86.8461 99.6079 83.9989 100.316C83.4573 104.205 77.7351 105.191 75.999 101.649C75.499 100.413 73.5407 98.6913 73.3324 97.6497L70.5824 96.2886C70.5547 94.7609 69.2491 92.9969 66.6658 90.983C66.5686 90.9553 66.3742 90.1081 65.3325 89.6498C62.9714 88.5942 59.4854 87.5386 61.3464 84.3164C61.4298 84.1775 63.8325 85.9137 64.6797 84.4415C65.5269 82.9693 65.1658 80.5524 66.0408 78.9969C67.1519 77.0247 69.6519 77.0665 70.6519 75.2887C71.763 73.3165 71.6102 69.4277 73.3324 66.9833H73.3463Z" fill="#FBF3F5"/>
<path d="M66.6797 90.9831C68.1936 91.372 72.9018 90.5247 73.3602 90.9831C73.7629 91.3858 73.0407 96.1081 73.3602 97.6636L66.6936 96.3304C66.763 96.1359 65.3464 93.5247 66.6936 92.3302V90.997L66.6797 90.9831Z" fill="#C5D5AB"/>
<path d="M84.0128 100.316C86.8183 97.483 95.3737 99.7608 94.6792 104.316C98.4292 104.288 101.985 103.844 105.346 102.983C105.679 101.844 106.124 101.872 106.679 102.983C113.874 101.969 114.79 102.566 116.665 109.844L114.678 112.316C114.303 112.427 110.082 114.261 108.012 114.983C102.54 106.164 99.79 107.233 104.012 116.316C102.804 116.83 100.304 118.205 98.6787 118.983C96.7343 115.714 96.7343 115.714 98.6787 118.983C88.3594 123.969 80.7073 134.33 75.5962 137.163C69.4019 140.607 58.9298 143.649 52.0271 146.983H50.6938C49.1383 147.76 46.6383 148.941 45.3605 149.649C43.2356 141.927 35.8329 149.58 34.7079 148.316C32.2774 145.58 37.3745 143.746 37.8328 143.01C38.6523 141.705 37.9162 138.871 40.7078 137.677C43.43 139.691 46.7911 146.246 50.7493 143.732C55.9715 140.399 50.7216 134.983 50.7493 134.316C50.8605 131.399 58.777 134.885 60.027 130.33C47.8049 119.566 62.5131 125.358 66.0686 121.677C69.2352 118.413 63.2631 119.622 64.0686 117.677C67.9436 118.358 66.1242 114.441 67.4019 112.386C68.2769 110.983 70.8463 110.65 71.4157 109.719C73.2629 106.719 65.7908 104.233 76.0546 101.65C77.9018 101.191 81.9851 100.58 84.0545 100.316H84.0128Z" fill="#9FBB76"/>
<path d="M94.6794 72.3169C97.5682 73.0808 98.6237 80.1083 97.6932 82.6222C96.0404 87.0805 90.4988 88.1917 86.6795 89.65C84.9434 89.8583 84.0545 89.4139 84.0128 88.3167C80.4017 84.9556 83.0684 76.664 86.6795 73.6501C86.5822 70.7335 92.1238 71.1919 94.6794 72.3169Z" fill="#FBC813"/>
<path d="M94.6794 72.3169C91.3738 71.4419 89.3044 72.6224 86.6795 73.6501C82.7906 78.539 81.2906 82.9418 84.0128 88.3167C84.985 88.6223 86.3322 88.1778 86.6795 89.65C82.3184 91.3166 79.249 94.9555 77.5823 87.2751C76.999 84.6084 78.4851 83.4555 78.5545 82.2194C78.5823 81.4972 76.2629 81.9001 76.2351 81.0529C76.1657 79.5807 77.999 77.4139 76.0268 74.9973C81.374 77.5945 80.1795 73.5251 82.2767 72.2474C84.9434 70.6224 91.9988 69.8725 94.6932 72.3308L94.6794 72.3169Z" fill="#F1E3DB"/>
<path d="M108.013 92.3163C113.485 94.2191 110.915 103.094 106.679 102.983C106.596 102.788 105.499 103.177 105.346 102.983C101.943 103.774 98.3875 104.219 94.6792 104.316C89.0543 102.233 92.1794 99.2886 84.0128 100.316C84.4989 99.4552 84.8179 98.4831 85.3457 97.6498C88.1374 95.5665 90.9012 96.6776 93.3456 98.9831C99.9983 100.275 106.374 101.163 108.013 92.3163Z" fill="#BCCB9D"/>
<path d="M86.6795 73.6501L84.0128 88.3167C80.3045 87.1362 79.5962 86.2471 80.249 81.3444C80.9017 76.4417 82.5823 75.2612 86.6795 73.6501Z" fill="#EEBD15"/>
<path d="M345.343 144.315C347.523 147.065 349.301 162.315 348.384 165.913C348.259 166.385 347.551 166.704 346.676 166.982C347.44 169.579 347.44 171.801 346.676 173.649L343.232 173.496C334.676 160.635 329.412 146.177 327.44 130.149C327.44 127.149 322.038 130.288 321.26 131.677C317.149 139.038 332.593 168.204 336.76 175.19L336.01 178.996C334.051 184.426 327.537 184.301 322.676 182.996C322.329 185.662 317.093 184.787 314.677 184.329C313.26 186.509 311.927 187.398 310.677 186.995C308.815 189.343 307.927 189.343 308.01 186.995C305.829 188.134 303.246 188.62 304.01 185.662L300.232 184.787C293.246 170.454 289.594 155.093 289.274 138.677C272.122 141.469 285.399 171.801 290.469 182.176L289.344 185.662C287.177 186.537 285.01 185.204 282.844 181.649L271.163 164.176C268.024 159.301 263.858 155.788 258.663 153.649C254.83 151.899 256.886 148.635 260.538 147.427C269.649 147.427 269.135 142.913 263.816 137.302C267.802 130.691 265.26 128.552 256.177 130.871L254.011 129.385C250.427 119.705 243.552 120.566 240.4 129.983C237.9 133.177 234.108 135.413 231.997 130.983C228.178 127.01 234.955 123.302 238.664 122.983V118.982C237.483 118.649 237.511 118.191 238.664 117.649L242.664 114.983C243.219 113.997 244.066 113.01 245.108 113.149C252.497 114.108 259.274 116.566 265.149 120.288C268.288 117.858 270.733 114.163 272.496 109.219C275.455 110.205 278.399 110.788 281.33 110.983C289.58 117.066 293.83 101.497 299.941 99.5661C311.829 95.7884 324.913 116.774 331.954 123.705C334.398 126.108 342.468 130.913 343.329 132.33C343.69 132.927 345.065 142.371 345.343 144.315Z" fill="#A3BF7A"/>
<path d="M281.344 110.983L277.358 118.983C277.733 115.705 276.802 112.135 273.358 110.983C272.358 115.927 270.649 122.58 264.566 123.038C261.997 123.233 262.885 120.372 262.094 120.427C253.219 120.955 259.024 119.163 255.163 117.872C252.247 116.9 245.969 116.802 242.677 114.997C241.566 114.386 237.469 111.191 238.691 109.663L246.65 110.33C243.927 108.413 241.011 106.955 241.344 103.011C241.914 102.483 248.788 103.344 249.886 104.177C251.622 105.497 249.413 108.691 251.983 108.33L253.302 105.038C255.358 107.774 257.233 106.386 259.983 105.664L256.649 100.358L266.635 109.691C266.969 104.872 262.247 100.386 266.635 96.3578C267.844 97.0106 268.899 96.8719 270.677 98.2607C274.733 101.427 279.094 109.386 281.302 111.024L281.344 110.983Z" fill="#9FBA76"/>
<path d="M304.01 185.648C302.885 188.371 295.885 191.662 293.343 189.648C292.607 188.093 290.51 186.815 289.344 185.648C283.177 174.94 270.51 143.996 284.857 136.51C295.677 130.871 292.33 148.968 293.468 155.51C295.232 165.663 297.941 177.176 303.996 185.648H304.01Z" fill="#91CB5B"/>
<path d="M304.01 185.648C304.218 185.648 306.01 186.746 308.01 186.982C307.607 187.426 307.204 188.051 306.677 188.315C306.191 192.635 299.441 194.01 296.01 192.315C295.316 192.565 294.038 192.079 293.343 192.315C293.177 191.523 293.593 190.19 293.343 189.648C297.607 188.648 299.177 185.454 304.01 185.648Z" fill="#7FB04B"/>
<path d="M174.678 102.983C177.651 100.386 179.137 102.511 177.345 105.65C179.706 108.997 173.789 113.136 170.692 114.358C155.498 114.65 140.123 116.899 126.109 123.233L120.012 122.983L119.471 125.177C104.957 132.885 93.4016 141.191 82.4434 153.649H78.6795C76.1657 152.371 77.5546 149.232 78.3601 147.344C81.5406 139.927 91.1099 131.455 97.3321 126.316C97.5404 125.33 95.9571 125.413 95.3599 125.677C92.4294 126.913 85.235 132.649 82.3878 134.996C78.3601 138.302 77.2351 141.955 71.0824 145.413C64.4992 149.121 43.7633 155.468 39.9578 159.621C33.069 167.135 39.0273 189.621 33.3607 193.023C28.1246 196.176 8.63878 182.621 0.0138887 186.996V180.329C9.86098 181.843 18.7359 182.69 27.3608 188.287C29.5552 187.371 28.0413 185.19 28.458 184.635C29.3607 183.454 31.9301 183.44 32.8051 180.385C33.4579 178.093 31.6802 174.579 31.8885 171.649C32.8885 157.705 33.444 156.288 45.3466 149.649C43.6939 145.899 47.9851 144.482 50.6796 146.982H52.0129L52.2493 144.913C69.0824 138.455 80.8601 130.455 94.2766 118.344C94.9432 117.816 96.4154 118.024 98.6654 118.983C98.5682 115.399 100.346 114.511 103.999 116.316C103.374 112.511 105.957 111.788 107.999 114.983C110.61 110.663 112.832 109.775 114.665 112.316C115.387 107.747 119.568 107.816 122.735 109.983L127.998 109.649L130.429 106.414C144.498 104.261 158.401 102.608 172.151 101.469L174.678 102.983Z" fill="#97B26F"/>
<path d="M228.01 61.6499L230.469 64.2472C236.441 60.7889 241.969 59.525 247.052 60.4556C247.344 64.0666 246.775 68.0252 245.344 72.3168C246.58 74.0945 245.913 74.8304 244.011 73.6498C244.58 74.2471 244.136 74.6916 242.677 74.9833C244.025 75.761 243.344 78.8442 241.344 77.6498C239.997 80.1914 241.163 82.6082 242.677 82.9832C243.066 81.8165 243.511 81.8304 244.011 82.9832C252.483 78.1221 250.788 87.1774 242.344 88.1913C238.191 94.094 233.386 95.0245 231.566 87.1357C228.58 91.4968 225.567 88.4136 223.983 84.497C219.469 87.3998 214.011 88.3303 207.608 87.3026C209.053 91.5664 206.525 93.2328 200.025 92.3023C199.72 94.955 198.386 94.8439 197.359 92.3023C195.622 88.2051 191.095 84.5664 186.234 87.9136C182.956 86.983 181.331 89.33 181.359 94.9688C182.998 97.9549 177.609 104.274 174.692 102.969C168.734 107.552 158.512 104.872 151.387 105.663C144.262 106.455 135.22 108.094 128.026 109.635C121.457 110.691 114.943 110.677 121.304 103.649C117.012 99.5243 126.401 90.6217 130.373 87.3578C136.359 84.6912 144.526 80.5248 144.29 73.6498C147.498 73.136 150.068 71.3581 152.026 68.3026L152.123 66.6638L173.359 64.3028C175.331 64.1361 182.109 61.7748 184.025 61.6359C184.9 60.6359 185.789 61.0806 186.692 62.9695C186.428 60.1084 188.65 59.6637 193.359 61.6359C194.47 57.7887 195.428 58.3582 197.359 61.6359C201.303 58.2054 203.97 58.2054 205.358 61.6359C205.539 59.2748 213.761 57.9554 216.525 57.8304C222.817 56.636 226.65 57.9137 228.025 61.6359L228.01 61.6499Z" fill="#AAC680"/>
<path d="M117.345 172.315C119.387 170.815 120.72 170.815 121.345 172.315L123.86 170.024L133.498 172.371C145.234 169.149 156.873 168.885 168.415 171.538L170.678 174.982C173.553 174.621 174.192 180.121 172.012 181.649L169.97 183.843C161.54 179.913 153.609 179.301 146.165 182.01C140.665 186.343 126.04 183.107 122.679 177.648C117.054 176.732 105.096 173.982 101.249 179.551C99.6237 181.899 97.1793 197.343 95.6654 201.954C94.7627 204.69 93.2349 207.079 92.0266 209.648L90.9711 212.509C74.7352 214.384 73.0685 216.412 68.8047 231.94C65.9158 238.217 55.3743 242.467 50.6938 237.648C37.7912 235.745 25.3886 221.731 12.0276 232.315C11.9998 232.176 10.8193 229.731 10.6943 229.648C8.97211 227.44 10.0693 226.301 12.0971 225.079C23.8886 217.968 36.6801 231.328 48.6799 231.564C68.9713 231.953 62.7075 211.981 69.9158 206.87C74.7352 203.468 86.0961 207.356 90.7072 202.329C94.7766 197.898 95.5959 188.843 97.3459 182.968C92.8598 176.649 99.3042 171.121 105.346 172.302C107.04 168.496 116.124 168.065 117.346 172.301L117.345 172.315Z" fill="#95AF6D"/>
<path d="M172.012 181.649C175.276 185.287 178.553 195.982 176.012 200.315C173.734 202.634 174.234 198.718 174.276 198.912C175.637 204.745 171.039 206.593 166.678 204.315L163.053 203.384L156.04 189.898C152.234 179.996 144.165 184.19 148.581 192.634L146.679 194.995L145.609 197.662C136.512 199.996 134.457 206.94 145.345 207.732C149.193 211.426 146.276 217.509 141.345 213.676C139.929 214.593 139.29 213.87 140.012 212.342H138.679C135.179 213.467 132.651 212.301 133.346 208.343C132.623 207.343 131.734 206.898 130.679 207.009C128.943 208.718 125.471 206.87 126.679 204.343L133.346 202.343C125.36 197.87 121.373 186.676 122.679 177.676C128.318 178.593 133.832 181.079 139.512 181.468C145.901 181.912 151.887 177.579 157.901 177.801C161.859 177.94 167.956 180.635 172.012 181.676V181.649Z" fill="#9CB773"/>
<path d="M213.344 100.316C215.358 103.636 211.539 111.552 207.122 110.539C207.47 117.08 200.622 122.261 197.678 114.733L189.123 120.774C182.762 117.427 179.831 118.539 180.317 124.094C186.012 130.372 181.762 132.844 174.984 132.219C171.998 138.733 159.679 141.455 156.29 134.302L153.095 134.858C155.609 140.566 150.47 143.163 145.47 141.705C137.498 138.233 132.915 137.705 139.887 146.857C144.29 155.427 131.526 165.524 130.623 152.469L126.471 150.871C124.485 154.454 121.443 157.149 117.346 158.968L116.012 161.635C118.818 164.732 114.887 170.107 112.012 164.302L109.374 160.343C109.999 165.996 102.638 160.371 100.026 158.288L104.013 156.288L101.36 154.302C108.651 149.871 99.6654 146.483 105.36 140.302L101.36 137.636C105.415 135.747 106.999 139.899 107.332 139.983C109.151 140.441 112.526 139.51 115.124 140.552C116.651 141.177 118.596 146.746 121.346 144.288C122.582 143.177 108.915 128.983 122.679 126.969C123.276 129.121 120.387 127.816 119.985 128.941C119.207 131.108 119.776 133.094 122.665 132.274L126.693 125.635L120.026 122.955C134.207 116.594 142.179 114.191 158.04 112.303C171.22 110.733 167.137 115.483 177.359 105.622C177.914 96.1082 188.775 95.1361 196.803 94.9555C201.525 94.8583 211.747 95.6914 213.358 100.289L213.344 100.316Z" fill="#A6C27C"/>
<path d="M260.01 93.6496C261.357 95.719 261.621 96.0245 264.01 94.9829C265.149 95.3579 265.747 95.8026 266.677 96.3165C267.191 96.7748 267.608 97.2467 267.691 97.7884C268.191 100.636 269.538 109.247 267.83 110.358C266.76 111.052 265.483 111.163 264.233 111.038C261.33 107.858 256.816 107.608 250.663 110.274C247.677 106.316 242.9 101.83 247.622 109.775C245.289 111.65 243.636 113.385 242.664 114.983C245.177 117.997 241.33 120.219 238.664 117.649C236.761 118.358 235.553 117.802 234.678 116.191C231.386 121.26 226.025 122.858 223.844 116.08C216.261 114.65 212.247 114.08 207.831 121.135C218.067 121.788 212.247 130.788 204.081 129.635C207.706 134.996 204.303 142.371 197.817 137.816C196.303 140.607 193.47 141.441 189.331 140.316C188.817 141.83 187.011 142.76 183.956 143.094C181.859 145.107 180.095 145.969 178.664 145.649C176.206 150.746 173.373 155.121 170.164 158.76C167.581 156.274 165.053 155.163 162.581 155.427C154.151 151.774 147.915 156.816 141.623 162.802C137.554 164.51 133.554 165.788 129.637 166.663C123.735 158.718 120.915 161.426 119.998 169.649C120.873 171.01 119.985 171.899 117.332 172.315C113.401 171.927 109.262 172.649 105.332 172.315C101.401 171.982 101.124 170.621 97.9849 168.329L99.9848 172.302C94.5821 173.232 97.346 167.996 91.9988 170.968C95.0821 166.691 89.86 164.857 91.9988 160.315L95.3182 164.302C97.221 158.691 98.3876 162.024 100.665 165.635L102.665 161.635C105.888 163.732 108.151 164.357 111.985 164.316C117.623 164.246 114.929 164.149 115.985 161.649L117.318 158.982C117.373 157.066 115.429 154.593 115.999 152.315C117.79 152.538 119.373 155.232 121.318 154.33C125.429 152.413 118.846 152.468 119.998 150.996L125.318 148.968L121.332 148.288L124.026 144.316C125.596 143.371 126.568 150.371 131.29 149.705L135.332 146.969C135.762 151.08 132.457 149.343 133.318 155.635C133.748 158.802 138.984 153.371 138.137 149.649C137.762 147.996 134.137 142.288 132.651 141.649L130.679 145.635C127.179 141.691 135.345 137.01 138.276 136.608C141.207 136.205 149.415 142.996 151.984 136.969L145.331 136.302L147.984 129.649L141.332 130.969C142.304 127.51 146.109 128.135 148.679 127.038C149.22 127.177 148.568 131.746 149.345 132.33C150.415 133.121 161.887 130.469 163.984 129.663L159.304 133.649C156.22 137.482 176.234 136.427 171.998 128.316C173.095 128.816 179.678 129.927 179.97 129.649C182.456 127.358 177.539 126.913 177.539 126.385C177.525 124.955 177.803 119.052 178.567 118.33C180.984 116.01 186.734 114.747 187.303 118.996C191.72 115.58 199.72 107.066 200.636 116.316C206.428 115.024 203.358 110.052 204.608 108.316C206.039 106.316 208.664 108.83 209.206 108.316C209.539 108.011 210.775 101.552 213.303 100.33C216.761 101.066 220.567 102.011 223.969 102.997L230.705 103.733C231.455 109.747 228.969 107.649 230.636 102.997C233.928 102.413 238.65 99.0942 242.636 97.6636L250.636 94.9967C251.413 94.8301 252.455 95.1356 253.302 94.9967L255.969 93.6635C257.247 93.5802 258.691 93.5663 259.969 93.6635L260.01 93.6496Z" fill="#A2BD78"/>
<path d="M170.678 174.982C163.706 172.746 157.317 171.899 149.943 172.26C144.081 172.551 137.845 175.163 132.734 175.024C128.943 174.926 124.956 172.565 121.345 172.315C118.831 171.76 118.387 170.871 120.012 169.649C118.818 167.912 116.971 166.149 117.276 163.801C117.374 163.065 119.179 163.065 119.526 162.482C120.304 161.19 119.86 159.246 120.054 159.038C120.276 158.788 126.415 159.579 126.693 159.76C131.457 162.899 130.734 170.468 135.332 157.663C136.193 166.857 142.734 157.732 145.47 155.788C148.456 153.677 150.512 157.163 147.998 150.996C149.915 151.246 157.679 152.58 158.72 151.774C160.29 150.566 159.72 147.33 160.012 146.982C160.428 146.496 163.067 146.038 162.526 148.843C161.151 155.954 163.165 151.524 166.581 152.982C168.165 153.663 169.206 156.802 171.303 156.316C172.095 156.135 176.595 147.788 178.664 145.649C173.901 154.732 170.081 164.482 170.664 174.982L170.678 174.982Z" fill="#99B471"/>
<path d="M166.678 204.315L168.581 204.023C172.456 209.231 176.706 214.217 181.345 218.981C182.303 222.023 183.123 225.842 184.012 228.314C183.873 229.62 183.65 231.564 182.706 231.801C173.553 234.203 162.915 222.759 157.387 216.343C153.22 211.509 143.568 200.287 146.679 194.968C143.137 186.801 143.068 183.607 152.498 180.482C158.929 187.19 161.72 196.162 166.678 204.301V204.315Z" fill="#91CB5B"/>
<path d="M146.679 194.982C149.97 202.579 158.095 213.898 163.998 219.662C168.609 224.176 177.414 232.717 184.012 228.314C184.595 229.939 185.9 232.995 186.678 234.981C178.331 238.19 169.887 235.967 161.345 228.315C155.151 223.009 149.081 219.593 142.678 214.982C142.192 214.634 141.845 213.995 141.345 213.648C144.275 214.357 145.165 210.634 144.026 209.662C143.79 209.454 140.207 210.037 137.929 208.426C130.582 203.218 139.901 194.496 146.679 194.982Z" fill="#A1BC78"/>
<path d="M176.012 200.315C176.067 200.746 175.97 201.204 176.012 201.648L177.345 205.648C178.623 210.037 179.97 214.62 181.345 218.981C180.262 221.551 176.151 217.134 175.317 216.343C170.373 211.732 169.831 209.482 166.678 204.315C167.942 202.162 171.97 202.537 173.081 201.44C173.359 201.176 172.012 193.829 176.012 200.315Z" fill="#A3C07A"/>
<path d="M189.345 140.316C198.303 137.441 194.456 135.233 196.025 133.649C197.997 131.649 199.997 139.024 202.664 136.316C202.845 136.121 202.845 131.344 202.664 130.983C202.567 130.802 198.636 132.705 198.706 130.316C198.859 124.261 207.733 129.233 210.664 124.955C211.289 120.844 208.386 125.094 206.664 123.719C205.233 122.566 205.081 121.497 205.303 119.733C205.372 119.219 212.344 112.58 212.844 112.441C213.511 112.261 225.928 113.275 226.428 113.983C227.539 115.58 224.997 118.872 230.011 117.649C231.011 117.413 234.275 108.219 238.664 117.622C238.802 117.927 238.566 118.483 238.664 118.955V122.955C236.483 128.774 234.191 125.399 231.997 130.955C235.539 137.635 236.955 144.857 236.247 152.621L234.664 153.621C239.219 155.899 240.108 158.121 237.33 160.288C235.928 163.565 226.261 166.024 222.664 165.621C213.886 153.357 203.733 145.121 189.331 140.288L189.345 140.316Z" fill="#9FBA76"/>
<path d="M256.011 158.982C262.622 158.982 263.108 171.066 262.774 176.51C262.608 179.413 257.927 201.982 256.788 203.898L253.344 206.968C250.275 208.204 246.816 210.468 244.011 212.301C243.191 209.746 243.164 207.079 242.677 205.635C242.483 203.857 242.483 202.079 242.677 200.301L240.9 199.468C243.719 188.607 244.525 177.704 243.33 166.774L245.358 162.968C245.122 159.205 254.483 156.163 256.024 158.968L256.011 158.982Z" fill="#91CA5B"/>
<path d="M242.677 200.315C244.163 202.926 241.774 204.079 240.01 201.648C236.302 191.704 233.497 183.051 228.011 173.649C222.692 163.871 239.191 160.01 245.344 162.982C246.705 169.718 247.233 176.746 246.663 183.621C246.358 187.26 242.135 199.648 242.677 200.315Z" fill="#A5C17B"/>
<path d="M289.344 185.648C292.343 182.871 295.857 186.315 293.343 189.648C296.941 190.148 296.788 191.301 293.343 192.315C291.163 193.065 287.774 194.12 285.344 194.981L285.385 191.482C283.121 187.024 265.51 162.371 261.858 160.662C258.913 161.26 256.969 160.704 256.011 158.982C249.511 160.135 249.663 161.454 245.344 162.982C238.789 165.302 228.108 164.218 228.011 173.649C226.58 171.19 224.372 168.024 222.678 165.649C227.33 160.274 231.788 161.454 237.344 160.315C239.427 155.357 247.219 154.982 252.01 156.316C250.899 152.552 256.747 150.218 258.677 153.649C261.163 153.232 263.899 153.288 265.997 155.01C270.719 158.899 277.413 173.149 282.135 178.871C284.524 181.773 287.01 183.315 289.357 185.648L289.344 185.648Z" fill="#95B06E"/>
<path d="M186.678 234.981C186.831 235.37 186.525 235.926 186.678 236.314L174.678 240.315C170.248 236.495 165.748 232.079 161.345 228.315C169.137 230.898 178.428 236.217 186.678 234.981Z" fill="#93AF6C"/>
<path d="M232.011 130.983C240.761 132.038 238.719 121.483 244.677 120.302C255.219 118.219 254.65 128.01 256.913 128.413C259.913 128.955 263.01 125.552 266.108 128.163C268.76 130.399 269.566 136.219 265.344 136.969C271.844 140.232 272.566 145.788 265.774 149.538C262.177 151.524 259.913 147.288 258.677 153.649C257.455 153.857 254.149 155.663 252.01 156.316C247.121 155.996 242.247 156.315 237.372 157.302L234.677 153.649C233.372 148.44 234.511 146.857 234.08 143.607C233.566 139.691 228.636 139.538 232.011 130.983Z" fill="#FBF5F2"/>
<path d="M256.011 158.982C260.316 158.218 260.983 155.969 265.899 160.427C274.399 168.121 281.316 184.954 290.663 192.982L285.33 194.982C275.163 198.565 263.538 202.843 253.33 206.982L259.969 178.301C260.594 170.343 259.969 165.816 255.997 158.982L256.011 158.982Z" fill="#A1BD78"/>
<path d="M254.344 132.677C254.622 132.788 258.455 136.871 258.538 137.163C261.372 146.538 238.983 149.274 241.608 138.649C242.844 133.649 249.83 130.802 254.344 132.663V132.677Z" fill="#F8E510"/>
<path d="M122.679 177.648L125.151 179.551C124.762 187.176 127.595 195.329 134.109 199.69C135.942 205.259 131.109 205.718 126.678 204.315L125.47 205.787C114.707 203.843 108.54 211.607 106.957 229.065L99.6234 263.342C94.3457 277.814 80.0959 278.37 67.8321 272.717L44.8463 262.842C40.7075 261.12 39.5405 261.606 41.3461 264.314L41.5269 267.356C38.7214 269.161 37.5131 271.897 37.777 275.189C43.4436 268.689 50.6657 275.828 51.0129 282.689C53.874 282.745 55.3184 284.605 55.7906 287.328C68.3877 282.022 68.846 297.3 58.6656 301.661C58.7073 303.105 58.6656 304.73 57.7073 305.911C54.5684 309.883 29.4299 325.841 23.291 329.424L18.6661 329.661C16.7495 332.647 13.9717 335.008 10.6662 336.327C11.9162 338.98 9.69399 340.758 3.99962 341.66H0.0135632V270.995L1.80521 270.564C14.8467 278.161 19.7772 263.967 19.9439 252.828L21.3327 250.995C19.8883 250.898 18.2356 244.203 17.9856 242.203C17.9022 241.62 18.2356 240.981 18.6661 240.329C15.2356 239.037 13.5273 236.815 11.9995 233.662C10.8468 233.217 10.8468 232.773 11.9995 232.329C10.6662 226.912 18.8605 225.731 23.2216 225.912C25.0827 225.995 47.9852 233.745 49.7629 234.787L50.6657 237.662C51.0685 240.134 56.5406 240.078 59.8045 239.203C68.096 232.19 69.4155 238.759 69.7349 246.662C72.096 244.94 74.3598 243.134 76.5265 241.245C73.0404 237.856 74.3737 233.912 77.1792 230.453C71.9015 226.44 69.2627 219.079 78.0681 219.954C81.8875 216.315 87.0541 214.204 89.4291 220.329C98.2762 220.912 99.5401 217.759 92.1096 212.44L91.9985 209.662L90.3735 206.926C94.9012 197.426 98.5123 187.454 101.179 176.996C105.332 173.496 120.165 172.357 122.665 177.662L122.679 177.648Z" fill="#A1BC78"/>
<path d="M496.007 122.983C508.646 129.802 520.951 137.066 533.326 144.33L526.673 146.982C516.285 147.982 505.91 147.455 496.007 148.316C495.118 148.316 494.23 148.316 493.341 148.316C492.507 147.108 490.855 143.635 490.466 142.455C488.563 136.76 487.716 134.066 491.938 129.08C490.202 122.538 491.563 120.511 496.007 122.983Z" fill="#ADC982"/>
<path d="M496.007 122.983C491.257 122.288 495.465 126.024 494.41 129.969C494.215 130.691 487.452 139.871 492.66 137.649C494.465 136.872 495.576 132.885 498.674 133.663C500.132 138.635 493.451 139.066 493.257 139.746C492.674 141.816 493.813 145.83 493.34 148.33C489.118 148.344 490.91 147.288 490.66 142.996L486.688 144.329C489.646 130.732 484.743 138.733 480.41 140.08C477.521 140.969 473.757 140.08 470.688 140.33C469.98 138.469 476.077 139.149 473.341 136.343C472.632 135.621 468.855 140.579 467.341 137.677C466.466 135.774 468.966 133.955 468.771 131.705C468.591 129.663 463.327 123.052 466.688 121.677L468.688 127.024C468.646 123.51 472.743 124.858 473.354 124.33C474.507 123.344 467.396 117.094 478.688 118.996L477.354 113.677C483.757 116.788 489.729 119.622 496.021 123.011L496.007 122.983Z" fill="#A7C37D"/>
<path d="M465.341 129.663C465.133 133.483 462.619 138.496 460.675 132.302L459.994 136.33C450.05 132.58 461.272 133.163 458.675 128.33L465.355 129.663H465.341Z" fill="#A7C37D"/>
</svg>
