<svg width="219" height="63" viewBox="0 0 219 63" fill="none" xmlns="http://www.w3.org/2000/svg">
<path d="M0 0C71.9585 0 143.917 0 218.056 0C218.365 20.9978 218.192 42 218.192 63C146.189 63 74.1852 63 0 63C0 42.21 0 21.42 0 0ZM105.934 3.42463C105.837 3.42472 105.74 3.42481 105.64 3.42491C95.8727 3.43415 86.1058 3.44381 68.8949 3.46137C68.1962 3.46208 67.4976 3.4628 66.7989 3.46351C61.042 3.46941 55.2851 3.47533 49.5282 3.4813C48.8324 3.48202 48.1365 3.48274 47.4407 3.48346C32.8491 3.49859 18.2575 3.51446 3.66595 3.53017C3.66595 21.9903 3.66595 40.4503 3.66595 59.4698C25.7798 59.4937 25.7798 59.4937 47.8937 59.517C48.5304 59.5177 49.1671 59.5183 49.8039 59.519C55.5661 59.525 61.3283 59.5309 67.0906 59.5368C67.7886 59.5375 68.4867 59.5382 69.1848 59.5389C78.9808 59.549 88.7768 59.5589 105.925 59.5754C106.022 59.5755 106.119 59.5756 106.219 59.5756C116.64 59.5855 127.06 59.5951 186.466 59.6141C186.848 59.6141 187.231 59.614 187.613 59.614C196.675 59.6126 205.736 59.6101 214.797 59.6056C214.802 55.8887 214.804 52.1719 214.806 48.455C214.806 48.313 214.806 48.1711 214.806 48.0248C214.81 37.6284 214.78 27.2324 214.73 16.8362C214.728 16.5827 214.728 16.5827 214.727 16.3241C214.706 12.0142 214.685 7.70429 214.662 3.3944C205.527 3.3898 196.392 3.38738 187.257 3.386C186.876 3.38594 186.495 3.38588 186.114 3.38582C175.145 3.38409 164.176 3.38472 105.934 3.42463Z" fill="#FBFBFB"/>
<path d="M52.9526 12.8987C62.0482 12.8987 71.1438 12.8987 80.5151 12.8987C80.5151 25.2204 80.5151 37.542 80.5151 50.2371C77.8267 50.2371 75.1384 50.2371 72.3685 50.2371C72.3685 45.5324 72.3685 40.8278 72.3685 35.9806C68.6944 35.9806 65.0203 35.9806 61.2349 35.9806C61.2349 40.6852 61.2349 45.3899 61.2349 50.2371C58.5017 50.2371 55.7686 50.2371 52.9526 50.2371C52.9526 45.5324 52.9526 40.8278 52.9526 35.9806C49.861 35.9806 46.7694 35.9806 43.5841 35.9806C43.5841 33.2474 43.5841 30.5143 43.5841 27.6983C46.6757 27.6983 49.7673 27.6983 52.9526 27.6983C52.9526 22.8144 52.9526 17.9306 52.9526 12.8987ZM61.2349 21.181C61.2349 23.3317 61.2349 25.4824 61.2349 27.6983C64.909 27.6983 68.5831 27.6983 72.3685 27.6983C72.3685 25.5476 72.3685 23.3969 72.3685 21.181C68.6944 21.181 65.0203 21.181 61.2349 21.181Z" fill="#FBFBFB"/>
<path d="M86.625 12.8987C95.7654 12.8987 104.906 12.8987 114.323 12.8987C114.323 15.6319 114.323 18.365 114.323 21.181C107.871 21.181 101.419 21.181 94.7716 21.181C94.7716 23.3317 94.7716 25.4824 94.7716 27.6983C101.224 27.6983 107.676 27.6983 114.323 27.6983C114.323 35.1361 114.323 42.5739 114.323 50.2371C105.183 50.2371 96.0424 50.2371 86.625 50.2371C86.625 47.5039 86.625 44.7707 86.625 41.9547C93.0323 41.9547 99.4395 41.9547 106.041 41.9547C106.041 39.9833 106.041 38.0118 106.041 35.9806C99.6337 35.9806 93.2264 35.9806 86.625 35.9806C86.625 28.3636 86.625 20.7466 86.625 12.8987Z" fill="#FBFBFB"/>
<path d="M143.922 12.8987C146.611 12.8987 149.299 12.8987 152.069 12.8987C152.069 22.4872 152.069 32.0757 152.069 41.9547C155.698 41.9547 159.328 41.9547 163.067 41.9547C163.067 32.3662 163.067 22.7778 163.067 12.8987C166.069 12.8987 169.071 12.8987 172.164 12.8987C172.164 25.2204 172.164 37.542 172.164 50.2371C162.844 50.2371 153.524 50.2371 143.922 50.2371C143.922 37.9154 143.922 25.5938 143.922 12.8987Z" fill="#FBFBFB"/>
<path d="M177.323 12.8987C186.419 12.8987 195.515 12.8987 204.886 12.8987C204.886 20.5157 204.886 28.1328 204.886 35.9806C198.523 35.9806 192.161 35.9806 185.606 35.9806C185.606 40.6852 185.606 45.3899 185.606 50.2371C182.872 50.2371 180.139 50.2371 177.323 50.2371C177.323 37.9154 177.323 25.5938 177.323 12.8987ZM185.606 21.181C185.606 23.3317 185.606 25.4824 185.606 27.6983C189.235 27.6983 192.864 27.6983 196.603 27.6983C196.603 25.5476 196.603 23.3969 196.603 21.181C192.974 21.181 189.345 21.181 185.606 21.181Z" fill="#FBFBFB"/>
<path d="M13.4418 12.8987C22.5374 12.8987 31.6331 12.8987 41.0043 12.8987C41.0043 15.6319 41.0043 18.365 41.0043 21.181C34.597 21.181 28.1898 21.181 21.5884 21.181C21.5884 28.0364 21.5884 34.8917 21.5884 41.9547C29.9671 41.9547 38.3458 41.9547 46.9785 41.9547C46.9785 44.6879 46.9785 47.4211 46.9785 50.2371C35.9114 50.2371 24.8443 50.2371 13.4418 50.2371C13.4418 37.9154 13.4418 25.5938 13.4418 12.8987Z" fill="#FBFBFB"/>
<path d="M120.297 12.8987C123.031 12.8987 125.764 12.8987 128.58 12.8987C128.58 17.7826 128.58 22.6664 128.58 27.6983C131.627 27.6983 134.673 27.6983 137.812 27.6983C137.812 30.4314 137.812 33.1646 137.812 35.9806C134.766 35.9806 131.719 35.9806 128.58 35.9806C128.58 40.6852 128.58 45.3899 128.58 50.2371C125.847 50.2371 123.113 50.2371 120.297 50.2371C120.297 37.9154 120.297 25.5938 120.297 12.8987Z" fill="#FBFBFB"/>
</svg>
