<svg width="49" height="73" viewBox="0 0 49 73" fill="none" xmlns="http://www.w3.org/2000/svg">
<path d="M36.4126 34.6917C36.3303 34.6975 36.2476 34.6864 36.1697 34.659C36.0918 34.6317 36.0202 34.5887 35.9594 34.5327C35.8586 34.4397 35.792 34.3154 35.7704 34.1798C35.7488 34.0442 35.7734 33.9052 35.8402 33.7854L37.1107 31.5105L33.4586 33.9813C33.3335 34.0655 33.1816 34.0999 33.0325 34.078C32.8835 34.056 32.7478 33.9792 32.6519 33.8624C32.556 33.7457 32.5067 33.5974 32.5136 33.4463C32.5206 33.2952 32.5832 33.152 32.6893 33.0447L33.8479 31.8854L33.3362 32.2305C33.211 32.3162 33.0584 32.3517 32.9083 32.3302C32.7583 32.3086 32.6216 32.2316 32.5252 32.1141C32.4288 31.9966 32.3796 31.8472 32.3873 31.6952C32.395 31.5432 32.459 31.3997 32.5668 31.2927L33.7276 30.1307L33.2136 30.4772C33.0903 30.5578 32.942 30.5907 32.7963 30.5698C32.6506 30.5488 32.5174 30.4755 32.4215 30.3634C32.3255 30.2513 32.2734 30.1081 32.2747 29.9603C32.276 29.8126 32.3307 29.6704 32.4286 29.5601L34.5171 27.2806L33.0591 28.2677C32.9356 28.3569 32.7832 28.3963 32.6321 28.3781C32.481 28.3599 32.3422 28.2853 32.2431 28.1693C32.144 28.0532 32.092 27.9041 32.0972 27.7514C32.1024 27.5987 32.1645 27.4535 32.2712 27.3447L34.4077 25.0019L32.8959 26.0209C32.7723 26.1047 32.6223 26.1399 32.4745 26.1198C32.3267 26.0997 32.1914 26.0257 32.0943 25.9119C31.9969 25.7977 31.9449 25.6514 31.9483 25.5011C31.9517 25.3508 32.0104 25.207 32.1129 25.0975L34.0052 23.0774L32.7495 23.927C32.6272 24.0069 32.4803 24.0399 32.3356 24.0199C32.191 24 32.0583 23.9284 31.9619 23.8183C31.8655 23.7082 31.8118 23.567 31.8106 23.4204C31.8094 23.2739 31.8608 23.1318 31.9555 23.0203L34.4478 20.177L32.5877 21.4392C32.4612 21.5227 32.3081 21.5557 32.1585 21.5317C32.0089 21.5077 31.8736 21.4285 31.7792 21.3096C31.6847 21.1906 31.6379 21.0406 31.6479 20.8888C31.6579 20.7371 31.724 20.5946 31.8333 20.4894L32.2319 20.1118C32.1085 20.1288 31.9829 20.1072 31.8721 20.0501C31.7613 19.993 31.6706 19.903 31.6124 19.7925C31.5542 19.6819 31.5312 19.5561 31.5465 19.432C31.5619 19.308 31.6149 19.1917 31.6983 19.0989L33.7832 16.7854L32.3309 17.7672C32.2091 17.8487 32.0619 17.8832 31.9167 17.8644C31.7714 17.8456 31.6378 17.7747 31.5404 17.6648C31.443 17.5549 31.3884 17.4134 31.3867 17.2663C31.385 17.1193 31.4363 16.9766 31.5311 16.8646L33.5959 14.4547L32.0983 15.4678C31.973 15.5522 31.8209 15.5868 31.6716 15.5648C31.5222 15.5427 31.3864 15.4657 31.2905 15.3486C31.1946 15.2316 31.1456 15.0829 31.1529 14.9315C31.1602 14.7802 31.2234 14.637 31.3301 14.53L31.6408 14.2185C31.519 14.2653 31.3855 14.2717 31.2599 14.2365C31.1343 14.2013 31.0233 14.1265 30.9433 14.0231C30.8633 13.9197 30.8185 13.7932 30.8156 13.6623C30.8128 13.5314 30.8519 13.4031 30.9272 13.2964L32.9224 10.4829L30.7136 11.9823C30.5934 12.0633 30.4483 12.0986 30.3045 12.0817C30.1607 12.0648 30.0275 11.9969 29.9291 11.8902C29.8307 11.7835 29.7735 11.645 29.7678 11.4997C29.7621 11.3545 29.8082 11.2119 29.898 11.0979L31.311 9.31183L29.5476 10.4939C29.4237 10.5742 29.2748 10.6064 29.1289 10.5845C28.983 10.5626 28.85 10.4882 28.7547 10.375C28.6594 10.2619 28.6083 10.1178 28.611 9.96975C28.6138 9.82165 28.6701 9.67965 28.7695 9.57024L28.984 9.34617L28.5793 9.619C28.4555 9.70328 28.305 9.73871 28.1567 9.71848C28.0085 9.69825 27.8728 9.6238 27.7758 9.50939C27.6788 9.39498 27.6272 9.24867 27.631 9.0985C27.6348 8.94834 27.6936 8.80488 27.7963 8.69564L28.2266 8.23273L27.3906 8.79859C27.2743 8.87684 27.1346 8.9123 26.9951 8.89896C26.8556 8.88562 26.725 8.82429 26.6254 8.72536C26.5258 8.62644 26.4633 8.496 26.4484 8.35614C26.4336 8.21628 26.4673 8.0756 26.544 7.95792L28.1785 5.4717L24.8068 7.7554C24.6841 7.84058 24.5344 7.87742 24.3863 7.85888C24.2382 7.84033 24.1021 7.76771 24.0039 7.65487C23.9057 7.54202 23.8522 7.39685 23.8538 7.24704C23.8553 7.09724 23.9118 6.95328 24.0123 6.84262L25.0414 5.69474L22.4033 7.48087C22.2776 7.56793 22.1238 7.60422 21.9726 7.58252C21.8214 7.56082 21.6838 7.48272 21.5873 7.36377C21.4909 7.24483 21.4425 7.09378 21.452 6.94073C21.4614 6.78767 21.528 6.64384 21.6384 6.53791L22.0625 6.12434L19.2322 8.0364C19.1664 8.08523 19.0913 8.12018 19.0116 8.13914C18.9319 8.15809 18.8492 8.16066 18.7685 8.14669C18.6877 8.13272 18.6106 8.1025 18.5418 8.05785C18.473 8.01319 18.4139 7.95503 18.368 7.88686C18.3222 7.81868 18.2905 7.74191 18.275 7.66115C18.2594 7.58039 18.2603 7.49731 18.2775 7.41692C18.2948 7.33653 18.3281 7.26049 18.3754 7.19336C18.4227 7.12624 18.483 7.06942 18.5528 7.02632L26.9984 1.30799C27.1241 1.22392 27.2765 1.18991 27.4259 1.21261C27.5752 1.23531 27.7109 1.31308 27.8063 1.43074C27.9017 1.54841 27.95 1.69752 27.9418 1.84897C27.9336 2.00042 27.8695 2.14333 27.762 2.24982L27.3369 2.6659L28.4565 1.90782C28.5792 1.82264 28.7289 1.78581 28.877 1.80435C29.025 1.82289 29.1612 1.89551 29.2594 2.00835C29.3576 2.1212 29.411 2.26637 29.4095 2.41618C29.4079 2.56599 29.3515 2.70995 29.251 2.8206L28.2219 3.96848L30.0252 2.74812C30.1412 2.66879 30.2811 2.63227 30.4209 2.64478C30.5608 2.65729 30.692 2.71806 30.7923 2.81674C30.8922 2.91606 30.9547 3.04703 30.9691 3.18736C30.9836 3.32769 30.9492 3.4687 30.8717 3.58635L29.2373 6.07256L32.0196 4.18954C32.1434 4.10525 32.2938 4.06983 32.4421 4.09006C32.5904 4.11029 32.726 4.18474 32.823 4.29915C32.92 4.41356 32.9716 4.55987 32.9678 4.71003C32.9641 4.8602 32.9052 5.00365 32.8026 5.1129L32.3732 5.57207L33.029 5.12885C33.1529 5.04861 33.3018 5.01642 33.4477 5.0383C33.5936 5.06018 33.7267 5.13464 33.822 5.24776C33.9173 5.36089 33.9683 5.50495 33.9656 5.65305C33.9629 5.80115 33.9066 5.94315 33.8072 6.05255L33.5928 6.27784L33.8892 6.07616C34.0094 5.99342 34.1552 5.95686 34.3001 5.97316C34.445 5.98946 34.5792 6.05753 34.6783 6.16494C34.7774 6.27235 34.8347 6.41194 34.8398 6.55822C34.8449 6.7045 34.7975 6.8477 34.7061 6.9617L33.2898 8.75409L35.007 7.5911C35.1249 7.51178 35.2668 7.47645 35.408 7.49123C35.5492 7.506 35.6808 7.56996 35.7799 7.67199C35.8791 7.77402 35.9396 7.90768 35.9508 8.04975C35.9621 8.19182 35.9234 8.33334 35.8415 8.44972L33.8464 11.2632L36.1686 9.69596C36.2938 9.61027 36.4464 9.57471 36.5965 9.59624C36.7465 9.61778 36.8832 9.69486 36.9796 9.81235C37.076 9.92984 37.1251 10.0792 37.1174 10.2312C37.1098 10.3832 37.0457 10.5268 36.938 10.6337L36.6831 10.8887C36.8063 10.8125 36.9527 10.783 37.0958 10.8056C37.2389 10.8281 37.3693 10.9013 37.4634 11.0119C37.5576 11.1225 37.6093 11.2631 37.6092 11.4086C37.6092 11.554 37.5574 11.6946 37.4631 11.805L35.3996 14.2148L37.2471 12.9645C37.3698 12.878 37.5201 12.8403 37.669 12.8584C37.8179 12.8766 37.9549 12.9495 38.0536 13.0629C38.1522 13.1764 38.2056 13.3225 38.2034 13.4731C38.2012 13.6237 38.1436 13.7681 38.0416 13.8785L35.9567 16.192L37.5543 15.1107C37.6808 15.0272 37.8339 14.9942 37.9835 15.0182C38.1331 15.0422 38.2683 15.1214 38.3628 15.2404C38.4573 15.3593 38.5041 15.5093 38.4941 15.6611C38.4841 15.8128 38.4179 15.9553 38.3087 16.0605L37.9124 16.4355C38.035 16.4182 38.16 16.4389 38.2706 16.4949C38.3813 16.5509 38.4722 16.6396 38.5313 16.7489C38.5903 16.8583 38.6147 16.9831 38.6011 17.1067C38.5874 17.2303 38.5365 17.3468 38.4551 17.4405L35.966 20.2945L37.8379 19.0278C37.9618 18.9446 38.1118 18.91 38.2594 18.9307C38.4071 18.9514 38.542 19.0258 38.6386 19.1399C38.7352 19.2539 38.7866 19.3996 38.7831 19.5493C38.7796 19.6989 38.7215 19.842 38.6197 19.9513L36.7179 21.9744L37.9771 21.1222C38.1002 21.0387 38.2497 21.0035 38.397 21.0233C38.5444 21.043 38.6795 21.1163 38.7767 21.2293C38.8739 21.3423 38.9265 21.4871 38.9244 21.6364C38.9224 21.7856 38.8659 21.9289 38.7657 22.0391L36.6304 24.3806L38.142 23.3591C38.2655 23.2699 38.4179 23.2305 38.569 23.2488C38.7201 23.267 38.8589 23.3415 38.958 23.4576C39.0571 23.5736 39.1091 23.7228 39.1039 23.8755C39.0987 24.0282 39.0366 24.1733 38.9299 24.2822L36.8389 26.5619L38.3016 25.572C38.4268 25.4863 38.5794 25.4507 38.7295 25.4723C38.8796 25.4938 39.0162 25.5709 39.1126 25.6884C39.209 25.8059 39.2582 25.9553 39.2505 26.1072C39.2428 26.2592 39.1788 26.4028 39.071 26.5097L37.9125 27.6703L38.4276 27.3213C38.5528 27.2356 38.7054 27.2001 38.8555 27.2216C39.0055 27.2431 39.1422 27.3202 39.2386 27.4377C39.335 27.5552 39.3842 27.7046 39.3765 27.8566C39.3688 28.0086 39.3048 28.1521 39.197 28.2591L38.0345 29.4139L38.5492 29.06C38.6624 28.9834 38.7981 28.9475 38.9343 28.9579C39.0704 28.9683 39.1992 29.0245 39.2997 29.1174C39.4002 29.2102 39.4666 29.3344 39.4882 29.4698C39.5098 29.6052 39.4854 29.7439 39.4188 29.8636L38.1499 32.1445L38.7417 31.7437C38.8076 31.6948 38.8826 31.6599 38.9623 31.6409C39.042 31.622 39.1247 31.6194 39.2055 31.6334C39.2862 31.6473 39.3633 31.6776 39.4321 31.7222C39.5009 31.7669 39.5601 31.825 39.6059 31.8932C39.6518 31.9614 39.6834 32.0382 39.699 32.1189C39.7145 32.1997 39.7137 32.2827 39.6964 32.3631C39.6791 32.4435 39.6459 32.5196 39.5986 32.5867C39.5513 32.6538 39.4909 32.7106 39.4212 32.7537L36.7099 34.5902C36.6217 34.6502 36.519 34.6853 36.4126 34.6917Z" fill="#D0E2E8"/>
<path d="M9.05721 36.6156C8.94016 36.6238 8.82324 36.5977 8.72059 36.5406C8.61793 36.4835 8.53394 36.3977 8.47875 36.2937C8.42357 36.1898 8.39956 36.072 8.40962 35.9546C8.41969 35.8372 8.4634 35.7253 8.53547 35.6324L10.5465 33.0465L7.94422 34.8044C7.8202 34.8829 7.67209 34.9136 7.52722 34.891C7.38234 34.8684 7.25047 34.7939 7.15595 34.6813C7.06143 34.5688 7.01063 34.4257 7.01293 34.2785C7.01523 34.1313 7.07047 33.99 7.16847 33.8806L8.75794 32.2313L7.80911 32.8723C7.68286 32.9564 7.52984 32.99 7.38009 32.9667C7.23035 32.9433 7.09469 32.8645 6.99975 32.7459C6.90482 32.6272 6.85746 32.4773 6.86698 32.3254C6.8765 32.1736 6.94222 32.0308 7.05122 31.9252L7.53186 31.4673C7.4052 31.503 7.27039 31.4965 7.14772 31.4486C7.02505 31.4008 6.92114 31.3143 6.85164 31.2021C6.78213 31.0899 6.75078 30.9581 6.7623 30.8265C6.77382 30.6949 6.8276 30.5706 6.91553 30.4724L9.15964 27.9802L7.54332 29.0714C7.41784 29.1538 7.26641 29.1866 7.11819 29.1636C6.96997 29.1406 6.83544 29.0633 6.74051 28.9467C6.64558 28.8301 6.59695 28.6823 6.604 28.5319C6.61104 28.3815 6.67326 28.2391 6.77867 28.1321L7.68965 27.2284L7.42217 27.4085C7.30005 27.4867 7.1541 27.5184 7.01066 27.498C6.86723 27.4776 6.73574 27.4064 6.63993 27.2973C6.54412 27.1882 6.49029 27.0483 6.48816 26.9028C6.48603 26.7574 6.53574 26.616 6.62831 26.5042L9.21005 23.5116L7.2475 24.8409C7.12501 24.9228 6.97706 24.9572 6.83115 24.9377C6.68524 24.9183 6.5513 24.8463 6.45422 24.7352C6.35715 24.6241 6.30354 24.4814 6.30337 24.3336C6.3032 24.1858 6.35648 24.043 6.4533 23.9318L8.85938 21.196L7.077 22.4027C6.95241 22.4871 6.80105 22.522 6.6522 22.5008C6.50335 22.4796 6.36759 22.4038 6.27117 22.2879C6.17475 22.1721 6.12453 22.0245 6.13022 21.8736C6.1359 21.7228 6.19709 21.5795 6.30195 21.4714L7.92833 19.7927L6.94113 20.4596C6.81648 20.5429 6.66558 20.5769 6.51738 20.5553C6.36919 20.5336 6.23416 20.4578 6.13821 20.3423C6.04226 20.2268 5.99216 20.0799 5.99752 19.9296C6.00289 19.7794 6.06335 19.6365 6.16729 19.5283L8.43977 17.198L6.79572 18.3106C6.66832 18.3938 6.51446 18.4259 6.36454 18.4007C6.21461 18.3755 6.07951 18.2948 5.98591 18.1745C5.89231 18.0542 5.84702 17.9031 5.85897 17.751C5.87093 17.5988 5.93926 17.4568 6.05048 17.3528L8.73609 14.9227L6.79087 16.2386C6.66132 16.3241 6.50408 16.3566 6.35138 16.3294C6.19867 16.3022 6.06206 16.2175 5.96955 16.0925C5.87704 15.9675 5.83564 15.8117 5.85383 15.6571C5.87202 15.5025 5.94842 15.3607 6.06738 15.2609L13.4844 9.20003L7.23046 13.4349C7.1003 13.52 6.94256 13.5518 6.78971 13.5236C6.63686 13.4955 6.50052 13.4097 6.40873 13.2838C6.31694 13.1579 6.27669 13.0014 6.29625 12.8467C6.31581 12.6919 6.3937 12.5506 6.5139 12.4518L9.25798 10.2658L7.99177 11.1222C7.86663 11.2064 7.71476 11.2408 7.56568 11.2189C7.41659 11.1969 7.28093 11.1201 7.18503 11.0033C7.08914 10.8866 7.03986 10.7383 7.04678 10.5872C7.05369 10.4361 7.1163 10.293 7.22244 10.1857L11.2149 6.17496C11.0765 6.22723 10.9237 6.22694 10.7854 6.17413C10.647 6.12132 10.5326 6.01963 10.4636 5.88816C10.3946 5.75668 10.3758 5.60447 10.4107 5.46011C10.4455 5.31574 10.5317 5.18915 10.653 5.1041L15.7372 1.66018C15.8624 1.5745 16.0151 1.53893 16.1651 1.56047C16.3152 1.582 16.4518 1.65908 16.5482 1.77657C16.6446 1.89406 16.6938 2.04347 16.6861 2.19544C16.6784 2.34742 16.6144 2.49099 16.5066 2.59794L12.5498 6.56212L21.593 0.438869C21.7232 0.35376 21.8809 0.32199 22.0338 0.350095C22.1866 0.3782 22.323 0.464043 22.4148 0.589964C22.5066 0.715885 22.5468 0.872308 22.5273 1.02706C22.5077 1.1818 22.4298 1.3231 22.3096 1.4219L19.5646 3.61164L24.0279 0.587716C24.1575 0.499007 24.3163 0.46411 24.471 0.490332C24.6257 0.516555 24.7644 0.601864 24.8579 0.728389C24.9514 0.854915 24.9926 1.01284 24.9728 1.16909C24.9529 1.32533 24.8736 1.46778 24.7515 1.56658L15.7157 8.94497C15.8249 8.96881 15.9255 9.02245 16.0064 9.09999C16.0873 9.17753 16.1453 9.27596 16.174 9.38444C16.2027 9.49292 16.2011 9.60724 16.1693 9.71481C16.1375 9.82238 16.0767 9.91904 15.9936 9.99412L12.9552 12.7423C13.0563 12.7279 13.1594 12.74 13.2544 12.7775C13.3494 12.815 13.4332 12.8766 13.4974 12.9563C13.594 13.0725 13.644 13.2205 13.6379 13.3717C13.6319 13.5228 13.5701 13.6662 13.4645 13.7741L11.1921 16.1056L12.1107 15.4839C12.2347 15.4063 12.3824 15.3762 12.5268 15.3992C12.6712 15.4222 12.8025 15.4967 12.8966 15.609C12.9908 15.7213 13.0415 15.8639 13.0394 16.0106C13.0372 16.1574 12.9825 16.2984 12.8852 16.4078L11.2612 18.0864L12.1379 17.4932C12.2604 17.4114 12.4083 17.377 12.5543 17.3964C12.7002 17.4159 12.8341 17.4878 12.9312 17.599C13.0283 17.7101 13.0819 17.8528 13.082 18.0006C13.0822 18.1483 13.0289 18.2911 12.9321 18.4024L10.5256 21.1321L12.3127 19.9226C12.4348 19.8445 12.5807 19.8127 12.7242 19.8331C12.8676 19.8535 12.9991 19.9247 13.0949 20.0338C13.1907 20.143 13.2445 20.2829 13.2467 20.4283C13.2488 20.5737 13.1991 20.7151 13.1065 20.8269L10.5241 23.8269L12.4925 22.4947C12.618 22.4112 12.7699 22.3774 12.9187 22.4C13.0676 22.4226 13.2029 22.4999 13.2983 22.6169C13.3937 22.7339 13.4424 22.8822 13.435 23.0332C13.4277 23.1842 13.3647 23.327 13.2584 23.4339L12.3472 24.3352L12.6123 24.1552C12.735 24.0688 12.8853 24.031 13.0342 24.0492C13.1831 24.0674 13.3201 24.1402 13.4188 24.2537C13.5174 24.3672 13.5708 24.5133 13.5686 24.6639C13.5664 24.8144 13.5088 24.9588 13.4068 25.0692L11.1615 27.5615L12.7827 26.47C12.9089 26.3828 13.0634 26.3467 13.2151 26.3691C13.3668 26.3914 13.5045 26.4705 13.6006 26.5905C13.6966 26.7105 13.744 26.8625 13.7331 27.0161C13.7222 27.1696 13.6539 27.3133 13.5419 27.4183L13.0634 27.8723C13.1921 27.8353 13.3294 27.842 13.454 27.8915C13.5786 27.9409 13.6834 28.0303 13.7521 28.1457C13.8209 28.2611 13.8498 28.3961 13.8342 28.5296C13.8187 28.6632 13.7597 28.7878 13.6663 28.8841L12.0769 30.5345L13.0303 29.8895C13.15 29.8093 13.2943 29.7744 13.4373 29.791C13.5804 29.8077 13.7129 29.8748 13.8113 29.9804C13.9097 30.086 13.9675 30.2233 13.9744 30.3677C13.9814 30.5121 13.937 30.6543 13.8492 30.7688L11.8382 33.3547L13.2102 32.4274C13.311 32.3588 13.43 32.3222 13.5518 32.3224C13.6736 32.3226 13.7925 32.3595 13.8932 32.4284C13.9938 32.4973 14.0715 32.5949 14.1162 32.7087C14.1609 32.8225 14.1706 32.9471 14.1438 33.0664L13.8101 34.5801C13.9306 34.5991 14.0426 34.654 14.1316 34.7378C14.2205 34.8216 14.2824 34.9303 14.309 35.0498C14.3356 35.1693 14.3258 35.294 14.2808 35.4078C14.2358 35.5216 14.1578 35.6191 14.0568 35.6877L13.2754 36.2155C13.1746 36.2837 13.0558 36.3199 12.9342 36.3195C12.8126 36.3191 12.694 36.2821 12.5935 36.2133C12.4931 36.1445 12.4155 36.047 12.3709 35.9334C12.3262 35.8199 12.3165 35.6955 12.343 35.5764L12.6286 34.2971L9.35446 36.5129C9.26638 36.5733 9.1637 36.6088 9.05721 36.6156Z" fill="#D0E2E8"/>
<path d="M27.2766 71.9829C27.1472 71.9922 27.0183 71.9596 26.9087 71.89C26.7991 71.8203 26.7145 71.7173 26.6674 71.596C26.6202 71.4746 26.613 71.3414 26.6467 71.2157C26.6805 71.09 26.7534 70.9784 26.8549 70.8974L34.1939 65.0449L23.7296 72.1258C23.5984 72.212 23.439 72.2439 23.2848 72.2147C23.1307 72.1855 22.9937 72.0976 22.9026 71.9694C22.8114 71.8411 22.7733 71.6825 22.796 71.5266C22.8188 71.3708 22.9007 71.2299 23.0246 71.1334L28.0609 67.3175L20.8221 72.2179C20.6916 72.301 20.5344 72.331 20.3825 72.3018C20.2307 72.2726 20.0956 72.1864 20.0048 72.0607C19.914 71.935 19.8744 71.7793 19.894 71.6253C19.9136 71.4714 19.9909 71.3307 20.1102 71.2321L31.8882 62.0419L16.8991 72.1902C16.7679 72.2764 16.6085 72.3082 16.4543 72.2791C16.3001 72.2499 16.1631 72.162 16.072 72.0337C15.9809 71.9055 15.9427 71.7468 15.9655 71.591C15.9882 71.4352 16.0701 71.2943 16.1941 71.1978L27.1543 62.9195L13.729 72.0096C13.5969 72.0928 13.438 72.1218 13.2851 72.0905C13.1323 72.0593 12.9972 71.9702 12.908 71.8418C12.8187 71.7134 12.782 71.5554 12.8056 71.4006C12.8291 71.2458 12.911 71.1061 13.0344 71.0104L13.3125 70.8076L11.8277 71.8125C11.6958 71.8993 11.5354 71.9312 11.3805 71.9014C11.2256 71.8716 11.0882 71.7824 10.9975 71.6528C10.9068 71.5232 10.8699 71.3632 10.8945 71.2068C10.9192 71.0504 11.0035 70.9098 11.1296 70.8147L19.3759 64.7704L9.4933 71.4634C9.36162 71.5517 9.20075 71.5849 9.045 71.5558C8.88925 71.5267 8.75094 71.4377 8.65957 71.3077C8.56821 71.1778 8.531 71.0171 8.5559 70.8601C8.5808 70.703 8.66583 70.562 8.79285 70.467L23.4045 59.6042L6.8061 70.8407C6.67372 70.9268 6.51314 70.9578 6.35835 70.9271C6.20355 70.8964 6.0667 70.8064 5.97674 70.6762C5.88678 70.5461 5.85078 70.3859 5.87636 70.2296C5.90195 70.0733 5.9871 69.9332 6.1138 69.8389L7.9044 68.5583L5.50685 70.1796C5.37494 70.2638 5.21575 70.2937 5.06241 70.263C4.90907 70.2323 4.77339 70.1434 4.68361 70.0148C4.59383 69.8863 4.55686 69.728 4.58039 69.5728C4.60392 69.4176 4.68615 69.2776 4.80995 69.1818L17.3067 60.0649L4.43819 68.7762C4.3066 68.8602 4.14783 68.8901 3.99479 68.8598C3.84174 68.8295 3.70616 68.7412 3.61612 68.6132C3.52609 68.4853 3.48851 68.3275 3.51116 68.1726C3.53382 68.0177 3.61498 67.8775 3.73783 67.781L22.3763 53.9566L4.06194 66.356C3.92988 66.4416 3.76989 66.4724 3.6156 66.4419C3.46132 66.4115 3.32477 66.3222 3.23466 66.1928C3.14455 66.0634 3.1079 65.904 3.13243 65.7481C3.15696 65.5922 3.24074 65.4519 3.36617 65.3568L15.3022 56.6851L3.92429 64.3874C3.7922 64.4687 3.63415 64.4962 3.48248 64.4642C3.3308 64.4323 3.19697 64.3435 3.10838 64.2158C3.01979 64.0881 2.98313 63.9313 3.00591 63.7774C3.0287 63.6235 3.1092 63.4842 3.23094 63.3881L12.2722 56.8541L3.79637 62.5929C3.66397 62.6764 3.50459 62.7053 3.3514 62.6737C3.19822 62.6422 3.06303 62.5525 2.97398 62.4234C2.88494 62.2943 2.84889 62.1357 2.87335 61.9807C2.8978 61.8256 2.98088 61.6861 3.10528 61.591L3.64572 61.2048C3.5108 61.2769 3.3537 61.2953 3.20579 61.2563C3.05788 61.2173 2.93005 61.1237 2.84781 60.9942C2.76557 60.8647 2.73498 60.7089 2.76215 60.5578C2.78932 60.4068 2.87225 60.2716 2.99438 60.1793L22.6299 45.4794L3.5054 58.4318C3.37398 58.5169 3.21491 58.5477 3.06134 58.518C2.90776 58.4882 2.7715 58.4001 2.68094 58.272C2.59038 58.144 2.5525 57.9858 2.57518 57.8304C2.59786 57.6751 2.67936 57.5345 2.8027 57.4381L19.8283 44.6495L3.31857 55.8297C3.18712 55.9126 3.02899 55.9419 2.87667 55.9114C2.72435 55.8809 2.58941 55.793 2.4996 55.6658C2.40978 55.5385 2.3719 55.3816 2.39375 55.2272C2.4156 55.0728 2.49552 54.9328 2.61708 54.8358L14.9715 45.5993L3.16844 53.5783C3.03653 53.6625 2.87734 53.6923 2.724 53.6616C2.57066 53.6309 2.43498 53.542 2.3452 53.4135C2.25542 53.2849 2.21845 53.1266 2.24198 52.9714C2.26551 52.8163 2.34774 52.6762 2.47154 52.5804L5.85895 50.1037L3.05801 51.999C2.92688 52.082 2.76908 52.1114 2.61695 52.0814C2.46482 52.0513 2.32987 51.9639 2.23976 51.8372C2.14964 51.7105 2.11117 51.554 2.13223 51.3998C2.1533 51.2456 2.2323 51.1054 2.35305 51.0078L11.2254 44.2877L2.91227 49.9148C2.78058 50.0031 2.61971 50.0363 2.46396 50.0072C2.30821 49.9781 2.1699 49.8891 2.07854 49.7591C1.98717 49.6292 1.94997 49.4685 1.97487 49.3115C1.99976 49.1544 2.08479 49.0134 2.21182 48.9184L4.5847 47.1533L2.80353 48.3599C2.67374 48.4473 2.51535 48.481 2.36132 48.4541C2.2073 48.4273 2.0695 48.3418 1.97659 48.2155C1.88368 48.0892 1.84282 47.9319 1.86251 47.7762C1.8822 47.6205 1.96092 47.4785 2.08229 47.3796L11.2381 39.9757L2.62512 45.8085C2.49395 45.8979 2.33313 45.9322 2.17701 45.9042C2.0209 45.8761 1.88187 45.7878 1.78965 45.6583C1.69742 45.5287 1.65931 45.3681 1.68346 45.2107C1.70761 45.0534 1.79209 44.9118 1.91887 44.8162L2.44835 44.4124C2.31597 44.4763 2.16495 44.4899 2.02328 44.4507C1.88162 44.4114 1.75891 44.3219 1.6779 44.1987C1.5969 44.0756 1.56309 43.9272 1.58274 43.781C1.60239 43.6348 1.67417 43.5007 1.78478 43.4036L8.13895 37.8156L2.34062 41.7399C2.213 41.8253 2.05786 41.8591 1.90638 41.8345C1.7549 41.8098 1.61831 41.7284 1.52405 41.6068C1.42979 41.4852 1.38486 41.3323 1.39829 41.1788C1.41171 41.0253 1.4825 40.8827 1.59642 40.7796L5.0338 37.6941L2.19249 39.6216C2.07028 39.7006 1.92385 39.733 1.77983 39.7128C1.63581 39.6926 1.50375 39.6212 1.40764 39.5116C1.31154 39.402 1.25776 39.2615 1.25609 39.1155C1.25443 38.9695 1.30497 38.8278 1.39855 38.7161L4.12174 35.5522L2.0161 36.9771C1.89605 37.0582 1.7511 37.0935 1.60736 37.0768C1.46361 37.06 1.33051 36.9923 1.23203 36.8858C1.13354 36.7793 1.07613 36.641 1.07015 36.4959C1.06416 36.3507 1.10998 36.2082 1.19936 36.094L2.11161 34.9299C2.03399 34.9146 1.96015 34.8841 1.89436 34.84C1.82857 34.7959 1.77213 34.7391 1.72834 34.673C1.63852 34.5391 1.6052 34.375 1.63566 34.2166C1.66612 34.0582 1.75789 33.9184 1.89086 33.8278L4.27429 32.2135C4.39434 32.1325 4.53929 32.0972 4.68303 32.1139C4.82678 32.1306 4.95988 32.1984 5.05836 32.3048C5.15685 32.4113 5.21426 32.5496 5.22025 32.6948C5.22623 32.8399 5.18041 32.9824 5.09103 33.0966L4.54995 33.7874L7.22434 31.9803C7.34646 31.9022 7.4924 31.8704 7.63584 31.8908C7.77928 31.9112 7.91076 31.9824 8.00657 32.0915C8.10238 32.2007 8.15621 32.3406 8.15834 32.486C8.16048 32.6314 8.11077 32.7728 8.0182 32.8846L5.29388 36.0498L11.7761 31.6657C11.9036 31.5786 12.0594 31.5435 12.2119 31.5676C12.3643 31.5917 12.502 31.6731 12.5968 31.7953C12.6917 31.9175 12.7367 32.0714 12.7227 32.2257C12.7087 32.38 12.6368 32.5231 12.5215 32.6259L9.08401 35.7102L15.4332 31.41C15.5612 31.3227 15.7176 31.2878 15.8704 31.3124C16.0232 31.337 16.161 31.4192 16.2555 31.5422C16.3501 31.6653 16.3943 31.8199 16.3792 31.9745C16.364 32.1291 16.2907 32.2721 16.1741 32.3742L9.82085 37.9584L19.9665 31.093C20.0976 31.0055 20.2574 30.9726 20.4122 31.0011C20.5671 31.0296 20.7049 31.1174 20.7966 31.2459C20.8883 31.3744 20.9268 31.5336 20.9039 31.6899C20.881 31.8463 20.7986 31.9875 20.6739 32.084L20.2403 32.4139L22.4492 30.9145C22.5789 30.83 22.7358 30.7984 22.888 30.8262C23.0402 30.8539 23.1762 30.9389 23.2682 31.0638C23.3601 31.1886 23.4012 31.344 23.3831 31.4982C23.3649 31.6524 23.2888 31.7938 23.1703 31.8935L14.0063 39.3017L26.8519 30.6115C26.9835 30.5275 27.1423 30.4976 27.2953 30.5279C27.4484 30.5583 27.584 30.6465 27.674 30.7745C27.764 30.9024 27.8016 31.0602 27.779 31.2151C27.7563 31.37 27.6751 31.5102 27.5523 31.6067L25.1848 33.3617L29.5324 30.4241C29.6635 30.3411 29.8213 30.3117 29.9735 30.3417C30.1256 30.3718 30.2605 30.4592 30.3507 30.5859C30.4408 30.7126 30.4792 30.8691 30.4582 31.0233C30.4371 31.1775 30.3581 31.3177 30.2374 31.4153L21.3697 38.1339L33.129 30.1726C33.2609 30.0884 33.4201 30.0586 33.5734 30.0893C33.7268 30.12 33.8625 30.2088 33.9522 30.3374C34.042 30.4659 34.079 30.6243 34.0555 30.7794C34.0319 30.9346 33.9497 31.0746 33.8259 31.1704L30.4362 33.6486L35.8531 29.9821C35.9845 29.8991 36.1427 29.8699 36.295 29.9004C36.4473 29.9309 36.5822 30.0188 36.6721 30.146C36.7619 30.2733 36.7998 30.4302 36.7779 30.5846C36.7561 30.7389 36.6761 30.879 36.5546 30.976L24.1976 40.2115L39.7102 29.7124C39.8415 29.6285 39.9999 29.5984 40.1527 29.6283C40.3055 29.6583 40.441 29.746 40.5314 29.8733C40.6217 30.0007 40.6598 30.1579 40.638 30.3127C40.6162 30.4674 40.536 30.6078 40.414 30.7049L23.3883 43.4922L43.1295 30.1298C43.2609 30.0421 43.4212 30.0091 43.5764 30.0379C43.7316 30.0668 43.8696 30.1551 43.9611 30.2843C44.0526 30.4135 44.0905 30.5733 44.0666 30.73C44.0428 30.8866 43.9592 31.0278 43.8334 31.1235L24.204 45.8229L44.667 31.9688C44.7994 31.8853 44.9588 31.8564 45.112 31.888C45.2652 31.9196 45.4003 32.0092 45.4894 32.1383C45.5784 32.2674 45.6145 32.426 45.59 32.581C45.5656 32.7361 45.4825 32.8756 45.3581 32.9707L44.9196 33.2826C45.0528 33.2033 45.2111 33.1781 45.3623 33.2122C45.5134 33.2463 45.6459 33.337 45.7326 33.4658C45.8194 33.5947 45.8539 33.7519 45.8291 33.9053C45.8042 34.0588 45.7219 34.1969 45.599 34.2914L36.5577 40.8241L45.0312 35.0867C45.1632 35.0011 45.3232 34.9703 45.4775 35.0008C45.6318 35.0312 45.7683 35.1205 45.8584 35.2499C45.9486 35.3793 45.9852 35.5387 45.9607 35.6946C45.9361 35.8505 45.8524 35.9908 45.7269 36.0859L33.7909 44.7577L45.1688 37.0553C45.3004 36.9713 45.4592 36.9414 45.6122 36.9717C45.7653 37.0021 45.9009 37.0903 45.9909 37.2183C46.0809 37.3462 46.1185 37.504 46.0959 37.6589C46.0732 37.8138 45.992 37.9541 45.8692 38.0505L27.2341 51.871L45.3473 39.6079C45.4792 39.5258 45.6375 39.4976 45.7896 39.529C45.9417 39.5604 46.0761 39.649 46.1651 39.7768C46.2542 39.9045 46.2912 40.0616 46.2685 40.2158C46.2457 40.37 46.1651 40.5096 46.043 40.6059L33.53 49.7337L45.4894 41.6398C45.6218 41.5537 45.7824 41.5228 45.9372 41.5535C46.0919 41.5842 46.2288 41.6741 46.3188 41.8043C46.4087 41.9345 46.4447 42.0946 46.4191 42.2509C46.3936 42.4072 46.3084 42.5474 46.1817 42.6417L44.4085 43.9101L45.5927 43.1169C45.7243 43.0329 45.8831 43.003 46.0361 43.0333C46.1891 43.0636 46.3247 43.1519 46.4148 43.2798C46.5048 43.4078 46.5424 43.5656 46.5197 43.7205C46.4971 43.8754 46.4159 44.0156 46.293 44.1121L31.68 54.9713L45.7552 45.4408C45.8871 45.3566 46.0463 45.3268 46.1996 45.3575C46.353 45.3882 46.4886 45.477 46.5784 45.6056C46.6682 45.7341 46.7052 45.8925 46.6816 46.0476C46.6581 46.2028 46.5759 46.3428 46.4521 46.4386L38.2024 52.4856L45.8841 47.2841C46.0163 47.1996 46.176 47.1698 46.3297 47.2008C46.4834 47.2318 46.6192 47.3213 46.7088 47.4505C46.7984 47.5798 46.8347 47.7387 46.8102 47.8942C46.7858 48.0496 46.7024 48.1895 46.5775 48.2846L46.0734 48.65C46.2097 48.5879 46.3641 48.5786 46.5069 48.6239C46.6497 48.6692 46.7709 48.7658 46.8471 48.8952C46.9234 49.0247 46.9493 49.1778 46.92 49.3252C46.8907 49.4726 46.8081 49.6039 46.6882 49.6939L35.7222 57.9751L46.1386 50.9232C46.2692 50.8372 46.4278 50.805 46.5815 50.8334C46.7352 50.8618 46.8721 50.9485 46.9638 51.0756C47.0555 51.2027 47.0949 51.3604 47.0738 51.5158C47.0527 51.6712 46.9727 51.8125 46.8505 51.9102L35.0796 61.0974L46.318 53.4892C46.4491 53.4062 46.6069 53.3768 46.759 53.4069C46.9112 53.4369 47.0461 53.5243 47.1362 53.651C47.2264 53.7777 47.2648 53.9342 47.2438 54.0884C47.2227 54.2426 47.1437 54.3828 47.0229 54.4804L41.9891 58.2961L46.4435 55.2838C46.5736 55.1965 46.7323 55.1631 46.8864 55.1904C47.0406 55.2178 47.1783 55.3038 47.2709 55.4306C47.3634 55.5573 47.4037 55.7151 47.3833 55.8709C47.3629 56.0266 47.2833 56.1685 47.1613 56.2668L39.8176 62.1232L46.6006 57.5311C46.7295 57.443 46.8872 57.408 47.041 57.4335C47.1949 57.4589 47.3332 57.5428 47.4272 57.6677C47.5212 57.7927 47.5638 57.9491 47.5461 58.1046C47.5285 58.2602 47.4519 58.4029 47.3323 58.5032L40.8286 63.9904L46.771 59.9681C46.9006 59.8794 47.0594 59.8445 47.2141 59.8707C47.3689 59.8969 47.5075 59.9822 47.601 60.1088C47.6946 60.2353 47.7357 60.3932 47.7159 60.5495C47.696 60.7057 47.6168 60.8482 47.4946 60.947L45.7414 62.379L46.8856 61.6058C47.0124 61.5215 47.166 61.4882 47.3162 61.5122C47.4664 61.5363 47.6022 61.616 47.6967 61.7357C47.7912 61.8554 47.8376 62.0063 47.8267 62.1586C47.8158 62.3108 47.7483 62.4534 47.6377 62.5582L45.3989 64.638L47.0213 63.5464C47.1419 63.4661 47.2873 63.4318 47.431 63.4496C47.5747 63.4675 47.7074 63.5362 47.8051 63.6436C47.9028 63.7509 47.9591 63.8898 47.9639 64.0351C47.9687 64.1804 47.9216 64.3226 47.8311 64.4361L46.8559 65.6401C46.981 65.6508 47.0997 65.7001 47.1957 65.7812C47.2917 65.8623 47.3604 65.9713 47.3923 66.0931C47.4242 66.215 47.4177 66.3438 47.3737 66.4617C47.3298 66.5797 47.2505 66.6811 47.1468 66.7519L44.4273 68.5927C44.3066 68.6729 44.1613 68.7072 44.0175 68.6894C43.8738 68.6716 43.7411 68.6028 43.6434 68.4955C43.5457 68.3881 43.4894 68.2493 43.4846 68.104C43.4798 67.9587 43.5269 67.8165 43.6174 67.703L44.3021 66.8555L39.5271 70.0895C39.4004 70.1751 39.2461 70.2096 39.0951 70.186C38.9441 70.1625 38.8075 70.0827 38.7124 69.9625C38.6173 69.8424 38.5709 69.6907 38.5822 69.5377C38.5936 69.3847 38.662 69.2417 38.7737 69.1372L41.016 67.0535L35.2538 70.9544C35.1242 71.0431 34.9654 71.078 34.8107 71.0518C34.6559 71.0256 34.5173 70.9403 34.4238 70.8137C34.3302 70.6872 34.2891 70.5293 34.3089 70.373C34.3288 70.2168 34.408 70.0743 34.5302 69.9755L36.2787 68.5463L32.0292 71.4232C31.9003 71.5113 31.7426 71.5462 31.5887 71.5208C31.4349 71.4954 31.2966 71.4115 31.2026 71.2865C31.1085 71.1616 31.066 71.0052 31.0836 70.8496C31.1013 70.6941 31.1779 70.5514 31.2975 70.451L37.8042 64.9551L27.5726 71.8803C27.4844 71.9394 27.3824 71.9748 27.2766 71.9829Z" fill="#F5B34A"/>
<path d="M23.2719 58.8237C23.149 58.8323 23.0264 58.8032 22.9203 58.7402C22.8142 58.6772 22.7296 58.5833 22.6779 58.471C22.6262 58.3587 22.6097 58.2332 22.6307 58.1113C22.6516 57.9894 22.709 57.8768 22.7953 57.7884L23.5908 56.9748L21.6211 58.307C21.4954 58.3911 21.343 58.4251 21.1936 58.4024C21.0442 58.3797 20.9086 58.3019 20.8132 58.1843C20.7178 58.0666 20.6695 57.9175 20.6777 57.766C20.6859 57.6146 20.75 57.4717 20.8575 57.3652L22.4166 55.8391L21.0481 56.765C20.9235 56.8482 20.7726 56.8823 20.6244 56.8606C20.4762 56.839 20.3412 56.7632 20.2452 56.6477C20.1493 56.5322 20.0992 56.3852 20.1045 56.235C20.1099 56.0847 20.1703 55.9418 20.2743 55.8337L23.7515 52.2722L21.6352 53.7028C21.5113 53.784 21.3621 53.8169 21.2156 53.7954C21.0691 53.7739 20.9355 53.6995 20.8398 53.5861C20.7441 53.4726 20.6929 53.3281 20.6958 53.1795C20.6988 53.0309 20.7557 52.8885 20.8559 52.7792L24.6994 48.7104L21.9774 50.5501C21.8548 50.633 21.7063 50.6682 21.5597 50.649C21.4131 50.6298 21.2785 50.5576 21.1811 50.446C21.0836 50.3343 21.0301 50.1908 21.0304 50.0424C21.0308 49.894 21.0851 49.7508 21.1831 49.6398L24.3077 46.1042L20.3338 48.7956C20.21 48.8799 20.0595 48.9153 19.9112 48.8951C19.763 48.8749 19.6273 48.8004 19.5303 48.686C19.4333 48.5716 19.3817 48.4253 19.3855 48.2751C19.3893 48.125 19.4481 47.9815 19.5507 47.8723L22.1458 45.0878L19.7378 46.716C19.619 46.7964 19.4757 46.8321 19.3332 46.8167C19.1908 46.8013 19.0583 46.7358 18.9592 46.6318C18.8601 46.5278 18.8008 46.392 18.7918 46.2484C18.7828 46.1049 18.8246 45.9627 18.9099 45.8471L20.4921 43.7106C20.3528 43.7592 20.2007 43.7554 20.0641 43.6997C19.9274 43.6441 19.8156 43.5404 19.7494 43.4081C19.6832 43.2758 19.6672 43.1239 19.7044 42.9806C19.7415 42.8374 19.8293 42.7127 19.9513 42.6297L22.7266 40.7508C22.8454 40.6704 22.9887 40.6347 23.1312 40.6501C23.2736 40.6655 23.4061 40.731 23.5052 40.835C23.6043 40.939 23.6636 41.0748 23.6726 41.2184C23.6817 41.362 23.6398 41.5041 23.5545 41.6197L22.008 43.7085L25.9146 41.0646C26.0384 40.9792 26.1893 40.9429 26.3382 40.9627C26.4871 40.9824 26.6235 41.0569 26.7209 41.1717C26.8184 41.2864 26.8701 41.4334 26.866 41.5841C26.862 41.7349 26.8024 41.8787 26.6988 41.9879L24.1039 44.7736L27.6176 42.3968C27.7402 42.3139 27.8886 42.2788 28.0352 42.2979C28.1818 42.3171 28.3165 42.3893 28.4139 42.501C28.5113 42.6126 28.5649 42.7561 28.5645 42.9045C28.5641 43.053 28.5099 43.1961 28.4119 43.3072L25.286 46.8428L28.6148 44.589C28.7386 44.5068 28.8883 44.4731 29.0353 44.4941C29.1824 44.5152 29.3166 44.5897 29.4128 44.7034C29.5089 44.8172 29.5602 44.9623 29.557 45.1114C29.5538 45.2605 29.4963 45.4032 29.3953 45.5125L25.5517 49.58L28.0364 47.8988C28.1611 47.8155 28.312 47.7815 28.4602 47.8031C28.6083 47.8248 28.7434 47.9006 28.8393 48.0161C28.9353 48.1316 28.9854 48.2785 28.98 48.4288C28.9746 48.579 28.9142 48.7219 28.8102 48.8301L25.3354 52.3901L27.3419 51.0272C27.4676 50.9401 27.6214 50.9038 27.7726 50.9255C27.9238 50.9472 28.0614 51.0253 28.1578 51.1443C28.2543 51.2632 28.3026 51.4143 28.2932 51.5673C28.2837 51.7204 28.2172 51.8642 28.1068 51.9701L26.5477 53.4962L27.8894 52.5881C28.0141 52.5049 28.165 52.4708 28.3132 52.4924C28.4614 52.5141 28.5964 52.5899 28.6923 52.7054C28.7883 52.8209 28.8384 52.9679 28.833 53.1181C28.8276 53.2683 28.7672 53.4113 28.6633 53.5194L27.8681 54.338L28.3856 53.9888C28.4981 53.9119 28.6331 53.8751 28.7689 53.8845C28.9047 53.8939 29.0335 53.9488 29.1346 54.0404C29.2357 54.1321 29.3032 54.2551 29.3262 54.3899C29.3493 54.5246 29.3266 54.6632 29.2619 54.7834L28.5725 56.0872L28.8225 55.9194C28.8884 55.8705 28.9635 55.8356 29.0432 55.8166C29.1229 55.7977 29.2056 55.7951 29.2863 55.8091C29.3671 55.823 29.4441 55.8532 29.513 55.8979C29.5818 55.9426 29.6409 56.0007 29.6868 56.0689C29.7326 56.1371 29.7643 56.2138 29.7798 56.2946C29.7954 56.3754 29.7945 56.4584 29.7772 56.5388C29.76 56.6192 29.7267 56.6953 29.6794 56.7624C29.6321 56.8295 29.5718 56.8863 29.502 56.9294L27.2334 58.4611C27.1209 58.538 26.9859 58.5747 26.85 58.5654C26.7142 58.556 26.5854 58.5011 26.4843 58.4095C26.3833 58.3178 26.3158 58.1948 26.2927 58.06C26.2696 57.9253 26.2923 57.7867 26.3571 57.6665L27.0464 56.3614L23.5689 58.7173C23.4812 58.7788 23.3786 58.8155 23.2719 58.8237Z" fill="#9F6107"/>
<path d="M5.61993 19.0494L6.52032 31.9256C-4.39968 31.4446 3.51193 53.0224 2.38988 60.0675C3.0558 63.8612 1.48957 69.6915 6.29297 71.0429C18.4372 73.6024 31.5354 72.4945 43.3865 68.9809C51.8297 66.9025 46.9026 56.4511 47.3245 50.2778C45.4419 43.817 50.2293 28.2909 39.7751 29.5085C43.1326 -9.37395 5.34071 -5.80575 5.61993 19.0494ZM44.3878 33.7232C43.5361 40.1405 50.0633 67.0322 43.4642 67.7589C35.7708 70.181 8.65733 75.1115 4.64894 66.914C3.97572 57.6348 3.36725 48.3413 2.70113 39.0591C1.92324 35.9627 2.90457 32.5648 6.64915 33.1063C13.0775 34.0469 44.4005 26.9562 44.3878 33.7232ZM13.9694 13.0015C16.0823 6.64766 24.6571 5.63236 28.6887 10.7142C32.6535 16.2677 30.9161 23.7251 31.9682 30.151C26.0893 30.5548 20.2149 30.9876 14.3334 31.372C14.3572 25.3378 12.3489 18.8906 13.9694 13.0015ZM30.4686 4.16105C38.8846 9.80803 36.9801 20.8838 38.0223 29.658C36.4522 29.8424 35.2101 29.9292 33.7229 30.0284C32.592 23.2936 34.5647 15.354 30.0366 9.70172C25.9457 5.39187 18.8782 5.81149 14.7079 9.78693C9.00587 15.4895 12.8367 24.3694 12.5722 31.4878C11.1369 31.5808 9.70267 31.6884 8.26842 31.7961C8.24335 23.4619 4.82864 13.7936 10.6522 6.6777C13.0042 3.78951 16.371 1.91832 20.0582 1.45006C23.7453 0.981799 27.4717 1.95218 30.4686 4.16105Z" fill="#262626"/>
<path d="M29.5561 43.7712C25.6502 35.1765 13.0855 44.923 20.9258 50.5931C20.6433 53.3613 17.8473 58.9499 22.582 58.9881C30.746 59.2205 31.2266 56.9335 28.1205 49.92C28.9546 49.1639 29.539 48.1701 29.7955 47.0714C30.052 45.9727 29.9685 44.8214 29.5561 43.7712ZM26.5105 49.4641C25.3744 51.3274 30.1637 56.1691 27.4399 57.2693C18.4001 58.8795 22.8055 55.148 22.5004 49.6528C18.9296 47.8705 19.858 41.7828 24.0578 41.7813C28.0622 41.7899 29.5292 47.0963 26.5105 49.4641Z" fill="#262626"/>
</svg>
