<svg width="600" height="173" viewBox="0 0 600 173" fill="none" xmlns="http://www.w3.org/2000/svg">
<path d="M0.434814 0C198.035 0 395.635 0 599.224 0C600.072 57.6606 599.596 115.333 599.596 173C401.873 173 204.15 173 0.434814 173C0.434814 115.91 0.434814 58.82 0.434814 0ZM291.332 9.40414C291.066 9.40439 290.799 9.40464 290.524 9.4049C263.704 9.4303 236.884 9.45681 189.622 9.50502C187.704 9.50699 185.785 9.50895 183.867 9.51091C168.058 9.5271 152.249 9.54337 136.441 9.55976C134.53 9.56174 132.619 9.56371 130.708 9.56569C90.6394 9.60723 50.5705 9.6508 10.5016 9.69396C10.5016 60.3859 10.5016 111.078 10.5016 163.306C71.2271 163.372 71.2271 163.372 131.952 163.436C133.701 163.437 135.449 163.439 137.198 163.441C153.021 163.457 168.844 163.474 184.668 163.49C186.585 163.492 188.501 163.494 190.418 163.496C217.318 163.523 244.219 163.551 291.308 163.596C291.575 163.596 291.841 163.596 292.116 163.597C320.731 163.624 349.346 163.65 512.475 163.702C513.526 163.702 514.577 163.702 515.627 163.702C540.51 163.698 565.393 163.691 590.275 163.679C590.287 153.472 590.294 143.266 590.299 133.059C590.299 132.669 590.299 132.279 590.299 131.878C590.311 103.329 590.226 74.7811 590.089 46.2328C590.086 45.5366 590.086 45.5366 590.082 44.8264C590.025 32.9913 589.966 21.1562 589.902 9.32112C564.817 9.30851 539.732 9.30186 514.647 9.29806C513.601 9.2979 512.555 9.29774 511.509 9.29757C481.388 9.29283 451.266 9.29456 291.332 9.40414Z" fill="url(#paint0_linear_83_23113)"/>
<path d="M145.844 35.4203C170.821 35.4203 195.798 35.4203 221.532 35.4203C221.532 69.2559 221.532 103.092 221.532 137.953C214.149 137.953 206.767 137.953 199.161 137.953C199.161 125.034 199.161 112.114 199.161 98.8039C189.072 98.8039 178.983 98.8039 168.588 98.8039C168.588 111.723 168.588 124.642 168.588 137.953C161.082 137.953 153.577 137.953 145.844 137.953C145.844 125.034 145.844 112.114 145.844 98.8039C137.355 98.8039 128.865 98.8039 120.118 98.8039C120.118 91.2985 120.118 83.7931 120.118 76.0603C128.608 76.0603 137.097 76.0603 145.844 76.0603C145.844 62.6491 145.844 49.2379 145.844 35.4203ZM168.588 58.1638C168.588 64.0697 168.588 69.9755 168.588 76.0603C178.677 76.0603 188.766 76.0603 199.161 76.0603C199.161 70.1545 199.161 64.2486 199.161 58.1638C189.072 58.1638 178.983 58.1638 168.588 58.1638Z" fill="url(#paint1_linear_83_23113)"/>
<path d="M238.31 35.4203C263.41 35.4203 288.51 35.4203 314.37 35.4203C314.37 42.9256 314.37 50.431 314.37 58.1638C296.653 58.1638 278.935 58.1638 260.68 58.1638C260.68 64.0697 260.68 69.9755 260.68 76.0603C278.398 76.0603 296.116 76.0603 314.37 76.0603C314.37 96.4848 314.37 116.909 314.37 137.953C289.27 137.953 264.17 137.953 238.31 137.953C238.31 130.447 238.31 122.942 238.31 115.209C255.904 115.209 273.499 115.209 291.627 115.209C291.627 109.795 291.627 104.382 291.627 98.8039C274.032 98.8039 256.438 98.8039 238.31 98.8039C238.31 77.8873 238.31 56.9707 238.31 35.4203Z" fill="url(#paint2_linear_83_23113)"/>
<path d="M395.65 35.4203C403.033 35.4203 410.415 35.4203 418.021 35.4203C418.021 61.7506 418.021 88.0809 418.021 115.209C427.987 115.209 437.953 115.209 448.221 115.209C448.221 88.8787 448.221 62.5484 448.221 35.4203C456.465 35.4203 464.709 35.4203 473.202 35.4203C473.202 69.2559 473.202 103.092 473.202 137.953C447.61 137.953 422.018 137.953 395.65 137.953C395.65 104.117 395.65 70.2812 395.65 35.4203Z" fill="url(#paint3_linear_83_23113)"/>
<path d="M487.37 35.4203C512.347 35.4203 537.324 35.4203 563.058 35.4203C563.058 56.3368 563.058 77.2534 563.058 98.8039C545.586 98.8039 528.115 98.8039 510.114 98.8039C510.114 111.723 510.114 124.642 510.114 137.953C502.608 137.953 495.103 137.953 487.37 137.953C487.37 104.117 487.37 70.2812 487.37 35.4203ZM510.114 58.1638C510.114 64.0697 510.114 69.9755 510.114 76.0603C520.08 76.0603 530.046 76.0603 540.314 76.0603C540.314 70.1545 540.314 64.2486 540.314 58.1638C530.348 58.1638 520.382 58.1638 510.114 58.1638Z" fill="url(#paint4_linear_83_23113)"/>
<path d="M37.3465 35.4203C62.3233 35.4203 87.3002 35.4203 113.034 35.4203C113.034 42.9256 113.034 50.431 113.034 58.1638C95.4394 58.1638 77.8449 58.1638 59.7171 58.1638C59.7171 76.9887 59.7171 95.8137 59.7171 115.209C82.7254 115.209 105.734 115.209 129.439 115.209C129.439 122.714 129.439 130.22 129.439 137.953C99.0485 137.953 68.658 137.953 37.3465 137.953C37.3465 104.117 37.3465 70.2812 37.3465 35.4203Z" fill="url(#paint5_linear_83_23113)"/>
<path d="M330.775 35.4203C338.281 35.4203 345.786 35.4203 353.519 35.4203C353.519 48.8315 353.519 62.2427 353.519 76.0603C361.885 76.0603 370.252 76.0603 378.872 76.0603C378.872 83.5657 378.872 91.0711 378.872 98.8039C370.506 98.8039 362.139 98.8039 353.519 98.8039C353.519 111.723 353.519 124.642 353.519 137.953C346.013 137.953 338.508 137.953 330.775 137.953C330.775 104.117 330.775 70.2812 330.775 35.4203Z" fill="url(#paint6_linear_83_23113)"/>
<defs>
<linearGradient id="paint0_linear_83_23113" x1="116.964" y1="327.12" x2="55.9396" y2="15.4466" gradientUnits="userSpaceOnUse">
<stop stop-color="#B8DAE7"/>
<stop offset="1" stop-color="#7D9EBA"/>
</linearGradient>
<linearGradient id="paint1_linear_83_23113" x1="116.964" y1="327.12" x2="55.9396" y2="15.4466" gradientUnits="userSpaceOnUse">
<stop stop-color="#B8DAE7"/>
<stop offset="1" stop-color="#7D9EBA"/>
</linearGradient>
<linearGradient id="paint2_linear_83_23113" x1="116.964" y1="327.12" x2="55.9396" y2="15.4466" gradientUnits="userSpaceOnUse">
<stop stop-color="#B8DAE7"/>
<stop offset="1" stop-color="#7D9EBA"/>
</linearGradient>
<linearGradient id="paint3_linear_83_23113" x1="116.964" y1="327.12" x2="55.9396" y2="15.4466" gradientUnits="userSpaceOnUse">
<stop stop-color="#B8DAE7"/>
<stop offset="1" stop-color="#7D9EBA"/>
</linearGradient>
<linearGradient id="paint4_linear_83_23113" x1="116.964" y1="327.12" x2="55.9396" y2="15.4466" gradientUnits="userSpaceOnUse">
<stop stop-color="#B8DAE7"/>
<stop offset="1" stop-color="#7D9EBA"/>
</linearGradient>
<linearGradient id="paint5_linear_83_23113" x1="116.964" y1="327.12" x2="55.9396" y2="15.4466" gradientUnits="userSpaceOnUse">
<stop stop-color="#B8DAE7"/>
<stop offset="1" stop-color="#7D9EBA"/>
</linearGradient>
<linearGradient id="paint6_linear_83_23113" x1="116.964" y1="327.12" x2="55.9396" y2="15.4466" gradientUnits="userSpaceOnUse">
<stop stop-color="#B8DAE7"/>
<stop offset="1" stop-color="#7D9EBA"/>
</linearGradient>
</defs>
</svg>
